<?xml version="1.0" encoding="UTF-8" standalone="no"?>
<svg
   width="100mm"
   height="100mm"
   viewBox="0 0 100 100"
   version="1.1"
   id="svg8"
   inkscape:version="1.1.1 (3bf5ae0d25, 2021-09-20)"
   sodipodi:docname="django.svg"
   xmlns:inkscape="http://www.inkscape.org/namespaces/inkscape"
   xmlns:sodipodi="http://sodipodi.sourceforge.net/DTD/sodipodi-0.dtd"
   xmlns="http://www.w3.org/2000/svg"
   xmlns:svg="http://www.w3.org/2000/svg"
   xmlns:rdf="http://www.w3.org/1999/02/22-rdf-syntax-ns#"
   xmlns:cc="http://creativecommons.org/ns#"
   xmlns:dc="http://purl.org/dc/elements/1.1/">
  <defs
     id="defs2" />
  <sodipodi:namedview
     id="base"
     pagecolor="#ffffff"
     bordercolor="#666666"
     borderopacity="1.0"
     inkscape:pageopacity="0.0"
     inkscape:pageshadow="2"
     inkscape:zoom="1.4"
     inkscape:cx="249.64286"
     inkscape:cy="119.28571"
     inkscape:document-units="mm"
     inkscape:current-layer="layer1"
     inkscape:document-rotation="0"
     showgrid="false"
     inkscape:pagecheckerboard="true"
     inkscape:showpageshadow="false"
     fit-margin-top="0"
     fit-margin-left="0"
     fit-margin-right="0"
     fit-margin-bottom="0"
     inkscape:window-width="1920"
     inkscape:window-height="1011"
     inkscape:window-x="0"
     inkscape:window-y="32"
     inkscape:window-maximized="1" />
  <metadata
     id="metadata5">
    <rdf:RDF>
      <cc:Work
         rdf:about="">
        <dc:format>image/svg+xml</dc:format>
        <dc:type
           rdf:resource="http://purl.org/dc/dcmitype/StillImage" />
      </cc:Work>
    </rdf:RDF>
  </metadata>
  <g
     inkscape:label="Layer 1"
     inkscape:groupmode="layer"
     id="layer1">
    <path
       id="path847"
       style="fill:#2a7fff;fill-opacity:1;stroke-width:0.226365"
       d="m 45.904334,10 v 9.986791 9.986387 l -0.509625,-0.137837 c -1.42305,-0.384518 -4.793725,-0.629537 -6.734349,-0.489587 -9.12062,0.657737 -15.36299,4.541684 -18.776824,11.682549 -2.96164,6.194996 -2.905237,14.853268 0.137018,21.035791 0.896465,1.82181 1.372344,2.461921 3.11461,4.187851 2.304621,2.283008 4.681221,3.692449 7.942152,4.709748 1.703894,0.53156 5.219321,1.193136 7.243566,1.363226 4.751556,0.399264 14.237409,-0.307713 19.620614,-1.462208 l 1.092055,-0.233954 V 40.314584 10 h -6.56461 z m 20.825555,0.226594 v 6.677903 6.677492 h 6.564609 6.564609 v -6.677492 -6.677903 h -6.564609 z m 0.04704,19.91346 -0.108796,17.602965 c -0.112331,18.118631 -0.198305,19.983498 -1.096964,23.864089 -1.199033,5.177696 -4.189842,8.785843 -9.552835,11.525084 -1.079671,0.551465 -1.963611,1.062525 -1.964064,1.135817 -5.61e-4,0.07321 2.673124,1.415028 5.941277,2.981681 3.268152,1.566659 6.082572,2.803478 6.254579,2.748549 0.740667,-0.236399 4.578762,-2.634916 5.773175,-3.607877 3.545098,-2.88782 5.886879,-7.133394 6.94826,-12.597093 0.756068,-3.892044 0.911559,-8.802993 0.841332,-26.556198 l -0.06708,-16.977179 -6.484443,-0.06015 z m -25.141835,9.80642 c 1.201674,0.0032 2.432753,0.142395 3.420139,0.404922 l 0.849105,0.225771 v 10.390485 c 0,6.182539 -0.08585,10.44373 -0.211458,10.521374 -0.51778,0.32002 -5.826723,0.336586 -7.199391,0.02248 -1.913669,-0.437871 -4.010439,-1.597116 -4.939204,-2.730551 -1.788895,-2.183106 -2.478632,-4.767129 -2.296591,-8.601071 0.281731,-5.933538 3.030431,-9.272374 8.305356,-10.088639 0.640567,-0.09912 1.351038,-0.146566 2.072044,-0.144785 z" />
  </g>
</svg>
