<?xml version="1.0" encoding="UTF-8" standalone="no"?>
<svg
   width="99.967087mm"
   height="100mm"
   viewBox="0 0 99.967087 100"
   version="1.1"
   id="svg8"
   inkscape:version="1.1.1 (3bf5ae0d25, 2021-09-20)"
   sodipodi:docname="git.svg"
   xmlns:inkscape="http://www.inkscape.org/namespaces/inkscape"
   xmlns:sodipodi="http://sodipodi.sourceforge.net/DTD/sodipodi-0.dtd"
   xmlns="http://www.w3.org/2000/svg"
   xmlns:svg="http://www.w3.org/2000/svg"
   xmlns:rdf="http://www.w3.org/1999/02/22-rdf-syntax-ns#"
   xmlns:cc="http://creativecommons.org/ns#"
   xmlns:dc="http://purl.org/dc/elements/1.1/">
  <defs
     id="defs2" />
  <sodipodi:namedview
     id="base"
     pagecolor="#ffffff"
     bordercolor="#666666"
     borderopacity="1.0"
     inkscape:pageopacity="0.0"
     inkscape:pageshadow="2"
     inkscape:zoom="1.4"
     inkscape:cx="366.07143"
     inkscape:cy="158.57143"
     inkscape:document-units="mm"
     inkscape:current-layer="g849"
     inkscape:document-rotation="0"
     showgrid="false"
     inkscape:pagecheckerboard="true"
     fit-margin-top="0"
     fit-margin-left="0"
     fit-margin-right="0"
     fit-margin-bottom="0"
     inkscape:window-width="1920"
     inkscape:window-height="1011"
     inkscape:window-x="0"
     inkscape:window-y="32"
     inkscape:window-maximized="1" />
  <metadata
     id="metadata5">
    <rdf:RDF>
      <cc:Work
         rdf:about="">
        <dc:format>image/svg+xml</dc:format>
        <dc:type
           rdf:resource="http://purl.org/dc/dcmitype/StillImage" />
        <dc:title />
      </cc:Work>
    </rdf:RDF>
  </metadata>
  <g
     inkscape:label="Layer 1"
     inkscape:groupmode="layer"
     id="layer1"
     transform="translate(-8.3973131,-40.186816)">
    <g
       id="g849"
       transform="matrix(0.56601135,0,0,0.56601135,1.077073,11.878213)"
       style="fill:##4e4b44">
      <path
         style="fill:#2a7fff;fill-opacity:1;stroke-width:0.802347"
         d="m 99.170045,208.72964 c -0.843555,-0.22681 -1.926225,-0.6582 -2.405924,-0.95865 -0.479699,-0.30046 -15.345292,-15.04095 -33.034654,-32.75663 -35.842809,-35.89617 -33.083596,-32.80963 -33.077805,-37.00187 0.0053,-3.84633 -1.048216,-2.6248 23.148339,-26.83966 l 21.708003,-21.724437 7.961095,7.957417 7.961093,7.95742 -0.407865,1.3128 c -1.373882,4.42218 1.17068,10.38964 5.336408,12.51483 l 1.08998,0.55607 -0.01773,19.31241 -0.01765,19.31242 -1.74727,1.1322 c -7.306121,4.73425 -6.374989,15.46403 1.66369,19.17123 1.15359,0.53201 1.878687,0.64228 4.223205,0.64228 2.4786,0 3.03171,-0.0943 4.449,-0.75859 2.26004,-1.05928 4.28454,-3.04692 5.38945,-5.29132 0.84955,-1.72567 0.91745,-2.07351 0.91745,-4.70004 0,-2.47993 -0.0947,-3.03837 -0.75303,-4.44281 -0.83558,-1.78245 -2.62946,-3.87888 -4.09315,-4.78349 l -0.95636,-0.59106 v -19.15147 -19.15147 l 7.22052,7.21568 c 4.95498,4.95167 7.16754,7.34892 7.05164,7.64028 -0.58397,1.46807 -0.76608,3.77482 -0.43839,5.55326 0.68677,3.7272 2.83456,6.52227 6.26278,8.15017 1.65865,0.78762 2.10463,0.87315 4.5288,0.86853 2.31532,-0.004 2.91525,-0.11044 4.31727,-0.76307 3.35693,-1.56263 5.76064,-4.69199 6.42711,-8.36741 0.82732,-4.56236 -1.71394,-9.40625 -6.04703,-11.52624 -1.30036,-0.6362 -2.16563,-0.83989 -3.95909,-0.932 -1.26226,-0.0648 -2.74084,0.007 -3.28571,0.15932 l -0.99067,0.27718 -7.82186,-7.78492 -7.82186,-7.78493 0.28222,-1.0221 c 0.50683,-1.83559 0.13113,-5.35122 -0.77473,-7.2495 -2.07146,-4.3409 -6.95973,-6.902472 -11.580748,-6.068593 l -1.676375,0.302509 -8.087438,-8.087439 -8.08744,-8.08744 6.791786,-6.803371 c 7.694802,-7.707919 8.48135,-8.266064 11.886685,-8.434883 1.51988,-0.07535 2.37689,0.04686 3.67965,0.524737 1.64592,0.603749 2.68722,1.610624 33.76301,32.64661 35.73961,35.69384 33.74443,33.48275 33.74443,37.39639 0,4.22414 2.76129,1.13154 -32.93905,36.89133 -17.61152,17.64085 -32.53043,32.37158 -33.15314,32.73495 -1.06888,0.62373 -3.55578,1.30528 -4.61349,1.26436 -0.26478,-0.0103 -1.17159,-0.20419 -2.015151,-0.43099 z"
         id="path851" />
    </g>
    <path
       style="fill:#000000;stroke-width:0.352778"
       id="path847"
       d="" />
  </g>
</svg>
