<?xml version="1.0" encoding="UTF-8" standalone="no"?>
<svg
   xmlns:dc="http://purl.org/dc/elements/1.1/"
   xmlns:cc="http://creativecommons.org/ns#"
   xmlns:rdf="http://www.w3.org/1999/02/22-rdf-syntax-ns#"
   xmlns:svg="http://www.w3.org/2000/svg"
   xmlns="http://www.w3.org/2000/svg"
   xmlns:sodipodi="http://sodipodi.sourceforge.net/DTD/sodipodi-0.dtd"
   xmlns:inkscape="http://www.inkscape.org/namespaces/inkscape"
   viewBox="0 0 20 20"
   fill="currentColor"
   aria-hidden="true"
   version="1.1"
   id="svg4"
   sodipodi:docname="globe-alt.svg"
   inkscape:version="1.0.2 (e86c870879, 2021-01-15, custom)">
  <metadata
     id="metadata10">
    <rdf:RDF>
      <cc:Work
         rdf:about="">
        <dc:format>image/svg+xml</dc:format>
        <dc:type
           rdf:resource="http://purl.org/dc/dcmitype/StillImage" />
        <dc:title></dc:title>
      </cc:Work>
    </rdf:RDF>
  </metadata>
  <defs
     id="defs8" />
  <sodipodi:namedview
     pagecolor="#ffffff"
     bordercolor="#666666"
     borderopacity="1"
     objecttolerance="10"
     gridtolerance="10"
     guidetolerance="10"
     inkscape:pageopacity="0"
     inkscape:pageshadow="2"
     inkscape:window-width="1920"
     inkscape:window-height="991"
     id="namedview6"
     showgrid="false"
     inkscape:zoom="25.986174"
     inkscape:cx="11.177832"
     inkscape:cy="10.884783"
     inkscape:window-x="-9"
     inkscape:window-y="-9"
     inkscape:window-maximized="1"
     inkscape:current-layer="svg4" />
  <path
     fill-rule="evenodd"
     d="m 2.60375,8.75 h 2.4325 C 5.1475,6.8175 5.515,5.0375 6.0825,3.6025 A 7.505,7.505 0 0 0 2.60375,8.75 Z M 10,0 a 10,10 0 1 0 0,20 10,10 0 0 0 0,-20 z m 0,2.5 C 9.905,2.5 9.71,2.54 9.41875,2.8275 9.12125,3.12 8.7975,3.60625 8.4975,4.305 8.01125,5.43875 7.65625,6.9825 7.54,8.75 h 4.92 C 12.34375,6.9825 11.98875,5.43875 11.5025,4.305 11.2025,3.605 10.8775,3.12 10.58125,2.8275 10.29,2.54 10.095,2.5 10,2.5 Z m 4.96375,6.25 C 14.8525,6.8175 14.485,5.0375 13.9175,3.6025 A 7.505,7.505 0 0 1 17.39625,8.75 Z M 12.46,11.25 H 7.54 c 0.11625,1.7675 0.47125,3.31125 0.9575,4.445 0.3,0.7 0.625,1.185 0.92125,1.4775 C 9.71,17.46 9.905,17.5 10,17.5 c 0.095,0 0.29,-0.04 0.58125,-0.3275 0.2975,-0.2925 0.6225,-0.77875 0.92125,-1.4775 0.48625,-1.13375 0.84125,-2.6775 0.9575,-4.445 z m 1.4575,5.1475 c 0.5675,-1.43375 0.935,-3.215 1.04625,-5.1475 h 2.4325 a 7.505,7.505 0 0 1 -3.47875,5.1475 z m -7.835,0 C 5.515,14.9625 5.1475,13.1825 5.0375,11.25 H 2.60375 a 7.505,7.505 0 0 0 3.47875,5.1475 z"
     clip-rule="evenodd"
     id="path2"
     style="stroke-width:1.25;fill:#0066ff" />
</svg>
