<?xml version="1.0" encoding="UTF-8" standalone="no"?>
<svg
   xmlns:dc="http://purl.org/dc/elements/1.1/"
   xmlns:cc="http://creativecommons.org/ns#"
   xmlns:rdf="http://www.w3.org/1999/02/22-rdf-syntax-ns#"
   xmlns:svg="http://www.w3.org/2000/svg"
   xmlns="http://www.w3.org/2000/svg"
   xmlns:sodipodi="http://sodipodi.sourceforge.net/DTD/sodipodi-0.dtd"
   xmlns:inkscape="http://www.inkscape.org/namespaces/inkscape"
   width="74.011421"
   height="99.999756"
   viewBox="0 0 19.582188 26.458271"
   version="1.1"
   id="svg8"
   inkscape:version="1.0.2 (e86c870879, 2021-01-15, custom)"
   sodipodi:docname="java.svg">
  <defs
     id="defs2">
    <inkscape:perspective
       sodipodi:type="inkscape:persp3d"
       inkscape:vp_x="12.561669 : -118.56725 : 1"
       inkscape:vp_y="0 : 1000.0001 : 0"
       inkscape:vp_z="210 : -122.04174 : 1"
       inkscape:persp3d-origin="105 : -171.54175 : 1"
       id="perspective12" />
  </defs>
  <sodipodi:namedview
     id="base"
     pagecolor="#ffffff"
     bordercolor="#666666"
     borderopacity="1.0"
     inkscape:pageopacity="0.0"
     inkscape:pageshadow="2"
     inkscape:zoom="3.959798"
     inkscape:cx="62.63318"
     inkscape:cy="35.201741"
     inkscape:document-units="mm"
     inkscape:current-layer="layer1"
     inkscape:document-rotation="0"
     showgrid="false"
     units="px"
     showborder="true"
     inkscape:showpageshadow="false"
     borderlayer="false"
     inkscape:snap-grids="false"
     inkscape:snap-page="false"
     inkscape:snap-text-baseline="false"
     inkscape:object-paths="true"
     inkscape:snap-intersection-paths="true"
     inkscape:snap-smooth-nodes="true"
     inkscape:object-nodes="true"
     inkscape:snap-nodes="true"
     inkscape:snap-midpoints="true"
     inkscape:window-width="1920"
     inkscape:window-height="991"
     inkscape:window-x="-9"
     inkscape:window-y="-9"
     inkscape:window-maximized="1"
     inkscape:pagecheckerboard="true"
     fit-margin-top="0"
     fit-margin-left="0"
     fit-margin-right="0"
     fit-margin-bottom="0" />
  <metadata
     id="metadata5">
    <rdf:RDF>
      <cc:Work
         rdf:about="">
        <dc:format>image/svg+xml</dc:format>
        <dc:type
           rdf:resource="http://purl.org/dc/dcmitype/StillImage" />
        <dc:title />
      </cc:Work>
    </rdf:RDF>
  </metadata>
  <g
     inkscape:label="Ebene 1"
     inkscape:groupmode="layer"
     id="layer1"
     transform="translate(-469.66514,78.828594)">
    <path
       style="fill:#2a7fff;stroke-width:0.0115254;fill-opacity:1"
       d="m 478.94822,-52.371782 c -0.002,-0.0015 -0.12231,-0.006 -0.26811,-0.01 -0.14579,-0.004 -0.30658,-0.0096 -0.35728,-0.01247 -0.0507,-0.0029 -0.17001,-0.0083 -0.26509,-0.01208 -0.0951,-0.0037 -0.20141,-0.0087 -0.23627,-0.01094 -0.0349,-0.0023 -0.11785,-0.0073 -0.18441,-0.01123 -0.0666,-0.0039 -0.13657,-0.0093 -0.15559,-0.01195 -0.019,-0.0027 -0.0942,-0.008 -0.16712,-0.01187 -0.0729,-0.0039 -0.1481,-0.009 -0.16712,-0.01137 -0.019,-0.0024 -0.0709,-0.0074 -0.11525,-0.01112 -0.15207,-0.01276 -0.31319,-0.02764 -0.38034,-0.03514 -0.0254,-0.0028 -0.11871,-0.01311 -0.20746,-0.02284 -0.20572,-0.02255 -0.59008,-0.07101 -0.68,-0.08574 -0.038,-0.0062 -0.12361,-0.0197 -0.19016,-0.02993 -0.60009,-0.09226 -1.30809,-0.246326 -1.89715,-0.412845 -0.2119,-0.0599 -0.29752,-0.09086 -0.31084,-0.11241 -0.009,-0.01498 -0.0126,-0.01522 0.74868,0.05298 0.58989,0.05285 1.09899,0.09639 1.48236,0.126759 0.0412,0.0033 0.25125,0.01622 0.46677,0.02878 0.33705,0.01965 0.5844,0.03237 1.22746,0.06309 0.0666,0.0032 0.23771,0.0089 0.38034,0.01267 0.14263,0.0038 0.27488,0.0089 0.2939,0.01144 0.0501,0.0066 1.11297,0.02149 1.53864,0.02157 0.39096,1.16e-4 1.18331,-0.01232 1.41763,-0.02215 0.9277,-0.03896 1.26516,-0.05843 1.80948,-0.104383 2.36742,-0.199866 4.16132,-0.605543 5.41639,-1.224873 0.33274,-0.164197 0.55913,-0.299742 0.87413,-0.523356 0.11597,-0.08233 0.21356,-0.146987 0.21686,-0.14369 0.01,0.01005 -0.0187,0.101737 -0.0585,0.186967 -0.052,0.111171 -0.13661,0.226672 -0.26256,0.358443 -0.30355,0.317595 -0.71787,0.582984 -1.33494,0.855091 -0.68744,0.303134 -1.47252,0.507293 -2.71338,0.705614 -0.40678,0.06501 -1.16828,0.164458 -1.53864,0.200935 -0.0349,0.0034 -0.1386,0.0137 -0.23051,0.02281 -0.0919,0.0091 -0.20861,0.01996 -0.25932,0.0241 -0.0507,0.0041 -0.10777,0.0092 -0.12678,0.01134 -0.019,0.0021 -0.0813,0.0071 -0.13831,0.01104 -0.0571,0.004 -0.12188,0.0093 -0.14407,0.01176 -0.0222,0.0025 -0.0896,0.0078 -0.14983,0.01192 -0.0602,0.0041 -0.12764,0.0091 -0.14983,0.01113 -0.0222,0.002 -0.1,0.0072 -0.17288,0.01149 -0.0729,0.0043 -0.15329,0.0096 -0.17864,0.01172 -0.0253,0.0022 -0.11093,0.0073 -0.19017,0.01138 -0.0792,0.0041 -0.17,0.0095 -0.2017,0.01198 -0.0546,0.0043 -0.13753,0.0081 -0.50135,0.02314 -0.0856,0.0035 -0.21783,0.0091 -0.2939,0.01237 -0.1391,0.006 -1.63946,0.01492 -1.64511,0.0098 z m -2.21014,-1.372762 c -0.30912,-0.0043 -1.24906,-0.02687 -1.36576,-0.0328 -0.0571,-0.0029 -0.17375,-0.008 -0.25932,-0.01145 -0.61995,-0.02461 -1.71678,-0.09873 -2.21288,-0.149538 -0.0285,-0.0029 -0.0856,-0.0083 -0.12678,-0.01198 -0.0412,-0.0037 -0.0879,-0.0088 -0.10373,-0.01145 -0.0159,-0.0026 -0.0625,-0.0079 -0.10373,-0.0116 -0.0849,-0.0077 -0.1326,-0.01323 -0.2478,-0.02867 -0.0444,-0.0059 -0.1092,-0.01397 -0.14406,-0.01782 -0.12597,-0.01394 -0.52865,-0.07552 -0.72034,-0.110161 -0.79317,-0.143327 -1.30576,-0.305693 -1.5777,-0.499743 -0.1942,-0.138584 -0.24915,-0.276709 -0.18577,-0.467007 0.10091,-0.303034 0.43233,-0.567048 0.98971,-0.788419 0.62849,-0.249616 1.45604,-0.441318 2.30088,-0.533001 0.29013,-0.03149 0.82983,-0.02622 0.82983,0.0081 0,0.0059 -0.0105,0.0107 -0.0232,0.0107 -0.0788,0 -0.93022,0.168229 -1.20383,0.237848 -0.52861,0.134499 -0.98564,0.339038 -1.13646,0.508616 -0.0691,0.07773 -0.11898,0.187541 -0.11126,0.245113 0.0225,0.167558 0.2811,0.311893 0.78125,0.436007 0.84766,0.210346 2.01793,0.356712 3.89487,0.487129 0.66495,0.0462 2.64797,0.03683 4.02237,-0.01902 0.79545,-0.03232 0.92921,-0.03805 1.07186,-0.04587 0.0539,-0.003 0.15502,-0.0081 0.22474,-0.01153 1.6441,-0.07982 3.25207,-0.233803 4.2817,-0.410018 0.56396,-0.09652 0.93514,-0.182813 1.38305,-0.321542 0.0707,-0.02191 0.22839,-0.0872 0.32532,-0.134733 0.19906,-0.09761 0.3277,-0.193293 0.40031,-0.297765 0.0726,-0.104426 0.066,-0.254629 -0.0186,-0.423559 -0.0349,-0.06962 -0.0197,-0.07121 0.0751,-0.0079 0.0898,0.05998 0.18837,0.168929 0.23227,0.256788 0.074,0.14808 0.0386,0.262443 -0.13612,0.439513 -0.26277,0.266344 -0.7656,0.539115 -1.42124,0.77098 -0.79345,0.280607 -2.06684,0.552997 -3.1279,0.669092 -0.0317,0.0035 -0.10171,0.01134 -0.1556,0.0175 -0.0539,0.0062 -0.12908,0.0142 -0.16711,0.01788 -0.038,0.0037 -0.0873,0.0091 -0.10949,0.01206 -0.0408,0.0054 -0.47431,0.04403 -0.6339,0.05643 -0.54382,0.04225 -0.6213,0.04748 -1.11221,0.07509 -0.29172,0.01641 -0.40387,0.02206 -0.58203,0.02932 -0.0856,0.0035 -0.1893,0.0086 -0.23051,0.01138 -0.0412,0.0028 -0.19679,0.0083 -0.34576,0.01221 -0.14897,0.0039 -0.28203,0.0089 -0.29569,0.011 -0.0137,0.0021 -0.18742,0.0071 -0.3861,0.01105 -0.1987,0.004 -0.40534,0.0097 -0.45922,0.01266 -0.11045,0.0061 -1.7986,0.01338 -2.10916,0.0091 z m 2.15208,-2.546093 c -10e-4,-0.0012 -0.11952,-0.0055 -0.26244,-0.0097 -0.14292,-0.0042 -0.27258,-0.0096 -0.28814,-0.01204 -0.0156,-0.0025 -0.10089,-0.0078 -0.18963,-0.0119 -0.0888,-0.0041 -0.17692,-0.0094 -0.19594,-0.01181 -0.019,-0.0024 -0.0812,-0.0074 -0.1383,-0.01116 -0.0571,-0.0037 -0.12448,-0.009 -0.14983,-0.01166 -0.0254,-0.0027 -0.085,-0.008 -0.13255,-0.01183 -0.0475,-0.0038 -0.102,-0.0091 -0.12101,-0.01178 -0.019,-0.0027 -0.10719,-0.01291 -0.19594,-0.02279 -0.77805,-0.08662 -1.52811,-0.275886 -1.96697,-0.496323 -0.31617,-0.158808 -0.52192,-0.375065 -0.54871,-0.57673 -0.0365,-0.274744 0.14462,-0.510518 0.54678,-0.711799 0.18675,-0.09347 0.36911,-0.158231 0.51958,-0.184522 0.0455,-0.008 0.0501,0.01449 0.0138,0.06779 -0.0489,0.07177 -0.0799,0.144598 -0.0869,0.204388 -0.0325,0.276413 0.40157,0.469989 1.14214,0.509357 0.55426,0.02947 0.88468,0.03736 1.57322,0.03757 0.58263,1.91e-4 0.81882,-0.0056 1.26779,-0.03076 0.97957,-0.05501 1.69503,-0.141013 2.21131,-0.265809 0.27773,-0.06713 0.27261,-0.06792 0.51445,0.0792 0.38341,0.233242 0.73174,0.416366 1.04593,0.549867 0.0872,0.03703 0.15847,0.07024 0.15845,0.0738 -1.3e-4,0.03541 -0.86275,0.296552 -1.54438,0.467531 -0.63701,0.159789 -1.34832,0.288084 -1.85559,0.334684 -0.0475,0.0044 -0.0942,0.0093 -0.10373,0.011 -0.01,0.0017 -0.0717,0.0067 -0.1383,0.01115 -0.0666,0.0045 -0.14176,0.0098 -0.16712,0.01178 -0.14111,0.0113 -0.89854,0.03001 -0.90792,0.02243 z m -0.30225,-2.915641 c -0.0127,-0.0022 -0.20717,-0.0097 -0.4322,-0.01663 -1.33286,-0.04103 -2.22713,-0.130844 -3.04904,-0.306216 -0.50166,-0.107043 -0.91596,-0.278247 -1.06884,-0.441686 -0.0536,-0.05727 -0.10207,-0.141445 -0.11705,-0.203135 -0.0408,-0.16831 0.0485,-0.41352 0.21433,-0.58808 0.20504,-0.215857 0.5568,-0.393099 0.95901,-0.483215 0.0752,-0.01685 0.13884,-0.02852 0.14142,-0.02593 0.003,0.0026 -0.0299,0.04306 -0.0722,0.08995 -0.29978,0.332331 -0.26491,0.553307 0.11533,0.730826 0.38742,0.180873 1.11736,0.262724 2.35839,0.264456 0.34334,4.9e-4 1.03019,-0.01329 1.08339,-0.02172 0.0159,-0.0025 0.11439,-0.0079 0.21898,-0.01188 0.85728,-0.03296 1.84734,-0.120602 2.8756,-0.254571 0.13107,-0.01708 0.40244,-0.05874 0.68436,-0.105075 0.35323,-0.05805 0.42767,-0.06232 0.49428,-0.02834 0.0247,0.01258 0.11187,0.07641 0.19378,0.141844 0.26382,0.210742 0.46329,0.327668 0.70268,0.411907 0.0681,0.02396 0.11783,0.04723 0.11057,0.05172 -0.034,0.02101 -0.29568,0.107286 -0.51449,0.169627 -1.19178,0.339544 -2.17483,0.5164 -3.36133,0.60472 -0.22242,0.01656 -1.46582,0.0339 -1.53697,0.02143 z m 6.57525,-0.221584 c 0,-0.0049 0.0739,-0.05504 0.16423,-0.11151 0.88978,-0.556283 1.32034,-0.883345 1.84119,-1.398603 0.43132,-0.426694 0.68424,-0.770211 0.84748,-1.151081 0.19033,-0.444048 0.21116,-0.824424 0.0679,-1.238981 -0.0753,-0.217923 -0.18029,-0.382932 -0.33699,-0.529773 -0.24629,-0.230793 -0.55645,-0.350709 -1.05666,-0.408541 -0.19126,-0.02211 -0.68325,0.0032 -0.84467,0.04339 -0.0952,0.02373 -0.0748,-0.0073 0.0711,-0.108087 0.20832,-0.143898 0.56222,-0.243382 0.9796,-0.275373 0.661,-0.05066 1.32752,0.18552 1.80102,0.638181 0.29801,0.284906 0.46787,0.59386 0.53042,0.964805 0.0283,0.167837 0.0255,0.446882 -0.006,0.602354 -0.0882,0.434627 -0.33914,0.857532 -0.76425,1.28801 -0.67068,0.679144 -1.72194,1.245397 -3.03633,1.635482 -0.18796,0.05578 -0.25795,0.06927 -0.25795,0.04973 z m -8.27525,-2.622244 c -0.003,-0.0029 -0.14061,-0.0088 -0.30542,-0.01316 -0.16482,-0.0044 -0.33078,-0.01 -0.36882,-0.01251 -0.038,-0.0025 -0.14695,-0.0076 -0.24203,-0.01126 -0.90572,-0.03497 -1.95241,-0.124237 -2.71423,-0.23148 -0.73397,-0.103322 -1.26122,-0.259978 -1.40988,-0.418903 -0.10101,-0.107988 -0.0877,-0.189378 0.0541,-0.330148 0.25925,-0.257485 0.92523,-0.556051 1.89175,-0.848084 0.62369,-0.188449 1.34911,-0.336741 1.99391,-0.407601 0.18138,-0.01993 0.38811,-0.01985 0.38383,1.5e-4 -10e-4,0.0063 -0.13648,0.04887 -0.30028,0.09452 -0.77794,0.216802 -1.23261,0.375002 -1.61645,0.562432 -0.20481,0.100013 -0.32125,0.175146 -0.4131,0.266562 -0.18018,0.179324 -0.14923,0.309306 0.0968,0.406529 0.18316,0.07238 0.35193,0.107788 0.74274,0.155823 0.21313,0.0262 0.26826,0.03216 0.44373,0.04797 0.0349,0.0031 0.0815,0.0079 0.10372,0.01065 0.0222,0.0027 0.10258,0.0083 0.17864,0.01243 0.0761,0.0041 0.14609,0.0089 0.1556,0.01063 0.01,0.0017 0.10546,0.0069 0.21322,0.01152 0.10776,0.0046 0.20386,0.0099 0.21355,0.01164 0.16694,0.0308 2.79631,0.0304 3.04814,-4.5e-4 0.019,-0.0023 0.102,-0.0075 0.18441,-0.01153 0.0824,-0.004 0.16539,-0.0092 0.1844,-0.01152 0.019,-0.0023 0.0968,-0.0075 0.17288,-0.01143 0.0761,-0.004 0.15128,-0.009 0.16712,-0.01123 0.0159,-0.0022 0.091,-0.0074 0.16712,-0.01153 0.0761,-0.0041 0.15127,-0.0093 0.16712,-0.01153 0.0159,-0.0022 0.0807,-0.0073 0.14407,-0.01136 0.0634,-0.004 0.136,-0.0094 0.16135,-0.01192 0.0254,-0.0025 0.0928,-0.0077 0.14983,-0.01157 0.0571,-0.0038 0.12448,-0.0091 0.14983,-0.0116 0.0253,-0.0025 0.0824,-0.0076 0.12679,-0.01114 0.0444,-0.0036 0.11438,-0.0092 0.15559,-0.01258 0.0721,-0.0058 0.24949,-0.02261 0.35728,-0.03379 0.0285,-0.003 0.18672,-0.01843 0.35153,-0.03439 0.70456,-0.06822 1.63211,-0.181644 2.31661,-0.283275 0.31467,-0.04672 0.96222,-0.147704 0.99406,-0.155021 0.0199,-0.0046 0.0259,-8.46e-4 0.0259,0.0159 0,0.02295 0.0127,0.01465 -0.63966,0.4174 -0.47149,0.291078 -0.39685,0.260931 -0.78373,0.316544 -0.0634,0.0091 -0.18527,0.02701 -0.27085,0.03976 -0.0856,0.01276 -0.17115,0.02552 -0.19017,0.02835 -0.019,0.0028 -0.24721,0.03375 -0.50711,0.06871 -1.24943,0.168055 -2.4531,0.296307 -3.41729,0.364112 -0.0919,0.0065 -0.20083,0.01418 -0.24203,0.01716 -0.0412,0.003 -0.23051,0.01327 -0.42068,0.02287 -0.19017,0.0096 -0.38725,0.02011 -0.43796,0.02335 -0.12622,0.008 -1.20876,0.0205 -1.21594,0.01399 z m 3.56135,-1.478617 c 0,-0.0037 0.0562,-0.08534 0.12491,-0.181526 0.27161,-0.380282 0.43778,-0.658549 0.5384,-0.901641 0.13791,-0.333152 0.12555,-0.68664 -0.036,-1.029355 -0.10661,-0.226197 -0.19568,-0.367437 -0.52519,-0.832848 -0.50786,-0.7173 -0.54269,-0.770595 -0.67429,-1.031869 -0.20752,-0.411974 -0.32515,-0.8489 -0.34547,-1.28323 -0.0291,-0.622314 0.19778,-1.272579 0.64561,-1.850249 0.74256,-0.957838 2.16869,-1.84661 4.05811,-2.529046 0.30854,-0.111442 0.97363,-0.323073 1.01531,-0.323073 0.0374,0 0.0115,0.03742 -0.0538,0.07776 -0.21548,0.133107 -0.93615,0.595902 -1.13144,0.726584 -1.54636,1.034776 -2.50298,1.921243 -2.86547,2.655322 -0.26779,0.542284 -0.2484,0.938787 0.0744,1.522273 0.0789,0.142597 0.18083,0.305649 0.38723,0.619414 0.28514,0.433471 0.40924,0.643179 0.52859,0.893219 0.12516,0.262217 0.21609,0.524931 0.26047,0.752598 0.0289,0.148289 0.0259,0.399693 -0.007,0.555037 -0.11117,0.530226 -0.5279,1.088644 -1.23979,1.66131 -0.33579,0.270113 -0.75492,0.547339 -0.75492,0.499323 z m -1.34883,-1.236603 c -0.7704,-0.773781 -1.60337,-1.721907 -2.12768,-2.421834 -0.43867,-0.585597 -0.72249,-1.05015 -0.8852,-1.448886 -0.20345,-0.498585 -0.17497,-0.934275 0.097,-1.484331 0.22426,-0.453488 0.55087,-0.869954 1.13092,-1.44205 0.51237,-0.505336 1.10459,-1.01797 2.41341,-2.089093 0.76079,-0.622612 0.87252,-0.718504 1.08939,-0.934954 0.69848,-0.697109 1.15866,-1.507153 1.35276,-2.381225 0.12694,-0.571658 0.13932,-1.087782 0.0404,-1.685439 -0.0129,-0.07824 -0.0206,-0.149921 -0.017,-0.159283 0.0143,-0.03735 0.0576,-0.0093 0.11849,0.0768 0.11952,0.168938 0.17537,0.297594 0.23871,0.549948 0.075,0.298915 0.12995,0.618658 0.1567,0.912296 0.0164,0.180138 0.0163,0.598419 -2e-4,0.779449 -0.0745,0.815917 -0.36131,1.545471 -0.87884,2.23593 -0.19061,0.254299 -0.37685,0.449041 -0.94204,0.985027 -1.98408,1.881604 -2.59567,2.524504 -3.04836,3.20446 -0.26083,0.391772 -0.44583,0.808042 -0.49653,1.117246 -0.025,0.15232 -0.0169,0.434495 0.0172,0.602991 0.10997,0.543265 0.34236,1.1227 0.74716,1.862955 0.26188,0.47889 0.77467,1.29115 1.04127,1.649345 0.12173,0.163563 0.16164,0.222387 0.19355,0.285254 0.0137,0.02694 0.0235,0.04836 0.0217,0.0476 -0.002,-7.68e-4 -0.11997,-0.118753 -0.2628,-0.262203 z"
       id="path931" />
  </g>
</svg>
