<?xml version="1.0" encoding="UTF-8" standalone="no"?>
<svg
   width="377.95276"
   height="377.95276"
   viewBox="0 0 99.999998 100.00001"
   version="1.1"
   id="svg8"
   inkscape:version="1.1.1 (3bf5ae0d25, 2021-09-20)"
   sodipodi:docname="java.svg"
   xmlns:inkscape="http://www.inkscape.org/namespaces/inkscape"
   xmlns:sodipodi="http://sodipodi.sourceforge.net/DTD/sodipodi-0.dtd"
   xmlns="http://www.w3.org/2000/svg"
   xmlns:svg="http://www.w3.org/2000/svg"
   xmlns:rdf="http://www.w3.org/1999/02/22-rdf-syntax-ns#"
   xmlns:cc="http://creativecommons.org/ns#"
   xmlns:dc="http://purl.org/dc/elements/1.1/">
  <defs
     id="defs2">
    <inkscape:perspective
       sodipodi:type="inkscape:persp3d"
       inkscape:vp_x="12.561669 : -45.025512 : 1"
       inkscape:vp_y="0 : 1000.0001 : 0"
       inkscape:vp_z="210 : -48.500002 : 1"
       inkscape:persp3d-origin="105 : -98.000012 : 1"
       id="perspective12" />
  </defs>
  <sodipodi:namedview
     id="base"
     pagecolor="#ffffff"
     bordercolor="#666666"
     borderopacity="1.0"
     inkscape:pageopacity="0.0"
     inkscape:pageshadow="2"
     inkscape:zoom="1.979899"
     inkscape:cx="256.83128"
     inkscape:cy="201.02035"
     inkscape:document-units="mm"
     inkscape:current-layer="layer1"
     inkscape:document-rotation="0"
     showgrid="false"
     units="px"
     showborder="true"
     inkscape:showpageshadow="false"
     borderlayer="false"
     inkscape:snap-grids="false"
     inkscape:snap-page="false"
     inkscape:snap-text-baseline="false"
     inkscape:object-paths="true"
     inkscape:snap-intersection-paths="true"
     inkscape:snap-smooth-nodes="true"
     inkscape:object-nodes="true"
     inkscape:snap-nodes="true"
     inkscape:snap-midpoints="true"
     inkscape:window-width="1920"
     inkscape:window-height="1011"
     inkscape:window-x="0"
     inkscape:window-y="32"
     inkscape:window-maximized="1"
     inkscape:pagecheckerboard="true"
     fit-margin-top="0"
     fit-margin-left="0"
     fit-margin-right="0"
     fit-margin-bottom="0" />
  <metadata
     id="metadata5">
    <rdf:RDF>
      <cc:Work
         rdf:about="">
        <dc:format>image/svg+xml</dc:format>
        <dc:type
           rdf:resource="http://purl.org/dc/dcmitype/StillImage" />
      </cc:Work>
    </rdf:RDF>
  </metadata>
  <g
     inkscape:label="Ebene 1"
     inkscape:groupmode="layer"
     id="layer1"
     transform="translate(-469.66513,78.82859)">
    <path
       style="fill:#2a7fff;fill-opacity:1;stroke-width:0.0348485"
       d="m 517.73373,11.166974 c -0.006,-0.0046 -0.36982,-0.01814 -0.81066,-0.03023 -0.44082,-0.0121 -0.92699,-0.02902 -1.08029,-0.0377 -0.1533,-0.0088 -0.51405,-0.0251 -0.80153,-0.03653 -0.28755,-0.01118 -0.60899,-0.0263 -0.71439,-0.03308 -0.10553,-0.007 -0.35634,-0.02207 -0.55759,-0.03395 -0.20138,-0.01179 -0.41294,-0.02812 -0.47045,-0.03614 -0.0574,-0.0082 -0.28482,-0.02419 -0.5053,-0.03589 -0.22043,-0.01179 -0.4478,-0.02722 -0.50532,-0.03438 -0.0574,-0.0073 -0.21437,-0.02238 -0.34847,-0.03362 -0.45981,-0.03858 -0.94697,-0.08357 -1.15001,-0.106251 -0.0768,-0.0085 -0.35893,-0.03964 -0.62728,-0.06906 -0.62202,-0.06818 -1.78418,-0.214708 -2.05607,-0.259246 -0.11489,-0.01874 -0.37375,-0.05957 -0.57496,-0.0905 -1.81446,-0.27896 -3.95519,-0.744798 -5.73628,-1.2482898 -0.64071,-0.1811151 -0.89959,-0.2747271 -0.93987,-0.3398863 -0.0272,-0.045296 -0.0381,-0.046016 2.26373,0.160192 1.78361,0.1597991 3.32294,0.2914479 4.4821,0.3832718 0.12458,0.00998 0.75969,0.04904 1.41135,0.08702 1.01911,0.059416 1.767,0.097875 3.71138,0.1907608 0.20138,0.00967 0.71874,0.026912 1.15001,0.038312 0.43125,0.011488 0.83113,0.026912 0.88864,0.034592 0.15148,0.01996 3.3652,0.064976 4.65228,0.065224 1.18212,3.504e-4 3.57788,-0.037248 4.28638,-0.066976 2.80502,-0.1178008 3.82537,-0.1766704 5.4712,-0.3156151 7.15819,-0.6043206 12.58228,-1.8309369 16.37714,-3.7035611 1.00609,-0.4964703 1.69061,-0.9063085 2.64305,-1.5824339 0.35065,-0.2489351 0.64573,-0.4444343 0.6557,-0.4344655 0.0302,0.030392 -0.0566,0.3076151 -0.17688,0.565319 -0.15723,0.3361399 -0.41305,0.6853718 -0.79388,1.0837981 -0.91783,0.9602893 -2.17057,1.7627274 -4.03636,2.5854775 -2.07857,0.9165645 -4.45235,1.5338659 -8.20426,2.1335145 -1.22995,0.196566 -3.53244,0.49726 -4.65227,0.607553 -0.10552,0.01028 -0.41908,0.04142 -0.69698,0.06897 -0.27787,0.02751 -0.63076,0.06035 -0.78409,0.07287 -0.15329,0.0124 -0.32585,0.02782 -0.38333,0.03429 -0.0574,0.0063 -0.24582,0.02146 -0.4182,0.03338 -0.17265,0.0121 -0.36852,0.02812 -0.43561,0.03556 -0.0671,0.0075 -0.27092,0.02358 -0.45303,0.03604 -0.18203,0.0124 -0.38594,0.02751 -0.45304,0.03366 -0.0671,0.0061 -0.30236,0.02177 -0.52271,0.03474 -0.22043,0.013 -0.4635,0.02902 -0.54015,0.03544 -0.0765,0.0066 -0.33541,0.02207 -0.57501,0.03441 -0.23947,0.0124 -0.51401,0.02873 -0.60986,0.03622 -0.16509,0.013 -0.41584,0.02449 -1.5159,0.06997 -0.25882,0.01058 -0.65864,0.02751 -0.88864,0.0374 -0.42059,0.01814 -4.95711,0.04511 -4.9742,0.02963 z m -6.68265,-4.1507221 c -0.93466,-0.013 -3.77668,-0.081245 -4.12955,-0.099175 -0.17264,-0.00877 -0.52535,-0.024192 -0.78408,-0.034624 -1.8745,-0.074408 -5.19091,-0.2985224 -6.69093,-0.4521471 -0.0862,-0.00877 -0.25882,-0.025096 -0.38334,-0.036224 -0.12456,-0.011184 -0.26577,-0.026608 -0.31364,-0.034624 -0.0481,-0.00784 -0.18897,-0.023888 -0.31364,-0.035072 -0.2567,-0.02328 -0.40093,-0.04 -0.74925,-0.086688 -0.13425,-0.01784 -0.33018,-0.04224 -0.43559,-0.05388 -0.38088,-0.042152 -1.59843,-0.2283447 -2.17803,-0.3330863 -2.39826,-0.4333671 -3.94814,-0.9243013 -4.77039,-1.5110371 -0.58718,-0.4190263 -0.75333,-0.8366645 -0.56169,-1.4120555 0.30511,-0.9162619 1.3072,-1.7145421 2.99252,-2.38388574 1.90032,-0.7547466 4.40251,-1.3343816 6.957,-1.61159656 0.87724,-0.09521 2.5091,-0.07928 2.5091,0.02449 0,0.01784 -0.0318,0.03235 -0.0702,0.03235 -0.23826,0 -2.81264,0.50866196 -3.63994,0.71916396 -1.59832,0.4066745 -2.9802,1.0251244 -3.43623,1.53786534 -0.20893,0.2350266 -0.35975,0.5670543 -0.33641,0.7411306 0.068,0.5066337 0.84995,0.9430488 2.36221,1.318323 2.56302,0.6360086 6.10147,1.0785645 11.77664,1.4728971 2.01056,0.139692 8.00648,0.1113608 12.16215,-0.057512 2.40515,-0.097724 2.80959,-0.1150496 3.24091,-0.1386944 0.16297,-0.00907 0.46872,-0.024488 0.67953,-0.034864 4.97115,-0.2413455 9.83305,-0.7069333 12.94627,-1.239742 1.70521,-0.2918407 2.82752,-0.5527582 4.18183,-0.9722237 0.21377,-0.066248 0.69057,-0.2636603 0.98365,-0.4073825 0.60188,-0.2951363 0.99084,-0.5844462 1.21038,-0.9003307 0.21952,-0.31574544 0.19956,-0.76990344 -0.0562,-1.28068474 -0.10553,-0.210505 -0.0596,-0.215313 0.22707,-0.02389 0.27152,0.181358 0.56956,0.5107789 0.7023,0.7764319 0.22375,0.4477389 0.11671,0.79353004 -0.41158,1.32892394 -0.79452,0.8053251 -2.31488,1.6300832 -4.2973,2.3311565 -2.39909,0.8484518 -6.24936,1.6720579 -9.4576,2.0230858 -0.0958,0.010584 -0.30754,0.034288 -0.47048,0.052912 -0.16297,0.018744 -0.39029,0.042936 -0.50528,0.054064 -0.1149,0.011184 -0.26396,0.027512 -0.33106,0.036464 -0.12336,0.016328 -1.43414,0.1331304 -1.91667,0.170624 -1.64431,0.1277479 -1.87858,0.1435615 -3.36291,0.2270439 -0.88206,0.049616 -1.22115,0.066704 -1.75985,0.088653 -0.25882,0.010584 -0.57237,0.026 -0.69698,0.034408 -0.12456,0.00846 -0.59501,0.025096 -1.04544,0.03692 -0.45043,0.011792 -0.85275,0.026912 -0.89406,0.033256 -0.0414,0.00632 -0.56669,0.021472 -1.16742,0.033408 -0.60079,0.012096 -1.2256,0.029328 -1.38851,0.03828 -0.33396,0.018448 -5.4383,0.040456 -6.37732,0.027512 z m 6.5071,-7.69843934 c -0.003,-0.0036 -0.36139,-0.01663 -0.79352,-0.02933 -0.43214,-0.0127 -0.82419,-0.02903 -0.87123,-0.0364 -0.0472,-0.0076 -0.30506,-0.02358 -0.57337,-0.03598 -0.26851,-0.0124 -0.53495,-0.02842 -0.59245,-0.03571 -0.0574,-0.0073 -0.24552,-0.02238 -0.41817,-0.03374 -0.17265,-0.01119 -0.37638,-0.02721 -0.45303,-0.03525 -0.0768,-0.0082 -0.25701,-0.02419 -0.40078,-0.03577 -0.14363,-0.01149 -0.30841,-0.02751 -0.36589,-0.03562 -0.0574,-0.0082 -0.3241,-0.03904 -0.59245,-0.06891 -2.35253,-0.261906 -4.62044,-0.834176 -5.94739,-1.500696 -0.95598,-0.480176 -1.57809,-1.134057 -1.65909,-1.743817 -0.11036,-0.830724 0.43728,-1.543617 1.65326,-2.152216 0.56466,-0.282618 1.11605,-0.478432 1.57102,-0.557926 0.13757,-0.02419 0.15148,0.04381 0.0418,0.204972 -0.14786,0.217006 -0.2416,0.437211 -0.26276,0.617993 -0.0983,0.835771 1.21419,1.421072 3.4534,1.540107 1.67588,0.08911 2.67495,0.112962 4.75684,0.113597 1.76166,5.78e-4 2.47581,-0.01693 3.83332,-0.09301 2.96186,-0.166329 5.12514,-0.42637 6.68618,-0.803707 0.83975,-0.202976 0.82427,-0.205365 1.5555,0.239471 1.1593,0.705237 2.21252,1.258936 3.16252,1.662594 0.26365,0.111965 0.47915,0.212379 0.47908,0.223143 -3.9e-4,0.107067 -2.60863,0.896663 -4.66963,1.41364 -1.92608,0.483143 -4.07681,0.8710562 -5.61061,1.0119572 -0.14363,0.0133 -0.28483,0.02812 -0.31364,0.03326 -0.0302,0.0051 -0.21679,0.02026 -0.41817,0.03371 -0.20137,0.01361 -0.42863,0.02963 -0.50531,0.03562 -0.42666,0.03417 -2.71685,0.09074 -2.74521,0.06782 z m -0.9139,-8.81581496 c -0.0384,-0.0067 -0.6264,-0.02933 -1.30681,-0.05028 -4.03007,-0.124059 -6.73401,-0.395623 -9.21916,-0.9258826 -1.51683,-0.323658 -2.76953,-0.841316 -3.23178,-1.335495 -0.16206,-0.173163 -0.30862,-0.427677 -0.35391,-0.614204 -0.12336,-0.508907 0.14664,-1.250331 0.64805,-1.778135 0.61997,-0.652672 1.68356,-1.188586 2.8997,-1.461063 0.22737,-0.05094 0.4198,-0.08623 0.4276,-0.0784 0.009,0.0078 -0.0904,0.130198 -0.21831,0.271975 -0.90642,1.004845 -0.80099,1.672995 0.34871,2.209746 1.17142,0.546893 3.37848,0.79438 7.1309,0.799617 1.03813,0.0015 3.11491,-0.04018 3.27576,-0.06567 0.0481,-0.0076 0.34588,-0.02389 0.66212,-0.03592 2.5921,-0.09966 5.58567,-0.364655 8.69475,-0.769728 0.39631,-0.05164 1.21683,-0.177608 2.06925,-0.317707 1.06803,-0.175522 1.29311,-0.188433 1.49451,-0.08569 0.0747,0.03804 0.33826,0.231035 0.58592,0.428884 0.7977,0.637205 1.40083,0.990746 2.12465,1.245453 0.2059,0.07245 0.35627,0.142806 0.33432,0.156382 -0.1028,0.06353 -0.89402,0.324393 -1.55562,0.512889 -3.60351,1.026655 -6.57588,1.5614016 -10.16342,1.8284486 -0.67252,0.05007 -4.43209,0.102501 -4.64723,0.0648 z m 19.88112,-0.6699866 c 0,-0.01482 0.22344,-0.166421 0.49657,-0.337165 2.69036,-1.681993 3.99222,-2.670907 5.56707,-4.228856 1.30415,-1.290164 2.06889,-2.328831 2.56246,-3.480441 0.57549,-1.342636 0.63848,-2.492752 0.20531,-3.746218 -0.22768,-0.658918 -0.54513,-1.157844 -1.01893,-1.601837 -0.74469,-0.697832 -1.6825,-1.060414 -3.19495,-1.235276 -0.5783,-0.06686 -2.0659,0.0097 -2.55397,0.131195 -0.28784,0.07175 -0.22616,-0.02207 0.21499,-0.326814 0.62988,-0.435094 1.69994,-0.735898 2.96194,-0.832626 1.99862,-0.153177 4.01393,0.560944 5.44561,1.929622 0.90108,0.86145 1.41467,1.795612 1.6038,2.917212 0.0856,0.507477 0.0771,1.351205 -0.0182,1.821295 -0.26668,1.31415 -1.02544,2.592857 -2.31081,3.894463 -2.02789,2.053479 -5.2065,3.765618 -9.18073,4.94509 -0.56832,0.168658 -0.77995,0.209446 -0.77995,0.150365 z m -25.02128,-7.928691 c -0.009,-0.0088 -0.42516,-0.02661 -0.92348,-0.03979 -0.49836,-0.0133 -1.00016,-0.03024 -1.11517,-0.03782 -0.11491,-0.0075 -0.44433,-0.02298 -0.73181,-0.03405 -2.73857,-0.105736 -5.90337,-0.375646 -8.20683,-0.69991 -2.21925,-0.312407 -3.81345,-0.786076 -4.26295,-1.266606 -0.30541,-0.326516 -0.26517,-0.572609 0.16358,-0.998246 0.78388,-0.778539 2.79755,-1.681291 5.71995,-2.56429 1.8858,-0.5698 4.0792,-1.01818 6.02884,-1.232434 0.54843,-0.06026 1.1735,-0.06002 1.16056,4.54e-4 -0.003,0.01905 -0.41266,0.147764 -0.90793,0.285793 -2.35221,0.655529 -3.72696,1.133866 -4.88755,1.700585 -0.61927,0.302402 -0.97134,0.529577 -1.24906,0.805985 -0.5448,0.542208 -0.45121,0.935226 0.29269,1.229192 0.55381,0.21885 1.0641,0.325911 2.24577,0.471151 0.64442,0.07922 0.81112,0.09724 1.34168,0.145043 0.10552,0.0094 0.24642,0.02389 0.3136,0.0322 0.0671,0.0082 0.31016,0.0251 0.54015,0.03758 0.23009,0.0124 0.44172,0.02691 0.47047,0.03214 0.0302,0.0051 0.31887,0.02086 0.6447,0.03483 0.32583,0.01391 0.61639,0.02994 0.64569,0.03519 0.50477,0.09313 8.45501,0.09192 9.21645,-0.0014 0.0574,-0.007 0.3084,-0.02268 0.55759,-0.03486 0.24914,-0.0121 0.50007,-0.02782 0.55755,-0.03483 0.0574,-0.007 0.29269,-0.02268 0.52273,-0.03456 0.23009,-0.0121 0.45741,-0.02722 0.5053,-0.03395 0.0481,-0.0066 0.27515,-0.02238 0.50531,-0.03486 0.2301,-0.0124 0.45739,-0.02812 0.50531,-0.03486 0.0481,-0.0066 0.24401,-0.02207 0.43561,-0.03435 0.19171,-0.0121 0.41122,-0.02842 0.48787,-0.03604 0.0768,-0.0075 0.28059,-0.02328 0.45303,-0.03498 0.17265,-0.01149 0.37638,-0.02751 0.45303,-0.03507 0.0765,-0.0075 0.24914,-0.02298 0.38337,-0.03368 0.13425,-0.01089 0.34584,-0.02782 0.47044,-0.03804 0.21801,-0.01754 0.75437,-0.06836 1.08029,-0.102168 0.0862,-0.0091 0.56456,-0.05573 1.06289,-0.103983 2.13033,-0.206272 4.9349,-0.549224 7.00457,-0.856518 0.95144,-0.141264 2.9094,-0.446602 3.00567,-0.468726 0.0602,-0.01391 0.0783,-0.0026 0.0783,0.04808 0,0.06939 0.0384,0.0443 -1.9341,1.262063 -1.42561,0.880111 -1.19992,0.788958 -2.36971,0.957111 -0.19169,0.02751 -0.56018,0.08167 -0.81895,0.12022 -0.25882,0.03858 -0.51749,0.07716 -0.575,0.08572 -0.0574,0.0085 -0.74747,0.102048 -1.53331,0.207753 -3.77782,0.508136 -7.41726,0.895923 -10.33261,1.10094 -0.27788,0.01966 -0.60724,0.04287 -0.73182,0.05189 -0.12457,0.0091 -0.69698,0.04012 -1.27198,0.06915 -0.575,0.02902 -1.1709,0.06081 -1.32423,0.0706 -0.38164,0.02419 -3.65484,0.06198 -3.67655,0.0423 z m 10.76819,-4.470789 c 0,-0.01118 0.16993,-0.258036 0.37769,-0.548867 0.82125,-1.149832 1.32368,-1.991208 1.62792,-2.726227 0.41698,-1.007328 0.37962,-2.076144 -0.10885,-3.112387 -0.32235,-0.683936 -0.59166,-1.110993 -1.58798,-2.518223 -1.53559,-2.168848 -1.6409,-2.329993 -2.0388,-3.119988 -0.62746,-1.245657 -0.98314,-2.566759 -1.04458,-3.880011 -0.088,-1.881646 0.59802,-3.847806 1.95209,-5.594465 2.24522,-2.896147 6.55731,-5.583462 12.27021,-7.646895 0.93291,-0.336959 2.9439,-0.976853 3.06992,-0.976853 0.11309,0 0.0348,0.113144 -0.16267,0.235117 -0.65153,0.402466 -2.83057,1.801787 -3.42105,2.19692 -4.67562,3.128778 -7.56808,5.809125 -8.66411,8.028707 -0.80971,1.639665 -0.75108,2.838543 0.22495,4.602788 0.23857,0.43116 0.54677,0.924169 1.17084,1.872878 0.86216,1.310655 1.23739,1.944734 1.59826,2.700762 0.37844,0.792846 0.65338,1.587196 0.78757,2.275576 0.0874,0.448371 0.0783,1.208524 -0.0212,1.678226 -0.33614,1.603207 -1.59618,3.291655 -3.74866,5.023184 -1.01531,0.816721 -2.2826,1.65495 -2.2826,1.509767 z m -4.07836,-3.739028 c -2.3294,-2.339626 -4.84799,-5.206407 -6.43331,-7.322725 -1.32637,-1.770629 -2.18454,-3.175264 -2.67652,-4.380893 -0.61515,-1.507536 -0.52903,-2.824901 0.2933,-4.488066 0.67808,-1.371179 1.66562,-2.630418 3.41948,-4.360223 1.54922,-1.527948 3.33987,-3.077963 7.29725,-6.316641 2.30035,-1.882547 2.63818,-2.172489 3.29391,-2.826953 2.11195,-2.107799 3.50336,-4.557071 4.09025,-7.199939 0.38382,-1.728482 0.42125,-3.289049 0.12215,-5.096142 -0.039,-0.236569 -0.0623,-0.453305 -0.0514,-0.481613 0.0433,-0.112931 0.17416,-0.02812 0.35827,0.232216 0.36139,0.510805 0.53025,0.899813 0.72177,1.662837 0.22677,0.903809 0.39292,1.870593 0.4738,2.758445 0.0496,0.54467 0.0493,1.809396 -6e-4,2.356764 -0.22526,2.46703 -1.09247,4.67293 -2.65728,6.760621 -0.57634,0.768906 -1.13946,1.357733 -2.84839,2.978356 -5.99912,5.689271 -7.84834,7.633161 -9.21711,9.689096 -0.78864,1.184573 -1.34802,2.443218 -1.50132,3.378136 -0.0756,0.46056 -0.0511,1.313752 0.052,1.823221 0.33252,1.642632 1.03517,3.394627 2.25914,5.632883 0.79182,1.447986 2.34231,3.903958 3.14841,4.987007 0.36807,0.494554 0.48874,0.672416 0.58523,0.862502 0.0414,0.08146 0.071,0.146223 0.0656,0.143925 -0.006,-0.0023 -0.36275,-0.359065 -0.79461,-0.792805 z"
       id="path931" />
  </g>
</svg>
