<?xml version="1.0" encoding="UTF-8" standalone="no"?>
<svg
   xmlns:dc="http://purl.org/dc/elements/1.1/"
   xmlns:cc="http://creativecommons.org/ns#"
   xmlns:rdf="http://www.w3.org/1999/02/22-rdf-syntax-ns#"
   xmlns:svg="http://www.w3.org/2000/svg"
   xmlns="http://www.w3.org/2000/svg"
   xmlns:sodipodi="http://sodipodi.sourceforge.net/DTD/sodipodi-0.dtd"
   xmlns:inkscape="http://www.inkscape.org/namespaces/inkscape"
   width="186.03322"
   height="113.38571"
   viewBox="0 0 49.221281 29.999969"
   version="1.1"
   id="svg845"
   inkscape:version="1.0.2 (e86c870879, 2021-01-15, custom)"
   sodipodi:docname="jfx.svg">
  <defs
     id="defs839" />
  <sodipodi:namedview
     id="base"
     pagecolor="#ffffff"
     bordercolor="#666666"
     borderopacity="1.0"
     inkscape:pageopacity="0.0"
     inkscape:pageshadow="2"
     inkscape:zoom="3.959798"
     inkscape:cx="44.913942"
     inkscape:cy="52.42983"
     inkscape:document-units="cm"
     inkscape:current-layer="text1426"
     inkscape:document-rotation="0"
     showgrid="false"
     units="px"
     inkscape:pagecheckerboard="true"
     fit-margin-top="0"
     fit-margin-left="0"
     fit-margin-right="0"
     fit-margin-bottom="0"
     inkscape:window-width="1920"
     inkscape:window-height="991"
     inkscape:window-x="-9"
     inkscape:window-y="-9"
     inkscape:window-maximized="1" />
  <metadata
     id="metadata842">
    <rdf:RDF>
      <cc:Work
         rdf:about="">
        <dc:format>image/svg+xml</dc:format>
        <dc:type
           rdf:resource="http://purl.org/dc/dcmitype/StillImage" />
        <dc:title></dc:title>
      </cc:Work>
    </rdf:RDF>
  </metadata>
  <g
     inkscape:label="Layer 1"
     inkscape:groupmode="layer"
     id="layer1"
     transform="translate(-78.044205,-119.84258)">
    <g
       aria-label="TM"
       id="text1426"
       style="font-style:normal;font-variant:normal;font-weight:bold;font-stretch:normal;font-size:2.13532px;line-height:1.25;font-family:sans-serif;-inkscape-font-specification:'sans-serif Bold';fill:#fefefe;fill-opacity:1;stroke:none;stroke-width:0.053383">
      <path
         id="path835"
         style="font-style:normal;font-variant:normal;font-weight:bold;font-stretch:normal;font-family:sans-serif;-inkscape-font-specification:'sans-serif Bold';fill:#ff2a2a;fill-opacity:1;stroke-width:0.0827375"
         d="m 127.26549,141.49204 h -0.61729 v -1.6111 l -0.44601,1.04551 h -0.42824 l -0.44603,-1.04551 v 1.6111 h -0.58496 v -2.40617 h 0.72073 l 0.54135,1.20714 0.53973,-1.20714 h 0.72072 z m -2.89581,-1.94075 h -0.75143 v 1.94075 h -0.62056 v -1.94075 h -0.7514 v -0.46542 h 2.12339 z m -38.181318,10.18284 c -1.523262,-0.10238 -3.491818,-0.4438 -3.840868,-0.66612 -0.141806,-0.0902 -0.04694,-0.10992 0.324716,-0.0668 0.288682,0.0333 1.632093,0.13339 2.985329,0.22198 5.725823,0.3754 12.921326,-0.64558 14.305513,-2.02977 0.375678,-0.37567 0.286418,0.0947 -0.106629,0.56185 -1.291024,1.53431 -7.312611,2.40612 -13.668092,1.97887 z m -1.941466,-1.44414 c -2.347212,-0.17953 -5.253527,-0.61092 -5.711626,-0.84782 -0.222085,-0.11469 -0.437752,-0.2973 -0.47924,-0.40545 -0.09593,-0.24988 0.404938,-0.79145 1.026907,-1.11047 1.092422,-0.56027 3.380692,-0.985 3.578906,-0.66427 0.03888,0.0628 -0.179058,0.1434 -0.484341,0.17859 -0.781144,0.0902 -2.117843,0.64785 -2.167159,0.90398 -0.05641,0.29308 0.728695,0.58795 2.304496,0.86549 1.852191,0.32621 9.28605,0.32581 11.91627,-6.5e-4 3.012016,-0.37384 4.341603,-0.84274 4.218327,-1.48767 -0.05843,-0.30606 -0.04991,-0.31073 0.183762,-0.0993 0.375134,0.33949 0.295502,0.66949 -0.246945,1.02341 -0.933913,0.60927 -3.319173,1.21775 -5.937877,1.51472 -1.762018,0.19983 -6.336864,0.27201 -8.201472,0.12945 z m 18.876524,-0.47992 c 0.0369,-0.12929 0.51782,-2.37754 1.06888,-4.99629 0.55105,-2.61874 1.08446,-4.95887 1.18532,-5.20028 0.27633,-0.66137 0.8419,-1.26714 1.43432,-1.53621 0.47398,-0.2153 0.92506,-0.2412 4.24623,-0.24378 3.47777,-0.003 3.71164,0.0131 3.64895,0.22676 -0.0369,0.12634 -0.137,0.59871 -0.22276,1.04979 l -0.1557,0.82014 h -3.18338 c -3.8347,0 -3.63103,-0.083 -4.00584,1.63364 -0.14103,0.64592 -0.25639,1.25118 -0.25639,1.34506 0,0.13371 0.50788,0.17076 2.34562,0.17076 h 2.34565 l 0.67251,0.97281 c 0.36988,0.53507 0.6725,1.00746 0.6725,1.04981 0,0.0425 -1.47627,0.077 -3.28059,0.077 -1.80433,0 -3.28266,0.0148 -3.28518,0.0328 -0.003,0.0185 -0.22788,1.09573 -0.50079,2.39483 l -0.49618,2.36202 -1.15003,0.0381 c -1.05217,0.0351 -1.14434,0.0185 -1.08307,-0.19682 z m 8.19393,-1.31751 c 0.79517,-0.84805 1.63401,-1.71904 1.86409,-1.93555 0.23007,-0.21654 0.58838,-0.60683 0.79626,-0.86737 l 0.37793,-0.47369 -1.36603,-1.98588 c -0.75133,-1.09226 -1.40276,-2.04536 -1.44766,-2.118 -0.0525,-0.085 0.36037,-0.13207 1.16003,-0.13207 h 1.24164 l 0.94741,1.39183 0.94743,1.39184 1.32891,-1.40095 1.32891,-1.40095 1.40696,0.042 1.40692,0.042 -2.09584,2.19445 c -1.15275,1.20697 -2.09587,2.22963 -2.09587,2.27256 0,0.043 0.63479,1.00043 1.41065,2.12766 0.77585,1.12725 1.45788,2.1271 1.5156,2.22187 0.0837,0.13749 -0.14537,0.17225 -1.13398,0.17225 h -1.23891 l -1.03122,-1.51168 -1.03124,-1.51168 -1.42233,1.51168 -1.42235,1.51168 h -1.44654 -1.44655 z m -24.460679,-1.0893 c -2.078599,-0.27121 -3.378582,-0.95068 -3.118014,-1.62967 0.08199,-0.21355 0.957598,-0.72567 1.240808,-0.72567 0.114078,0 0.115013,0.0451 0.0031,0.17951 -0.224004,0.26992 0.09096,0.46477 0.988751,0.61181 1.08808,0.17821 3.989065,0.14487 5.22992,-0.0599 l 1.049785,-0.17337 0.835125,0.41917 0.835109,0.41918 -0.572668,0.21602 c -1.965813,0.74148 -4.383265,1.01814 -6.492427,0.74293 z m -1.231927,-3.35258 c -1.87854,-0.3451 -2.755698,-0.73705 -2.755698,-1.23142 0,-0.23086 0.687733,-0.9207 0.91789,-0.9207 0.06076,0 0.210707,-0.0384 0.333273,-0.0855 0.195146,-0.0748 0.203034,-0.0486 0.06356,0.21216 -0.240433,0.44923 0.0592,0.65396 1.191198,0.8138 1.235738,0.1745 5.501258,0.0509 6.796624,-0.19704 0.947132,-0.18118 0.980239,-0.17857 1.414982,0.11649 0.244835,0.16614 0.517027,0.32782 0.604859,0.35924 0.323276,0.11567 -0.04868,0.2513 -1.566858,0.57154 -1.275292,0.26896 -2.012978,0.33618 -4.112888,0.37472 -1.407374,0.0258 -2.706489,0.0198 -2.886908,-0.0131 z m 9.84178,-0.23628 c 0,-0.0404 0.221432,-0.18645 0.492088,-0.32466 0.926599,-0.4732 2.083358,-1.42328 2.501562,-2.05466 0.753355,-1.13736 0.517135,-2.29276 -0.577023,-2.82245 -0.524868,-0.25408 -0.688148,-0.27646 -1.185787,-0.16259 -0.479037,0.1096 -0.552177,0.10189 -0.430481,-0.0448 0.380218,-0.45815 1.750567,-0.56301 2.545845,-0.1948 1.271612,0.58873 1.705892,1.7464 1.113886,2.9693 -0.375025,0.77473 -1.460223,1.64204 -2.688568,2.14886 -0.941992,0.38861 -1.771522,0.61602 -1.771522,0.4856 z m -11.350858,-2.91229 c -2.475229,-0.25035 -3.608646,-0.55912 -3.608646,-0.98313 0,-0.32668 0.368935,-0.54471 1.72183,-1.01753 1.068677,-0.37351 3.200778,-0.78477 3.341076,-0.64449 0.03551,0.0354 -0.424794,0.21859 -1.022895,0.40683 -1.190095,0.37454 -1.997246,0.80588 -1.875781,1.00242 0.447204,0.72361 7.141768,0.61151 12.401602,-0.20763 0.441159,-0.0686 0.431782,-0.0559 -0.237878,0.32432 -0.719456,0.40849 -1.879469,0.69227 -3.830063,0.93698 -1.167187,0.14635 -5.983692,0.27382 -6.889245,0.18231 z m 6.59923,-2.31694 c 0.558719,-0.92973 0.475862,-1.5616 -0.345994,-2.63849 -1.37438,-1.80086 -1.520472,-3.12585 -0.51041,-4.62869 0.509199,-0.75761 1.377927,-1.43698 2.760425,-2.15876 0.981464,-0.51238 2.839983,-1.22173 2.939702,-1.12202 0.02635,0.0264 -0.365326,0.29324 -0.870262,0.5932 -1.257393,0.747 -2.817274,2.00759 -3.287497,2.6567 -0.465879,0.64314 -0.607011,1.2704 -0.411834,1.83031 0.0789,0.22607 0.44784,0.85796 0.820043,1.40412 1.098839,1.61244 0.986519,2.61865 -0.43499,3.8967 -0.777842,0.69934 -1.015269,0.75949 -0.659183,0.16688 z m -3.213377,-1.97763 c -1.701498,-1.7564 -2.270447,-2.72281 -2.270447,-3.85651 0,-1.2819 0.541344,-1.98458 3.186938,-4.13662 2.178337,-1.77198 2.959123,-2.5912 3.472599,-3.64372 0.302353,-0.61971 0.352741,-0.89176 0.356521,-1.92491 l 0.0046,-1.2032 0.233614,0.36898 c 0.128501,0.20294 0.301359,0.69197 0.384171,1.08674 0.125383,0.5975 0.113307,0.86876 -0.07176,1.61885 -0.394802,1.59983 -1.282902,2.73308 -4.183655,5.33848 -1.360629,1.22208 -1.826866,2.02841 -1.826866,3.15937 0,0.90892 0.259296,1.50467 1.37805,3.16616 0.782351,1.1619 0.973003,1.51193 0.823531,1.51193 -0.02635,0 -0.695557,-0.66853 -1.487067,-1.48555 z" />
    </g>
  </g>
</svg>
