<?xml version="1.0" encoding="UTF-8" standalone="no"?>
<svg
   xmlns:dc="http://purl.org/dc/elements/1.1/"
   xmlns:cc="http://creativecommons.org/ns#"
   xmlns:rdf="http://www.w3.org/1999/02/22-rdf-syntax-ns#"
   xmlns:svg="http://www.w3.org/2000/svg"
   xmlns="http://www.w3.org/2000/svg"
   xmlns:sodipodi="http://sodipodi.sourceforge.net/DTD/sodipodi-0.dtd"
   xmlns:inkscape="http://www.inkscape.org/namespaces/inkscape"
   width="113.38583"
   height="113.38583"
   viewBox="0 0 29.999997 30.000001"
   version="1.1"
   id="svg845"
   inkscape:version="1.0.2 (e86c870879, 2021-01-15, custom)"
   sodipodi:docname="jfx.svg">
  <defs
     id="defs839" />
  <sodipodi:namedview
     id="base"
     pagecolor="#ffffff"
     bordercolor="#666666"
     borderopacity="1.0"
     inkscape:pageopacity="0.0"
     inkscape:pageshadow="2"
     inkscape:zoom="3.959798"
     inkscape:cx="44.913944"
     inkscape:cy="52.42983"
     inkscape:document-units="cm"
     inkscape:current-layer="text1426"
     inkscape:document-rotation="0"
     showgrid="false"
     units="px"
     inkscape:pagecheckerboard="true"
     fit-margin-top="0"
     fit-margin-left="0"
     fit-margin-right="0"
     fit-margin-bottom="0"
     inkscape:window-width="1920"
     inkscape:window-height="991"
     inkscape:window-x="-9"
     inkscape:window-y="-9"
     inkscape:window-maximized="1" />
  <metadata
     id="metadata842">
    <rdf:RDF>
      <cc:Work
         rdf:about="">
        <dc:format>image/svg+xml</dc:format>
        <dc:type
           rdf:resource="http://purl.org/dc/dcmitype/StillImage" />
        <dc:title></dc:title>
      </cc:Work>
    </rdf:RDF>
  </metadata>
  <g
     inkscape:label="Layer 1"
     inkscape:groupmode="layer"
     id="layer1"
     transform="translate(-78.044205,-119.84258)">
    <g
       aria-label="TM"
       id="text1426"
       style="font-style:normal;font-variant:normal;font-weight:bold;font-stretch:normal;font-size:2.13532px;line-height:1.25;font-family:sans-serif;-inkscape-font-specification:'sans-serif Bold';fill:#fefefe;fill-opacity:1;stroke:none;stroke-width:0.053383">
      <path
         id="path835"
         style="font-style:normal;font-variant:normal;font-weight:bold;font-stretch:normal;font-family:sans-serif;-inkscape-font-specification:'sans-serif Bold';fill:#2a7fff;fill-opacity:1;stroke-width:0.0504279"
         d="m 107.97739,136.04776 h -0.37623 v -0.98195 l -0.27184,0.63723 h -0.26101 l -0.27185,-0.63723 v 0.98195 h -0.35653 v -1.46654 h 0.43928 l 0.32995,0.73574 0.32896,-0.73574 h 0.43927 z m -1.76497,-1.18287 h -0.45799 v 1.18287 h -0.37823 v -1.18287 h -0.45797 v -0.28367 h 1.29419 z m -23.271228,6.20636 c -0.928417,-0.0624 -2.128237,-0.27049 -2.34098,-0.40599 -0.08643,-0.055 -0.02861,-0.067 0.197912,-0.0407 0.175949,0.0203 0.994748,0.0813 1.819535,0.1353 3.489846,0.2288 7.87545,-0.39348 8.719102,-1.23713 0.228973,-0.22897 0.174571,0.0577 -0.06499,0.34244 -0.786869,0.93515 -4.456981,1.46651 -8.330598,1.20611 z m -1.183309,-0.88019 c -1.430608,-0.10942 -3.201985,-0.37235 -3.481193,-0.51674 -0.135359,-0.0699 -0.266806,-0.1812 -0.292093,-0.24712 -0.05847,-0.1523 0.246807,-0.48238 0.625892,-0.67682 0.665823,-0.34148 2.060506,-0.60035 2.181316,-0.40487 0.0237,0.0383 -0.109134,0.0874 -0.295202,0.10885 -0.476101,0.055 -1.290809,0.39486 -1.320867,0.55097 -0.03438,0.17863 0.444134,0.35835 1.404573,0.52751 1.128896,0.19882 5.659777,0.19858 7.262876,-4e-4 1.835801,-0.22785 2.646174,-0.51364 2.571038,-0.90672 -0.03561,-0.18654 -0.03042,-0.18939 0.112002,-0.0605 0.228641,0.20692 0.180106,0.40805 -0.150511,0.62376 -0.569213,0.37135 -2.023011,0.74221 -3.619091,0.92321 -1.073937,0.1218 -3.862271,0.16579 -4.998735,0.0789 z m 11.505103,-0.29251 c 0.02248,-0.0788 0.315605,-1.44909 0.651473,-3.0452 0.335858,-1.5961 0.660967,-3.02239 0.722444,-3.16953 0.168421,-0.4031 0.513131,-0.77231 0.874203,-0.93631 0.288891,-0.13122 0.56382,-0.14701 2.58805,-0.14858 2.119674,-0.002 2.262214,0.008 2.224004,0.13821 -0.0225,0.077 -0.0835,0.36491 -0.13577,0.63984 l -0.0949,0.49987 h -1.940244 c -2.337219,0 -2.213083,-0.0506 -2.441526,0.99569 -0.08596,0.39368 -0.156273,0.76258 -0.156273,0.8198 0,0.0815 0.30955,0.10408 1.429643,0.10408 h 1.429653 l 0.409891,0.59292 c 0.22544,0.32612 0.409881,0.61404 0.409881,0.63985 0,0.0259 -0.899775,0.0469 -1.99949,0.0469 -1.099727,0 -2.000757,0.009 -2.002297,0.02 -0.0019,0.0113 -0.138891,0.66784 -0.305224,1.45963 l -0.302418,1.43963 -0.700935,0.0232 c -0.641291,0.0214 -0.697468,0.0113 -0.660127,-0.11996 z m 4.994134,-0.80301 c 0.48465,-0.51688 0.995919,-1.04774 1.136152,-1.1797 0.140223,-0.13198 0.358615,-0.36986 0.485312,-0.52866 l 0.230346,-0.28871 -0.832586,-1.21038 c -0.457926,-0.66572 -0.854969,-1.24663 -0.882336,-1.2909 -0.03202,-0.0518 0.21964,-0.0805 0.707029,-0.0805 h 0.756773 l 0.57744,0.84831 0.57745,0.84832 0.80996,-0.85387 0.80996,-0.85387 0.85753,0.0256 0.85751,0.0256 -1.2774,1.3375 c -0.70259,0.73564 -1.27742,1.35894 -1.27742,1.38511 0,0.0262 0.3869,0.60975 0.85978,1.29679 0.47288,0.68705 0.88857,1.29645 0.92375,1.35421 0.051,0.0838 -0.0886,0.10499 -0.69115,0.10499 h -0.75511 l -0.62852,-0.92136 -0.62853,-0.92136 -0.8669,0.92136 -0.866912,0.92136 h -0.881655 -0.881665 z m -14.908599,-0.66392 c -1.26689,-0.1653 -2.05922,-0.57943 -1.900406,-0.99327 0.04997,-0.13016 0.583649,-0.44229 0.756263,-0.44229 0.06953,0 0.0701,0.0275 0.0019,0.10941 -0.136529,0.16451 0.05544,0.28327 0.602636,0.37289 0.663177,0.10862 2.431305,0.0883 3.187597,-0.0365 l 0.639836,-0.10567 0.509002,0.25548 0.508993,0.25549 -0.349037,0.13166 c -1.198148,0.45193 -2.671567,0.62055 -3.957085,0.45281 z m -0.75085,-2.04337 c -1.144956,-0.21034 -1.679577,-0.44923 -1.679577,-0.75054 0,-0.14071 0.419168,-0.56116 0.559447,-0.56116 0.03703,0 0.128424,-0.0234 0.203127,-0.0521 0.11894,-0.0456 0.123748,-0.0296 0.03874,0.12931 -0.146542,0.2738 0.03608,0.39858 0.726026,0.496 0.753173,0.10636 3.352975,0.031 4.142491,-0.12009 0.57727,-0.11043 0.597448,-0.10884 0.862421,0.071 0.149225,0.10126 0.315124,0.1998 0.368657,0.21895 0.197034,0.0705 -0.02967,0.15317 -0.954988,0.34835 -0.777281,0.16393 -1.226895,0.2049 -2.506774,0.22839 -0.857784,0.0157 -1.649585,0.0121 -1.759549,-0.008 z m 5.99849,-0.14401 c 0,-0.0246 0.134961,-0.11364 0.299924,-0.19788 0.564755,-0.28841 1.269791,-0.86748 1.524683,-1.2523 0.459164,-0.69321 0.31519,-1.39742 -0.351691,-1.72026 -0.319903,-0.15486 -0.419421,-0.1685 -0.722728,-0.0991 -0.29197,0.0668 -0.336548,0.0621 -0.262375,-0.0273 0.23174,-0.27924 1.066957,-0.34315 1.551673,-0.11873 0.775043,0.35883 1.039731,1.06442 0.678905,1.80977 -0.228575,0.47219 -0.889995,1.00081 -1.638662,1.30971 -0.574137,0.23686 -1.079729,0.37546 -1.079729,0.29597 z m -6.918262,-1.77502 c -1.508633,-0.15259 -2.199442,-0.34078 -2.199442,-0.59921 0,-0.19911 0.224863,-0.332 1.049442,-0.62018 0.651351,-0.22765 1.95085,-0.47831 2.036361,-0.39281 0.02164,0.0216 -0.258909,0.13323 -0.623447,0.24796 -0.725354,0.22828 -1.217306,0.49118 -1.143274,0.61097 0.272567,0.44103 4.352853,0.37271 7.558682,-0.12655 0.268883,-0.0418 0.263168,-0.0341 -0.144985,0.19767 -0.438503,0.24897 -1.145522,0.42193 -2.334394,0.57108 -0.711392,0.0892 -3.647015,0.16689 -4.198943,0.11112 z m 4.022181,-1.41216 c 0.340535,-0.56666 0.290034,-0.95178 -0.210881,-1.60814 -0.837674,-1.09761 -0.926716,-1.90518 -0.311091,-2.82115 0.310353,-0.46176 0.839836,-0.87583 1.682458,-1.31575 0.598195,-0.31229 1.730948,-0.74463 1.791726,-0.68386 0.01606,0.0161 -0.222663,0.17873 -0.530418,0.36155 -0.766371,0.45529 -1.717107,1.22361 -2.003704,1.61924 -0.28395,0.39199 -0.369969,0.7743 -0.25101,1.11556 0.04809,0.13779 0.272955,0.52292 0.49981,0.8558 0.669734,0.98277 0.601276,1.59605 -0.265123,2.37501 -0.474089,0.42624 -0.618799,0.4629 -0.401767,0.10171 z m -1.958529,-1.20535 c -1.03705,-1.07051 -1.38382,-1.65953 -1.38382,-2.35051 0,-0.78131 0.329945,-1.20959 1.942414,-2.52124 1.32768,-1.08001 1.803563,-1.57932 2.116523,-2.22082 0.184282,-0.37771 0.214993,-0.54352 0.217297,-1.17322 l 0.0028,-0.73334 0.142386,0.22489 c 0.07832,0.12369 0.183676,0.42175 0.234149,0.66236 0.07642,0.36417 0.06906,0.5295 -0.04374,0.98668 -0.240629,0.97508 -0.781919,1.66579 -2.549906,3.25376 -0.829293,0.74485 -1.113461,1.2363 -1.113461,1.92561 0,0.55398 0.158039,0.91709 0.839911,1.92975 0.476837,0.70817 0.593038,0.92151 0.501936,0.92151 -0.01606,0 -0.423937,-0.40746 -0.906356,-0.90543 z" />
    </g>
  </g>
</svg>
