<?xml version="1.0" encoding="UTF-8" standalone="no"?>
<svg
   width="3779.5273"
   height="3779.5273"
   viewBox="0 0 999.99978 999.99991"
   version="1.1"
   id="svg845"
   inkscape:version="1.1.1 (3bf5ae0d25, 2021-09-20)"
   sodipodi:docname="jfx.svg"
   xmlns:inkscape="http://www.inkscape.org/namespaces/inkscape"
   xmlns:sodipodi="http://sodipodi.sourceforge.net/DTD/sodipodi-0.dtd"
   xmlns="http://www.w3.org/2000/svg"
   xmlns:svg="http://www.w3.org/2000/svg"
   xmlns:rdf="http://www.w3.org/1999/02/22-rdf-syntax-ns#"
   xmlns:cc="http://creativecommons.org/ns#"
   xmlns:dc="http://purl.org/dc/elements/1.1/">
  <defs
     id="defs839" />
  <sodipodi:namedview
     id="base"
     pagecolor="#ffffff"
     bordercolor="#666666"
     borderopacity="1.0"
     inkscape:pageopacity="0.0"
     inkscape:pageshadow="2"
     inkscape:zoom="0.175"
     inkscape:cx="2368.5714"
     inkscape:cy="1845.7143"
     inkscape:document-units="cm"
     inkscape:current-layer="text1426"
     inkscape:document-rotation="0"
     showgrid="false"
     units="px"
     inkscape:pagecheckerboard="true"
     fit-margin-top="0"
     fit-margin-left="0"
     fit-margin-right="0"
     fit-margin-bottom="0"
     inkscape:window-width="1920"
     inkscape:window-height="1011"
     inkscape:window-x="0"
     inkscape:window-y="32"
     inkscape:window-maximized="1" />
  <metadata
     id="metadata842">
    <rdf:RDF>
      <cc:Work
         rdf:about="">
        <dc:format>image/svg+xml</dc:format>
        <dc:type
           rdf:resource="http://purl.org/dc/dcmitype/StillImage" />
      </cc:Work>
    </rdf:RDF>
  </metadata>
  <g
     inkscape:label="Layer 1"
     inkscape:groupmode="layer"
     id="layer1"
     transform="translate(-78.044205,-119.84258)">
    <g
       aria-label="TM"
       id="text1426"
       style="font-style:normal;font-variant:normal;font-weight:bold;font-stretch:normal;font-size:2.13532px;line-height:1.25;font-family:sans-serif;-inkscape-font-specification:'sans-serif Bold';fill:#fefefe;fill-opacity:1;stroke:none;stroke-width:0.053383">
      <path
         id="path835"
         style="font-style:normal;font-variant:normal;font-weight:bold;font-stretch:normal;font-family:sans-serif;-inkscape-font-specification:'sans-serif Bold';fill:#2a7fff;fill-opacity:1;stroke-width:1.34474"
         d="m 978.04412,699.71393 h -10.0328 v -26.18532 l -7.24904,16.99279 h -6.96024 l -7.24936,-16.99279 v 26.18532 h -9.50744 v -39.10772 h 11.71408 l 8.79872,19.61973 8.77224,-19.61973 h 11.71384 z m -47.06584,-31.54318 h -12.21304 v 31.54318 h -10.08616 v -31.54318 h -12.21253 v -7.56454 h 34.51173 z M 310.41222,833.67364 c -24.75778,-1.664 -56.75297,-7.21308 -62.42612,-10.8264 -2.3048,-1.46667 -0.76293,-1.78667 5.27765,-1.08534 4.69198,0.54134 26.52661,2.168 48.52093,3.608 93.06253,6.10134 210.01194,-10.49279 232.50932,-32.99012 6.10595,-6.10586 4.65523,1.53866 -1.73306,9.13173 -20.98317,24.93733 -118.8528,39.10692 -222.14923,32.16293 z m -31.5549,-23.47173 c -38.14954,-2.91787 -85.38624,-9.92934 -92.83179,-13.77973 -3.60957,-1.864 -7.11482,-4.832 -7.78914,-6.58987 -1.5592,-4.06133 6.58152,-12.86347 16.69045,-18.04853 17.75527,-9.10613 54.94681,-16.00933 58.16841,-10.79653 0.632,1.02134 -2.91024,2.33067 -7.87205,2.90267 -12.69602,1.46667 -34.42157,10.5296 -35.22311,14.69252 -0.9168,4.76348 11.84357,9.556 37.45527,14.06694 30.10388,5.30186 150.92735,5.29546 193.67664,-0.0106 48.95468,-6.07599 70.56462,-13.69706 68.56099,-24.17919 -0.9496,-4.9744 -0.8112,-5.0504 2.98672,-1.61333 6.0971,5.51786 4.80283,10.88133 -4.01362,16.63359 -15.17901,9.90267 -53.94694,19.79227 -96.50907,24.61893 -28.63831,3.248 -102.99387,4.42106 -133.29956,2.104 z m 306.80267,-7.80027 c 0.59947,-2.10133 8.41613,-38.64239 17.37261,-81.20531 8.95621,-42.56265 17.62578,-80.59705 19.26516,-84.52078 4.49124,-10.74933 13.6835,-20.59492 23.31208,-24.96826 7.70376,-3.4992 15.0352,-3.92026 69.01465,-3.96213 56.52475,-0.0534 60.32583,0.21333 59.30689,3.68559 -0.6,2.05334 -2.22666,9.73094 -3.62054,17.0624 l -2.53066,13.32987 h -51.73996 c -62.32582,0 -59.01553,-1.34934 -65.10734,26.55172 -2.29227,10.49814 -4.16728,20.33546 -4.16728,21.86133 0,2.17333 8.25467,2.77547 38.1238,2.77547 h 38.12408 l 10.93042,15.81119 c 6.01173,8.69654 10.93015,16.3744 10.93015,17.06267 0,0.69066 -23.99399,1.25066 -53.31972,1.25066 -29.32604,0 -53.3535,0.24 -53.39457,0.53334 -0.0506,0.30132 -3.70376,17.80906 -8.1393,38.92345 l -8.06448,38.39012 -18.69159,0.61867 c -17.10109,0.57067 -18.59915,0.30133 -17.60339,-3.19893 z m 133.17687,-21.4136 c 12.924,-13.78346 26.55783,-27.93972 30.29738,-31.45865 3.73928,-3.51947 9.56306,-9.86293 12.94165,-14.09759 l 6.14269,-7.69894 -22.20242,-32.27679 C 733.8048,677.70354 723.217,662.21261 722.4872,661.03208 c -0.85386,-1.38133 5.85707,-2.14667 18.85411,-2.14667 h 20.18061 l 15.39852,22.62159 15.39867,22.62187 21.59893,-22.76987 21.59893,-22.76985 22.86745,0.68266 22.86693,0.68267 -34.06399,35.66666 c -18.73573,19.61706 -34.06452,36.23838 -34.06452,36.93626 0,0.69866 10.31733,16.25999 22.92745,34.58105 12.61014,18.32133 23.6952,34.57199 24.63333,36.11226 1.36,2.23466 -2.36266,2.79973 -18.43065,2.79973 H 822.1167 l -16.76053,-24.5696 -16.7608,-24.56959 -23.11732,24.56959 -23.11778,24.5696 H 718.84948 695.33841 Z M 321.27433,763.28352 c -33.78373,-4.408 -54.91252,-15.45147 -50.67748,-26.4872 1.33253,-3.47092 15.56397,-11.79439 20.16701,-11.79439 1.85412,0 1.86932,0.73333 0.0506,2.91759 -3.64078,4.38694 1.4784,7.55388 16.07028,9.94374 17.68472,2.89653 64.83479,2.35466 85.00257,-0.97334 l 17.06229,-2.81786 13.57338,6.8128 13.57314,6.81306 -9.30765,3.51093 c -31.9506,12.05147 -71.24177,16.548 -105.52224,12.07494 z m -20.02267,-54.48985 c -30.53215,-5.60907 -44.78871,-11.97947 -44.78871,-20.0144 0,-3.75227 11.17782,-14.96426 14.91859,-14.96426 0.98747,0 3.42464,-0.624 5.41672,-1.38933 3.17173,-1.216 3.29994,-0.78934 1.03306,3.44826 -3.90778,7.30134 0.96214,10.6288 19.36069,13.22666 20.08461,2.83627 89.41265,0.82667 110.4664,-3.2024 15.39386,-2.9448 15.93194,-2.9024 22.99789,1.89334 3.97933,2.70026 8.4033,5.328 9.83085,5.83866 5.25424,1.88 -0.7912,4.08454 -25.46634,9.28933 -20.72749,4.37147 -32.71719,5.464 -66.84729,6.0904 -22.87424,0.41867 -43.98893,0.32267 -46.9213,-0.21333 z m 159.95969,-3.84027 c 0,-0.656 3.59896,-3.0304 7.99798,-5.2768 15.06013,-7.69093 33.86108,-23.13279 40.6582,-33.39465 12.24437,-18.4856 8.40506,-37.26453 -9.37842,-45.8736 -8.53075,-4.1296 -11.18456,-4.49332 -19.27275,-2.64266 -7.78586,1.78133 -8.97461,1.656 -6.99666,-0.728 6.17973,-7.4464 28.45217,-9.15066 41.37793,-3.16614 20.66781,9.5688 27.72616,28.38453 18.10413,48.26053 -6.09533,12.59173 -23.73319,26.68826 -43.69764,34.92559 -15.31032,6.31626 -28.79277,10.01226 -28.79277,7.89253 z M 276.72442,657.61955 c -40.2302,-4.06907 -58.65177,-9.08747 -58.65177,-15.97893 0,-5.3096 5.99634,-8.85334 27.98511,-16.53813 17.36935,-6.07067 52.02265,-12.75494 54.30294,-10.47494 0.57707,0.576 -6.90424,3.5528 -16.62524,6.61227 -19.34277,6.08747 -32.46149,13.09813 -30.48731,16.29253 7.26846,11.7608 116.07606,9.93893 201.5648,-3.37467 7.17022,-1.11466 7.01782,-0.90933 -3.86626,5.2712 -11.69341,6.6392 -30.54724,11.25147 -62.25049,15.2288 -18.97045,2.37867 -97.2537,4.4504 -111.97178,2.9632 z m 107.25813,-37.6576 c 9.08093,-15.11092 7.73424,-25.38079 -5.62349,-42.88372 -22.33797,-29.26959 -24.71243,-50.80478 -8.29576,-75.23064 8.27608,-12.3136 22.39562,-23.35546 44.86553,-35.08666 15.95187,-8.32773 46.1586,-19.85679 47.77935,-18.23626 0.42827,0.42933 -5.93767,4.76613 -14.14447,9.64133 -20.43656,12.14107 -45.78952,32.62959 -53.4321,43.17972 -7.57199,10.45307 -9.86583,20.64799 -6.69359,29.74826 1.2824,3.6744 7.27879,13.94453 13.32825,22.82133 17.85958,26.20719 16.03403,42.56132 -7.06994,63.33358 -12.64237,11.3664 -16.5013,12.34399 -10.71378,2.71226 z M 331.75512,587.8193 c -27.65466,-28.54693 -36.90186,-44.25412 -36.90186,-62.68025 0,-20.83493 8.79853,-32.25573 51.7977,-67.23305 35.40479,-28.80026 48.095,-42.11519 56.44059,-59.22186 4.9142,-10.07226 5.73316,-14.49386 5.7946,-31.28585 l 0.0746,-19.55573 3.79696,5.99706 c 2.08852,3.2984 4.89802,11.24667 6.24396,17.66293 2.03787,9.7112 1.8416,14.12 -1.1664,26.31147 -6.41676,26.00212 -20.85116,44.42104 -67.99747,86.7669 -22.11447,19.86267 -29.69229,32.96799 -29.69229,51.34959 0,14.7728 4.21438,24.45572 22.39763,51.45999 12.71564,18.88453 15.81434,24.57359 13.38495,24.57359 -0.42827,0 -11.30499,-10.8656 -24.16948,-24.14479 z" />
    </g>
  </g>
</svg>
