<?xml version="1.0" encoding="UTF-8" standalone="no"?>
<svg
   width="100"
   height="100"
   id="svg27450"
   version="1.1"
   sodipodi:docname="linux.svg"
   inkscape:version="1.1.1 (3bf5ae0d25, 2021-09-20)"
   xmlns:inkscape="http://www.inkscape.org/namespaces/inkscape"
   xmlns:sodipodi="http://sodipodi.sourceforge.net/DTD/sodipodi-0.dtd"
   xmlns:xlink="http://www.w3.org/1999/xlink"
   xmlns="http://www.w3.org/2000/svg"
   xmlns:svg="http://www.w3.org/2000/svg"
   xmlns:rdf="http://www.w3.org/1999/02/22-rdf-syntax-ns#"
   xmlns:cc="http://creativecommons.org/ns#"
   xmlns:dc="http://purl.org/dc/elements/1.1/">
  <sodipodi:namedview
     id="namedview280"
     pagecolor="#505050"
     bordercolor="#eeeeee"
     borderopacity="1"
     inkscape:pageshadow="0"
     inkscape:pageopacity="0"
     inkscape:pagecheckerboard="0"
     showgrid="false"
     inkscape:zoom="2.803298"
     inkscape:cx="130.02542"
     inkscape:cy="91.321007"
     inkscape:window-width="1920"
     inkscape:window-height="1011"
     inkscape:window-x="0"
     inkscape:window-y="32"
     inkscape:window-maximized="1"
     inkscape:current-layer="svg27450"
     fit-margin-top="0"
     fit-margin-left="0"
     fit-margin-right="0"
     fit-margin-bottom="0" />
  <title
     id="title20046">Tux</title>
  <defs
     id="defs27452">
    <linearGradient
       id="linearGradient14132-6">
      <stop
         style="stop-color:#b98309"
         offset="0"
         id="stop14134-2" />
      <stop
         style="stop-color:#382605"
         offset="1"
         id="stop14136-2" />
    </linearGradient>
    <filter
       id="filter14148-8"
       x="-0.10750898"
       width="1.215018"
       y="-0.10849553"
       height="1.2169911">
      <feGaussianBlur
         stdDeviation="3.9237191"
         id="feGaussianBlur14150-8" />
    </filter>
    <filter
       id="filter14140-3"
       x="-0.075366274"
       y="-0.06972456"
       width="1.1507326"
       height="1.1394491">
      <feGaussianBlur
         stdDeviation="2.4365744"
         id="feGaussianBlur14142-5" />
    </filter>
    <linearGradient
       id="linearGradient14168-5">
      <stop
         style="stop-color:#ebc40c"
         offset="0"
         id="stop14170-8" />
      <stop
         style="stop-color:#ebc40c;stop-opacity:0"
         offset="1"
         id="stop14172-0" />
    </linearGradient>
    <filter
       id="filter14176-5"
       x="-0.03376605"
       y="-0.018615808"
       width="1.0675321"
       height="1.0372316">
      <feGaussianBlur
         stdDeviation="0.3702557"
         id="feGaussianBlur14178-0" />
    </filter>
    <filter
       id="filter15053-7"
       x="-0.10103524"
       width="1.2020705"
       y="-0.042669769"
       height="1.0853395">
      <feGaussianBlur
         stdDeviation="1.1322032"
         id="feGaussianBlur15055-3" />
    </filter>
    <linearGradient
       id="linearGradient14830-4">
      <stop
         id="stop14832-6"
         offset="0"
         style="stop-color:#7c7c7c" />
      <stop
         id="stop14834-5"
         offset="1"
         style="stop-color:#7c7c7c;stop-opacity:0.32941177" />
    </linearGradient>
    <filter
       id="filter14812-5"
       x="-0.07045566"
       width="1.1409113"
       y="-0.15060219"
       height="1.3012044">
      <feGaussianBlur
         stdDeviation="1.0252435"
         id="feGaussianBlur14814-2" />
    </filter>
    <filter
       id="filter14812-0-9"
       x="-0.07045566"
       width="1.1409113"
       y="-0.15060219"
       height="1.3012044">
      <feGaussianBlur
         stdDeviation="1.0252435"
         id="feGaussianBlur14814-6-7" />
    </filter>
    <linearGradient
       id="linearGradient14518-6">
      <stop
         id="stop14540-0"
         offset="0"
         style="stop-color:#110800" />
      <stop
         style="stop-color:#a65a00;stop-opacity:0.80000001"
         offset="0.59066743"
         id="stop14542-5" />
      <stop
         style="stop-color:#ff921e;stop-opacity:0"
         offset="1"
         id="stop14522-4" />
    </linearGradient>
    <filter
       id="filter14897-2"
       x="-0.20050506"
       width="1.4010102"
       y="-0.23409025"
       height="1.4681805">
      <feGaussianBlur
         stdDeviation="2.8444356"
         id="feGaussianBlur14899-5" />
    </filter>
    <filter
       id="filter14951-8"
       x="-0.091410652"
       width="1.1828213"
       y="-0.10672215"
       height="1.2134444">
      <feGaussianBlur
         stdDeviation="1.2967831"
         id="feGaussianBlur14953-7" />
    </filter>
    <filter
       id="filter15211-9"
       x="-0.43230507"
       width="1.8646101"
       y="-0.28956676"
       height="1.5791335">
      <feGaussianBlur
         stdDeviation="0.85991809"
         id="feGaussianBlur15213-7" />
    </filter>
    <filter
       id="filter14706-3"
       x="-0.58059675"
       width="2.1611936"
       y="-0.48604542"
       height="1.9720908">
      <feGaussianBlur
         stdDeviation="2.6400036"
         id="feGaussianBlur14708-8" />
    </filter>
    <linearGradient
       id="linearGradient15103-0">
      <stop
         style="stop-color:#000000"
         offset="0"
         id="stop15105-1" />
      <stop
         style="stop-color:#000000;stop-opacity:0"
         offset="1"
         id="stop15107-6" />
    </linearGradient>
    <filter
       id="filter15115-3"
       x="-0.076234303"
       y="-0.068211325"
       width="1.1524686"
       height="1.1364226">
      <feGaussianBlur
         stdDeviation="2.2091576"
         id="feGaussianBlur15117-8" />
    </filter>
    <linearGradient
       id="linearGradient14392-8">
      <stop
         style="stop-color:#3e2a06"
         offset="0"
         id="stop14394-3" />
      <stop
         style="stop-color:#ad780a"
         offset="1"
         id="stop14396-0" />
    </linearGradient>
    <filter
       id="filter14416-8"
       x="-0.14501533"
       width="1.2900307"
       y="-0.14299878"
       height="1.2859976">
      <feGaussianBlur
         stdDeviation="4.7787162"
         id="feGaussianBlur14418-5" />
    </filter>
    <filter
       id="filter14432-2"
       x="-0.11529265"
       width="1.2305853"
       y="-0.12494507"
       height="1.2498901">
      <feGaussianBlur
         stdDeviation="3.1725155"
         id="feGaussianBlur14434-2" />
    </filter>
    <linearGradient
       id="linearGradient17009">
      <stop
         style="stop-color:#f3cd0c"
         offset="0"
         id="stop17011" />
      <stop
         style="stop-color:#f3cd0c;stop-opacity:0"
         offset="1"
         id="stop17013" />
    </linearGradient>
    <filter
       id="filter17044"
       x="-0.020911871"
       width="1.0418237"
       y="-0.12926871"
       height="1.2585374">
      <feGaussianBlur
         stdDeviation="0.47946431"
         id="feGaussianBlur17046" />
    </filter>
    <filter
       id="filter15185-2"
       x="-0.17754582"
       width="1.3550916"
       y="-0.15942827"
       height="1.3188565">
      <feGaussianBlur
         stdDeviation="0.90083196"
         id="feGaussianBlur15187-7" />
    </filter>
    <filter
       height="1.1156476"
       y="-0.057823785"
       width="2.6331921"
       x="-0.81659597"
       id="filter4592-2">
      <feGaussianBlur
         id="feGaussianBlur4594-6"
         stdDeviation="1.4463082" />
    </filter>
    <linearGradient
       id="linearGradient4417-0">
      <stop
         id="stop4419-4-4"
         offset="0"
         style="stop-color:#000000" />
      <stop
         id="stop4421-2-0"
         offset="1"
         style="stop-color:#000000;stop-opacity:0.24886878" />
    </linearGradient>
    <filter
       id="filter4538-7"
       x="-0.086907856"
       y="-0.081280425"
       width="1.1738157"
       height="1.1625609">
      <feGaussianBlur
         id="feGaussianBlur4540-9"
         stdDeviation="0.7854602" />
    </filter>
    <filter
       id="filter4427-5-7"
       x="-0.050796617"
       y="-0.073276281"
       width="1.1015933"
       height="1.1465526">
      <feGaussianBlur
         id="feGaussianBlur4429-4-8"
         stdDeviation="1.1383167" />
    </filter>
    <filter
       id="filter4487-6"
       x="-0.049920514"
       y="-0.046221782"
       width="1.099841"
       height="1.0924436">
      <feGaussianBlur
         id="feGaussianBlur4489-4"
         stdDeviation="0.6434074" />
    </filter>
    <filter
       id="filter14666-9"
       x="-0.11753157"
       width="1.2350631"
       y="-0.040046327"
       height="1.0800927">
      <feGaussianBlur
         stdDeviation="1.352085"
         id="feGaussianBlur14668-7" />
    </filter>
    <linearGradient
       id="linearGradient29652-2">
      <stop
         style="stop-color:#c8c8c8"
         offset="0"
         id="stop29654-6" />
      <stop
         style="stop-color:#797978"
         offset="1"
         id="stop29656-1" />
    </linearGradient>
    <linearGradient
       id="linearGradient28469-0">
      <stop
         style="stop-color:#d2940a"
         offset="0"
         id="stop28479-4" />
      <stop
         style="stop-color:#d89c08"
         offset="0.75143719"
         id="stop28477-2" />
      <stop
         id="stop28485-7"
         offset="0.86579126"
         style="stop-color:#b67e07" />
      <stop
         id="stop28473-1"
         offset="1"
         style="stop-color:#946106" />
    </linearGradient>
    <filter
       height="1.4414386"
       y="-0.22071932"
       width="1.3104809"
       x="-0.15524045"
       id="filter28502-8">
      <feGaussianBlur
         id="feGaussianBlur28504-3"
         stdDeviation="0.89858666" />
    </filter>
    <filter
       id="filter15145-6"
       x="-0.034399945"
       y="-0.07938495"
       width="1.0687999"
       height="1.1587699">
      <feGaussianBlur
         stdDeviation="0.75821369"
         id="feGaussianBlur15147-1" />
    </filter>
    <linearGradient
       id="linearGradient28275-8">
      <stop
         id="stop28277-1"
         offset="0"
         style="stop-color:#ad780a" />
      <stop
         style="stop-color:#d89e08"
         offset="0.11972899"
         id="stop28291-9" />
      <stop
         style="stop-color:#edb80b"
         offset="0.25514477"
         id="stop28289-6" />
      <stop
         style="stop-color:#ebc80d"
         offset="0.39194193"
         id="stop28287-6" />
      <stop
         style="stop-color:#f5d838"
         offset="0.52741116"
         id="stop28285-7" />
      <stop
         style="stop-color:#f6d811"
         offset="0.76906693"
         id="stop28283-7" />
      <stop
         id="stop28279-5"
         offset="1"
         style="stop-color:#f5cd31" />
    </linearGradient>
    <filter
       id="filter14963-7"
       x="-0.16095594"
       width="1.3219119"
       y="-0.13027576"
       height="1.2605515">
      <feGaussianBlur
         stdDeviation="0.84878819"
         id="feGaussianBlur14965-0" />
    </filter>
    <linearGradient
       id="linearGradient29529-6">
      <stop
         id="stop29531-0"
         offset="0"
         style="stop-color:#3a2903" />
      <stop
         style="stop-color:#735208"
         offset="0.55472803"
         id="stop29539-7" />
      <stop
         id="stop29533-8"
         offset="1"
         style="stop-color:#ac8c04" />
    </linearGradient>
    <filter
       id="filter15177-1"
       x="-0.046765498"
       y="-0.089099448"
       width="1.093531"
       height="1.1781989">
      <feGaussianBlur
         stdDeviation="0.11039302"
         id="feGaussianBlur15179-3" />
    </filter>
    <filter
       id="filter15173-0"
       x="-0.11644643"
       width="1.2328929"
       y="-0.10572958"
       height="1.2114592">
      <feGaussianBlur
         stdDeviation="0.11039302"
         id="feGaussianBlur15175-4" />
    </filter>
    <linearGradient
       id="linearGradient28572-7">
      <stop
         id="stop28574-5"
         offset="0"
         style="stop-color:#f5ce2d" />
      <stop
         id="stop28576-0"
         offset="1"
         style="stop-color:#d79b08" />
    </linearGradient>
    <filter
       height="1.2722148"
       y="-0.13610738"
       width="1.2429944"
       x="-0.12149719"
       id="filter28584-4">
      <feGaussianBlur
         id="feGaussianBlur28586-3"
         stdDeviation="0.2640625" />
    </filter>
    <linearGradient
       id="linearGradient29477-3">
      <stop
         id="stop29479-5"
         offset="0"
         style="stop-color:#757574;stop-opacity:0" />
      <stop
         style="stop-color:#757574"
         offset="0.26291031"
         id="stop29487-5" />
      <stop
         style="stop-color:#757574"
         offset="0.5"
         id="stop29485-0" />
      <stop
         id="stop29481-3"
         offset="1"
         style="stop-color:#757574;stop-opacity:0" />
    </linearGradient>
    <filter
       height="1.2921369"
       y="-0.14606842"
       width="1.4689326"
       x="-0.23446631"
       id="filter29493-2">
      <feGaussianBlur
         id="feGaussianBlur29495-7"
         stdDeviation="0.51262416" />
    </filter>
    <linearGradient
       id="linearGradient29336-6">
      <stop
         id="stop29338-1"
         offset="0"
         style="stop-color:#646464;stop-opacity:0" />
      <stop
         style="stop-color:#646464;stop-opacity:0.5825243"
         offset="0.30628255"
         id="stop29344-7" />
      <stop
         id="stop29354-5"
         offset="0.47000006"
         style="stop-color:#646464" />
      <stop
         style="stop-color:#646464;stop-opacity:0.25728154"
         offset="0.72834015"
         id="stop29356-3" />
      <stop
         id="stop29340-6"
         offset="1"
         style="stop-color:#646464;stop-opacity:0" />
    </linearGradient>
    <filter
       id="filter29447-1"
       x="-0.02308774"
       y="-0.025666747"
       width="1.0461755"
       height="1.0513335">
      <feGaussianBlur
         id="feGaussianBlur29449-4"
         stdDeviation="0.13475369" />
    </filter>
    <filter
       id="filter29350-1"
       x="-0.023071282"
       y="-0.02500662"
       width="1.0461426"
       height="1.0500132">
      <feGaussianBlur
         id="feGaussianBlur29352-7"
         stdDeviation="0.1475" />
    </filter>
    <linearGradient
       id="linearGradient28976-3">
      <stop
         style="stop-color:#8c8c8c"
         offset="0"
         id="stop29259-5" />
      <stop
         id="stop28980-2"
         offset="1"
         style="stop-color:#7c7c7c" />
    </linearGradient>
    <filter
       height="1.4183974"
       y="-0.2091987"
       width="1.3159075"
       x="-0.15795375"
       id="filter28927-8">
      <feGaussianBlur
         id="feGaussianBlur28929-2"
         stdDeviation="0.24891089" />
    </filter>
    <linearGradient
       id="linearGradient28935-8">
      <stop
         id="stop28937-7"
         offset="0"
         style="stop-color:#949494;stop-opacity:0.39215687" />
      <stop
         style="stop-color:#949494"
         offset="0.5"
         id="stop28943-3" />
      <stop
         id="stop28939-8"
         offset="1"
         style="stop-color:#949494;stop-opacity:0.39215687" />
    </linearGradient>
    <filter
       height="1.3626815"
       y="-0.18134074"
       width="1.3573579"
       x="-0.17867894"
       id="filter28949-8">
      <feGaussianBlur
         id="feGaussianBlur28951-1"
         stdDeviation="0.51947927" />
    </filter>
    <filter
       id="filter15133-1"
       x="-0.2921797"
       width="1.5843594"
       y="-0.30825046"
       height="1.6165009">
      <feGaussianBlur
         stdDeviation="1.7403319"
         id="feGaussianBlur15135-5" />
    </filter>
    <linearGradient
       id="linearGradient28853-5">
      <stop
         id="stop28855-3"
         offset="0"
         style="stop-color:#020204" />
      <stop
         style="stop-color:#020204"
         offset="0.73448181"
         id="stop28865-0" />
      <stop
         id="stop28857-9"
         offset="1"
         style="stop-color:#5c5c5c" />
    </linearGradient>
    <linearGradient
       id="linearGradient28799-3">
      <stop
         id="stop28801-6"
         offset="0"
         style="stop-color:#fefefc" />
      <stop
         style="stop-color:#fefefc"
         offset="0.75733864"
         id="stop28807-7" />
      <stop
         id="stop28803-0"
         offset="1"
         style="stop-color:#d4d4d4" />
    </linearGradient>
    <filter
       id="filter30475-4"
       x="-0.036516685"
       y="-0.074027546"
       width="1.0730335"
       height="1.1480551">
      <feGaussianBlur
         id="feGaussianBlur30477-9"
         stdDeviation="0.93152507" />
    </filter>
    <filter
       height="1.258381"
       y="-0.1291905"
       width="1.1527554"
       x="-0.076377697"
       id="filter30479-2">
      <feGaussianBlur
         id="feGaussianBlur30481-9"
         stdDeviation="2.0355046" />
    </filter>
    <radialGradient
       xlink:href="#linearGradient28799-3"
       id="radialGradient18806"
       gradientUnits="userSpaceOnUse"
       gradientTransform="matrix(0.81524244,-0.03431182,0.02961133,1.2479887,-208.43744,-35.542647)"
       cx="223.19559"
       cy="137.66095"
       fx="223.19559"
       fy="137.66095"
       r="14.572236" />
    <radialGradient
       xlink:href="#linearGradient28799-3"
       id="radialGradient18808"
       gradientUnits="userSpaceOnUse"
       gradientTransform="matrix(1.0857794,-0.03431182,0.03943781,1.2479887,-233.54194,-35.542647)"
       cx="223.19559"
       cy="137.66095"
       fx="223.19559"
       fy="137.66095"
       r="14.572236" />
    <radialGradient
       xlink:href="#linearGradient28853-5"
       id="radialGradient18810"
       gradientUnits="userSpaceOnUse"
       gradientTransform="matrix(0.69784558,-0.50717348,0.46034105,0.63340638,-271.10191,183.03011)"
       cx="275.53763"
       cy="150.65126"
       fx="275.53763"
       fy="150.65126"
       r="15.382211" />
    <linearGradient
       xlink:href="#linearGradient28935-8"
       id="linearGradient18812"
       gradientUnits="userSpaceOnUse"
       gradientTransform="translate(-60.00015,-58.362183)"
       x1="213.01591"
       y1="132.76981"
       x2="219.73343"
       y2="140.72476" />
    <linearGradient
       xlink:href="#linearGradient28976-3"
       id="linearGradient18814"
       gradientUnits="userSpaceOnUse"
       gradientTransform="translate(-250)"
       x1="339.92188"
       y1="121.54968"
       x2="358.625"
       y2="132.48718" />
    <linearGradient
       xlink:href="#linearGradient29336-6"
       id="linearGradient18816"
       gradientUnits="userSpaceOnUse"
       gradientTransform="translate(-300.00015,-0.9999998)"
       x1="294.50998"
       y1="114.56181"
       x2="308.74051"
       y2="127.99684" />
    <linearGradient
       xlink:href="#linearGradient29336-6"
       id="linearGradient18818"
       gradientUnits="userSpaceOnUse"
       gradientTransform="translate(-300.00015,-0.9999998)"
       x1="253.22745"
       y1="115.66637"
       x2="266.62701"
       y2="128.57106" />
    <linearGradient
       xlink:href="#linearGradient29477-3"
       id="linearGradient18820"
       gradientUnits="userSpaceOnUse"
       x1="164.04878"
       y1="132.06271"
       x2="169.8824"
       y2="142.49252"
       gradientTransform="translate(-50.00015,-58.362183)" />
    <radialGradient
       xlink:href="#linearGradient28469-0"
       id="radialGradient18822"
       gradientUnits="userSpaceOnUse"
       gradientTransform="matrix(0.93618683,-0.38640412,0.27133164,0.65738721,-244.47527,146.7229)"
       cx="294.48483"
       cy="193.09949"
       fx="294.48483"
       fy="193.09949"
       r="31.111488" />
    <linearGradient
       xlink:href="#linearGradient28275-8"
       id="linearGradient18824"
       gradientUnits="userSpaceOnUse"
       gradientTransform="translate(-210)"
       x1="256.85657"
       y1="158.31404"
       x2="313.3367"
       y2="157.8721" />
    <radialGradient
       xlink:href="#linearGradient29529-6"
       id="radialGradient18826"
       gradientUnits="userSpaceOnUse"
       gradientTransform="matrix(1.0000004,0,0,0.5833264,59.999805,3.054009)"
       cx="77.67215"
       cy="147.09335"
       fx="77.67215"
       fy="147.09335"
       r="3.2300935" />
    <radialGradient
       xlink:href="#linearGradient29529-6"
       id="radialGradient18828"
       gradientUnits="userSpaceOnUse"
       gradientTransform="matrix(1,0,0,1.0751189,59.99984,-69.456344)"
       cx="63.125401"
       cy="147.44128"
       fx="63.125401"
       fy="147.44128"
       r="1.5350333" />
    <linearGradient
       xlink:href="#linearGradient28572-7"
       id="linearGradient18830"
       gradientUnits="userSpaceOnUse"
       x1="243.03125"
       y1="157.01843"
       x2="243.46875"
       y2="159.76843" />
    <radialGradient
       xlink:href="#linearGradient29652-2"
       id="radialGradient18832"
       gradientUnits="userSpaceOnUse"
       gradientTransform="matrix(0.20141143,-0.03316079,0.03065006,0.18616184,-3.1263574,114.03586)"
       cx="268.06998"
       cy="126.53491"
       fx="268.06998"
       fy="126.53491"
       r="35.51144" />
    <radialGradient
       xlink:href="#linearGradient4417-0"
       id="radialGradient18834"
       gradientUnits="userSpaceOnUse"
       gradientTransform="matrix(-0.69844216,0,0,0.76335815,166.3057,50.219935)"
       cx="336.22372"
       cy="220.53755"
       fx="336.22372"
       fy="220.53755"
       r="27.391165" />
    <radialGradient
       xlink:href="#linearGradient4417-0"
       id="radialGradient18836"
       gradientUnits="userSpaceOnUse"
       gradientTransform="matrix(1,0,0,0.76335815,-150.00015,-8.142243)"
       cx="312.14502"
       cy="236.36569"
       fx="312.14502"
       fy="236.36569"
       r="27.391165" />
    <radialGradient
       xlink:href="#linearGradient4417-0"
       id="radialGradient18838"
       gradientUnits="userSpaceOnUse"
       gradientTransform="matrix(1,0,0,1.0692348,-150.00016,-73.222483)"
       cx="275.55389"
       cy="225.13487"
       fx="275.55389"
       fy="225.13487"
       r="10.84542" />
    <linearGradient
       xlink:href="#linearGradient15103-0"
       id="linearGradient18840"
       gradientUnits="userSpaceOnUse"
       gradientTransform="translate(-310)"
       x1="338.28552"
       y1="323.90076"
       x2="341.98224"
       y2="351.48654" />
    <linearGradient
       xlink:href="#linearGradient14392-8"
       id="linearGradient18842"
       gradientUnits="userSpaceOnUse"
       x1="442.03912"
       y1="371.54401"
       x2="490.12241"
       y2="293.58548"
       gradientTransform="translate(-250.00016,-58.362183)" />
    <linearGradient
       xlink:href="#linearGradient17009"
       id="linearGradient18844"
       gradientUnits="userSpaceOnUse"
       gradientTransform="translate(-150.00016,-60.362183)"
       x1="355.16373"
       y1="289.58905"
       x2="353.74951"
       y2="302.31699" />
    <radialGradient
       xlink:href="#linearGradient14518-6"
       id="radialGradient18846"
       gradientUnits="userSpaceOnUse"
       gradientTransform="matrix(1.3082075,0.35053296,-0.36795399,1.3732236,-150.50951,-298.71133)"
       cx="363.33957"
       cy="303.41541"
       fx="363.33957"
       fy="303.41541"
       r="16.845654" />
    <radialGradient
       xlink:href="#linearGradient14518-6"
       id="radialGradient18848"
       gradientUnits="userSpaceOnUse"
       gradientTransform="matrix(1.3082075,0.35053296,-0.36795399,1.3732236,-310.50935,-240.34915)"
       cx="363.33957"
       cy="303.41541"
       fx="363.33957"
       fy="303.41541"
       r="16.845654" />
    <radialGradient
       xlink:href="#linearGradient14830-4"
       id="radialGradient18850"
       gradientUnits="userSpaceOnUse"
       gradientTransform="matrix(0.36025223,0.15680447,-0.07246786,0.16649214,260.61683,181.93825)"
       cx="382.23483"
       cy="246.85757"
       fx="382.23483"
       fy="246.85757"
       r="20.537666" />
    <linearGradient
       xlink:href="#linearGradient14830-4"
       id="linearGradient18852"
       gradientUnits="userSpaceOnUse"
       x1="358.5"
       y1="279.36218"
       x2="361.5"
       y2="279.23718" />
    <linearGradient
       xlink:href="#linearGradient14132-6"
       id="linearGradient18854"
       gradientUnits="userSpaceOnUse"
       x1="123.13397"
       y1="301.54044"
       x2="170.86368"
       y2="381.62027"
       gradientTransform="translate(-80.00015,-58.362183)" />
    <linearGradient
       xlink:href="#linearGradient14168-5"
       id="linearGradient18856"
       gradientUnits="userSpaceOnUse"
       gradientTransform="translate(-80.53048,-60.12995)"
       x1="171.57079"
       y1="323.99109"
       x2="186.5968"
       y2="352.27536" />
    <clipPath
       clipPathUnits="userSpaceOnUse"
       id="clipPath391">
      <path
         id="path393"
         d="m 137.57703,281.0191 c 1.59929,-0.66295 3.3982,-0.78361 5.10074,-0.46963 1.70253,0.31398 3.31141,1.04948 4.74342,2.02239 2.86402,1.94583 4.98821,4.77774 7.02263,7.57952 4.67189,6.43406 9.16868,13.00227 13.24488,19.8293 3.30635,5.53766 6.34352,11.25685 10.16415,16.45304 2.49398,3.3919 5.3066,6.53947 7.813,9.92221 2.50639,3.38273 4.72794,7.05586 5.83931,11.11662 1.44411,5.27653 0.88463,11.09291 -1.62666,15.95302 -1.76663,3.41896 -4.47646,6.35228 -7.77242,8.33898 -3.29595,1.9867 -7.17064,3.01444 -11.01635,2.87021 -6.11413,-0.2293 -11.69944,-3.28515 -17.38362,-5.54906 -11.58097,-4.6125 -24.15978,-6.0594 -36.09666,-9.65174 -3.66859,-1.10404 -7.27582,-2.4107 -10.96988,-3.42629 -1.64125,-0.45122 -3.30866,-0.8482 -4.85875,-1.55144 -1.55008,-0.70325 -2.999548,-1.7491 -3.86171,-3.21675 -0.666391,-1.13439 -0.948386,-2.47002 -0.930187,-3.78554 0.0182,-1.31552 0.325889,-2.61453 0.773815,-3.85158 0.895851,-2.47409 2.343262,-4.71374 3.320162,-7.15696 1.59511,-3.98935 1.88169,-8.38839 1.66657,-12.67942 -0.21511,-4.29103 -0.91078,-8.54478 -1.20454,-12.83115 -0.13118,-1.91406 -0.18066,-3.85256 0.18479,-5.73598 0.36545,-1.88343 1.17577,-3.72459 2.55771,-5.05541 1.27406,-1.22693 2.96492,-1.95531 4.69643,-2.31651 1.73151,-0.3612 3.51533,-0.37747 5.28367,-0.33762 1.76833,0.0399 3.54067,0.13425 5.30351,-0.0106 1.76284,-0.14488 3.53347,-0.54055 5.06911,-1.41828 1.45996,-0.83447 2.65433,-2.0745 3.64374,-3.43424 0.9894,-1.35974 1.78909,-2.84573 2.60891,-4.31396 0.81983,-1.46823 1.66834,-2.93151 2.74157,-4.22611 1.07324,-1.2946 2.38923,-2.42304 3.94266,-3.06698"
         style="fill:url(#linearGradient395)"
         transform="matrix(1,0,0,1.0182804,0,-4.0313444)" />
    </clipPath>
    <linearGradient
       xlink:href="#linearGradient14132-6"
       id="linearGradient395"
       gradientUnits="userSpaceOnUse"
       x1="123.13397"
       y1="301.54044"
       x2="170.86368"
       y2="381.62027" />
    <clipPath
       clipPathUnits="userSpaceOnUse"
       id="clipPath401">
      <path
         transform="translate(-240.00015,-1)"
         style="fill:url(#linearGradient395)"
         d="m 137.57703,281.0191 c 1.59929,-0.66295 3.3982,-0.78361 5.10074,-0.46963 1.70253,0.31398 3.31141,1.04948 4.74342,2.02239 2.86402,1.94583 4.98821,4.77774 7.02263,7.57952 4.67189,6.43406 9.16868,13.00227 13.24488,19.8293 3.30635,5.53766 6.34352,11.25685 10.16415,16.45304 2.49398,3.3919 5.3066,6.53947 7.813,9.92221 2.50639,3.38273 4.72794,7.05586 5.83931,11.11662 1.44411,5.27653 0.88463,11.09291 -1.62666,15.95302 -1.76663,3.41896 -4.47646,6.35228 -7.77242,8.33898 -3.29595,1.9867 -7.17064,3.01444 -11.01635,2.87021 -6.11413,-0.2293 -11.69944,-3.28515 -17.38362,-5.54906 -11.58097,-4.6125 -24.15978,-6.0594 -36.09666,-9.65174 -3.66859,-1.10404 -7.27582,-2.4107 -10.96988,-3.42629 -1.64125,-0.45122 -3.30866,-0.8482 -4.85875,-1.55144 -1.55008,-0.70325 -2.999548,-1.7491 -3.86171,-3.21675 -0.666391,-1.13439 -0.948386,-2.47002 -0.930187,-3.78554 0.0182,-1.31552 0.325889,-2.61453 0.773815,-3.85158 0.895851,-2.47409 2.343262,-4.71374 3.320162,-7.15696 1.59511,-3.98935 1.88169,-8.38839 1.66657,-12.67942 -0.21511,-4.29103 -0.91078,-8.54478 -1.20454,-12.83115 -0.13118,-1.91406 -0.18066,-3.85256 0.18479,-5.73598 0.36545,-1.88343 1.17577,-3.72459 2.55771,-5.05541 1.27406,-1.22693 2.96492,-1.95531 4.69643,-2.31651 1.73151,-0.3612 3.51533,-0.37747 5.28367,-0.33762 1.76833,0.0399 3.54067,0.13425 5.30351,-0.0106 1.76284,-0.14488 3.53347,-0.54055 5.06911,-1.41828 1.45996,-0.83447 2.65433,-2.0745 3.64374,-3.43424 0.9894,-1.35974 1.78909,-2.84573 2.60891,-4.31396 0.81983,-1.46823 1.66834,-2.93151 2.74157,-4.22611 1.07324,-1.2946 2.38923,-2.42304 3.94266,-3.06698"
         id="path403" />
    </clipPath>
    <clipPath
       clipPathUnits="userSpaceOnUse"
       id="clipPath419">
      <path
         style="fill:url(#linearGradient423)"
         d="m 513.18983,336.61385 c -2.6238,3.11482 -6.268,5.17039 -9.89648,7.01985 -6.1886,3.15437 -12.60169,5.92177 -18.41964,9.71654 -3.89802,2.54249 -7.4959,5.52671 -10.86016,8.74238 -2.87719,2.75012 -5.60582,5.68745 -8.83247,8.01771 -3.25567,2.35122 -7.01915,4.05426 -10.99061,4.6502 -4.83026,0.72481 -9.82134,-0.21289 -14.29898,-2.16416 -3.13754,-1.36728 -6.15569,-3.3229 -7.96301,-6.22931 -1.81425,-2.91754 -2.22807,-6.48813 -2.23266,-9.92375 -0.008,-6.07666 1.11824,-12.09004 2.17848,-18.07349 0.88097,-4.97177 1.71949,-9.95483 2.26013,-14.97502 0.98337,-9.13118 0.9763,-18.35278 0.3199,-27.51327 -0.10993,-1.53416 -0.23754,-3.0832 -0.008,-4.60412 0.22922,-1.52092 0.85475,-3.0367 2.02069,-4.03986 1.07696,-0.9266 2.52093,-1.33598 3.93947,-1.4145 1.41854,-0.0785 2.83404,0.14655 4.23982,0.35197 3.31254,0.48405 6.65159,0.8649 9.88917,1.71656 2.04284,0.53738 4.03315,1.25925 6.0722,1.81081 3.40258,0.92039 6.96639,1.36144 10.46739,0.95192 3.76917,-0.44089 7.42987,-1.85678 11.22363,-1.76474 1.55658,0.0378 3.1015,0.33171 4.58649,0.79985 1.51539,0.47772 3.00914,1.16182 4.12281,2.29512 0.84639,0.8613 1.43579,1.94539 1.87872,3.06879 0.65982,1.67352 1.01492,3.457 1.16703,5.24945 0.13475,1.58788 0.11343,3.19441 0.41433,4.75933 0.49503,2.57458 1.84746,4.92305 3.52848,6.93494 1.68102,2.01189 3.68982,3.72048 5.69641,5.40783 1.99908,1.68103 4.0106,3.35469 6.16708,4.82839 1.0121,0.69165 2.05642,1.33949 3.01736,2.10062 0.96094,0.76113 1.84466,1.6468 2.44543,2.71535 0.81492,1.44944 1.06377,3.2077 0.53758,4.87655 -0.5262,1.66885 -1.48162,3.27659 -2.67059,4.68806 z"
         id="path421"
         clip-path="none" />
    </clipPath>
    <linearGradient
       xlink:href="#linearGradient14392-8"
       id="linearGradient423"
       gradientUnits="userSpaceOnUse"
       gradientTransform="translate(-250.00016,-58.362187)"
       x1="442.03912"
       y1="371.54401"
       x2="490.12241"
       y2="293.58548" />
    <clipPath
       clipPathUnits="userSpaceOnUse"
       id="clipPath426">
      <path
         style="fill:url(#linearGradient430);stroke-width:0.842603"
         d="m 509.36312,335.7449 c -2.29559,2.52764 -5.48394,4.19571 -8.65854,5.69652 -5.41448,2.55973 -11.02537,4.80544 -16.11557,7.88485 -3.41042,2.0632 -6.55825,4.48486 -9.50168,7.09433 -2.51729,2.23169 -4.9046,4.6153 -7.72764,6.50627 -2.84842,1.90799 -6.14114,3.28999 -9.61581,3.77358 -4.22606,0.58818 -8.59281,-0.17275 -12.51035,-1.75618 -2.74507,-1.10954 -5.38569,-2.6965 -6.96694,-5.05501 -1.5873,-2.36755 -1.94936,-5.26504 -1.95338,-8.053 -0.007,-4.93114 0.97837,-9.81092 1.90598,-14.66641 0.77077,-4.03453 1.5044,-8.07822 1.97742,-12.15205 0.86036,-7.40983 0.85417,-14.89305 0.27988,-22.32667 -0.0962,-1.24495 -0.20783,-2.50198 -0.007,-3.73619 0.20055,-1.23421 0.74783,-2.46424 1.76793,-3.27829 0.94224,-0.75193 2.20559,-1.08414 3.44669,-1.14785 1.24109,-0.0637 2.47953,0.11892 3.70947,0.28562 2.89818,0.3928 5.81955,0.70185 8.65215,1.39296 1.78731,0.43608 3.52865,1.02187 5.31264,1.46945 2.97696,0.74689 6.09498,1.10479 9.15805,0.77247 3.29769,-0.35777 6.50048,-1.50675 9.81968,-1.43206 1.36187,0.0307 2.71354,0.26918 4.01278,0.64907 1.32583,0.38766 2.63273,0.9428 3.6071,1.86246 0.74051,0.69893 1.25619,1.57866 1.64371,2.49028 0.57728,1.35804 0.88797,2.80532 1.02105,4.25987 0.11789,1.28854 0.0992,2.59222 0.3625,3.86213 0.43311,2.08924 1.61637,3.995 3.08711,5.62762 1.47074,1.63263 3.22827,3.01913 4.98386,4.38839 1.74902,1.36413 3.50892,2.72229 5.39565,3.91818 0.8855,0.56126 1.79919,1.08698 2.63992,1.70462 0.84074,0.61765 1.61392,1.33636 2.13954,2.20348 0.71298,1.1762 0.93071,2.60301 0.47034,3.95726 -0.46038,1.35425 -1.29629,2.65891 -2.33654,3.8043 z"
         id="path428"
         clip-path="none" />
    </clipPath>
    <linearGradient
       xlink:href="#linearGradient14392-8"
       id="linearGradient430"
       gradientUnits="userSpaceOnUse"
       gradientTransform="matrix(0.87491199,0,0,0.81148755,-158.36095,15.22676)"
       x1="442.03912"
       y1="371.54401"
       x2="490.12241"
       y2="293.58548" />
    <clipPath
       clipPathUnits="userSpaceOnUse"
       id="clipPath433">
      <path
         style="fill:url(#linearGradient437)"
         d="m 263.18967,278.25167 c -2.6238,3.11482 -6.268,5.17039 -9.89648,7.01985 -6.1886,3.15437 -12.60169,5.92177 -18.41964,9.71654 -3.89802,2.54249 -7.4959,5.52671 -10.86016,8.74238 -2.87719,2.75012 -5.60582,5.68745 -8.83247,8.01771 -3.25567,2.35122 -7.01915,4.05426 -10.99061,4.6502 -4.83026,0.72481 -9.82134,-0.21289 -14.29898,-2.16416 -3.13754,-1.36728 -6.15569,-3.3229 -7.96301,-6.22931 -1.81425,-2.91754 -2.22807,-6.48813 -2.23266,-9.92375 -0.008,-6.07666 1.11824,-12.09004 2.17848,-18.07349 0.88097,-4.97177 1.71949,-9.95483 2.26013,-14.97502 0.98337,-9.13118 0.9763,-18.35278 0.3199,-27.51327 -0.10993,-1.53416 -0.23754,-3.0832 -0.008,-4.60412 0.22922,-1.52092 0.85475,-3.0367 2.02069,-4.03986 1.07696,-0.9266 2.52093,-1.33598 3.93947,-1.4145 1.41854,-0.0785 2.83404,0.14655 4.23982,0.35197 3.31254,0.48405 6.65159,0.8649 9.88917,1.71656 2.04284,0.53738 4.03315,1.25925 6.0722,1.81081 3.40258,0.92039 6.96639,1.36144 10.46739,0.95192 3.76917,-0.44089 7.42987,-1.85678 11.22363,-1.76474 1.55658,0.0378 3.1015,0.33171 4.58649,0.79985 1.51539,0.47772 3.00914,1.16182 4.12281,2.29512 0.84639,0.8613 1.43579,1.94539 1.87872,3.06879 0.65982,1.67352 1.01492,3.457 1.16703,5.24945 0.13475,1.58788 0.11343,3.19441 0.41433,4.75933 0.49503,2.57458 1.84746,4.92305 3.52848,6.93494 1.68102,2.01189 3.68982,3.72048 5.69641,5.40783 1.99908,1.68103 4.0106,3.35469 6.16708,4.82839 1.0121,0.69165 2.05642,1.33949 3.01736,2.10062 0.96094,0.76113 1.84466,1.6468 2.44543,2.71535 0.81492,1.44944 1.06377,3.2077 0.53758,4.87655 -0.5262,1.66885 -1.48162,3.27659 -2.67059,4.68806 z"
         id="path435"
         clip-path="none" />
    </clipPath>
    <linearGradient
       xlink:href="#linearGradient14392-8"
       id="linearGradient437"
       gradientUnits="userSpaceOnUse"
       gradientTransform="translate(-500.00032,-116.72437)"
       x1="442.03912"
       y1="371.54401"
       x2="490.12241"
       y2="293.58548" />
    <clipPath
       clipPathUnits="userSpaceOnUse"
       id="clipPath504">
      <path
         style="fill:#020204;stroke-width:0.991084"
         id="path506"
         d="m 304.84727,225.44951 c 5.97679,4.89463 9.76903,12.28597 10.94319,20.00305 0.91574,6.01859 0.32054,12.19496 -1.0124,18.13223 -1.33294,5.93726 -3.39093,11.67615 -5.43351,17.40051 -0.81452,2.2827 -1.63269,4.5871 -1.95634,6.9933 -0.32365,2.40621 -0.1187,4.95426 1.02109,7.08777 1.3066,2.44578 3.74526,4.13021 6.36677,4.92292 2.58816,0.78263 5.38374,0.76618 8.00354,0.10153 2.61979,-0.66466 5.06582,-1.96341 7.19828,-3.64929 5.41763,-4.28306 8.68657,-10.94871 9.95201,-17.81211 1.26545,-6.86339 0.68401,-13.95038 -0.49258,-20.83014 -1.60443,-9.38136 -4.30394,-18.55105 -7.74003,-27.40773 -2.52746,-6.51466 -5.7653,-12.74244 -9.61753,-18.52016 -3.77934,-5.66839 -9.14163,-10.09303 -13.10336,-15.63502 -1.37643,-1.92547 -3.03189,-3.93159 -4.38419,-5.87845 -2.91575,-4.19771 -2.25544,-3.41451 -4.06424,-6.13155 -1.31235,-1.9713 -3.38449,-2.6487 -5.56491,-3.51096 -2.18041,-0.86226 -4.629,-1.11623 -6.88065,-0.47108 -2.96781,0.85034 -5.39233,3.23113 -6.68215,6.08208 -1.28982,2.85095 -1.51545,6.12313 -1.01363,9.2201 0.64739,3.99536 2.44215,7.70258 4.46569,11.18873 2.28537,3.93724 4.93283,7.72707 8.38442,10.65407 3.60205,3.05459 7.95771,5.06875 11.61053,8.0602" />
    </clipPath>
    <clipPath
       clipPathUnits="userSpaceOnUse"
       id="clipPath508">
      <path
         id="path510"
         d="m 240.47307,195.03592 c -7.07309,8.03686 -14.35222,15.81627 -18.34577,24.50506 -1.97625,4.41329 -2.91077,9.20725 -4.26498,13.84932 -1.5379,5.27176 -3.62609,10.3703 -5.97071,15.33612 -2.16496,4.58531 -4.54982,9.06291 -6.93891,13.53553 -1.7382,3.25409 -3.50514,6.58104 -4.10782,10.22071 -0.47628,2.87632 -0.1985,5.84423 0.53375,8.66626 0.73225,2.82202 1.90965,5.5106 3.23776,8.10601 5.66725,11.07504 14.17003,20.62168 24.24176,27.92472 4.57063,3.31418 9.46669,6.18109 14.60245,8.52595 2.78247,1.27041 5.71355,2.40436 8.77186,2.45744 1.52915,0.0265 3.0741,-0.22544 4.47434,-0.84055 1.40023,-0.6151 2.65068,-1.60373 3.48254,-2.88709 1.02278,-1.5779 1.36992,-3.53829 1.16461,-5.40743 -0.2053,-1.86914 -0.93484,-3.65294 -1.91324,-5.25873 -2.38997,-3.92251 -6.1652,-6.76055 -9.79642,-9.57343 -7.84055,-6.07358 -15.42465,-12.48039 -22.68212,-19.23996 -2.04912,-1.90854 -4.09841,-3.87759 -5.53019,-6.28412 -1.3943,-2.34352 -2.1476,-5.01376 -2.65783,-7.69253 -1.39972,-7.34873 -1.04092,-15.08286 1.45958,-22.13343 0.97822,-2.75826 2.27118,-5.39201 3.51815,-8.03965 2.16133,-4.58906 4.20725,-9.26564 7.04933,-13.46723 3.53798,-5.23037 8.26749,-9.66049 11.15147,-15.27803 2.43423,-4.74149 3.41994,-10.07236 4.36185,-15.31831 0.73693,-4.10434 2.15042,-8.12437 2.86923,-12.23193 -1.40611,2.66567 -5.93796,7.04283 -8.71069,10.5253 z"
         style="fill:#020204" />
    </clipPath>
    <clipPath
       clipPathUnits="userSpaceOnUse"
       id="clipPath533">
      <path
         style="fill:#020204"
         id="path535"
         d="m 386.1875,285.32775 c -0.40516,-1.10369 -1.11845,-2.08156 -1.9907,-2.86987 -0.87226,-0.78832 -1.90049,-1.39229 -2.98278,-1.85155 -2.16459,-0.91852 -4.52053,-1.26149 -6.83152,-1.69556 -2.17919,-0.40931 -4.34179,-0.90631 -6.52782,-1.27734 -2.27136,-0.38551 -4.6179,-0.63213 -6.8653,-0.1253 -1.96583,0.44333 -3.7845,1.45879 -5.27172,2.81864 -1.48723,1.35984 -2.64911,3.0564 -3.48499,4.89007 -1.47218,3.22952 -1.93451,6.86503 -1.65394,10.40316 0.20881,2.63325 0.87532,5.34594 2.60877,7.33912 1.40065,1.61052 3.38733,2.61526 5.43398,3.22092 3.52502,1.04316 7.36663,0.98822 10.86038,-0.1553 5.76689,-1.93113 10.87568,-5.77387 14.33034,-10.77903 1.13861,-1.64963 2.11217,-3.44809 2.5532,-5.4034 0.33597,-1.48955 0.34831,-3.08112 -0.1779,-4.51456" />
    </clipPath>
    <clipPath
       clipPathUnits="userSpaceOnUse"
       id="clipPath538">
      <path
         d="m 386.1875,285.32775 c -0.40516,-1.10369 -1.11845,-2.08156 -1.9907,-2.86987 -0.87226,-0.78832 -1.90049,-1.39229 -2.98278,-1.85155 -2.16459,-0.91852 -4.52053,-1.26149 -6.83152,-1.69556 -2.17919,-0.40931 -4.34179,-0.90631 -6.52782,-1.27734 -2.27136,-0.38551 -4.6179,-0.63213 -6.8653,-0.1253 -1.96583,0.44333 -3.7845,1.45879 -5.27172,2.81864 -1.48723,1.35984 -2.64911,3.0564 -3.48499,4.89007 -1.47218,3.22952 -1.93451,6.86503 -1.65394,10.40316 0.20881,2.63325 0.87532,5.34594 2.60877,7.33912 1.40065,1.61052 3.38733,2.61526 5.43398,3.22092 3.52502,1.04316 7.36663,0.98822 10.86038,-0.1553 5.76689,-1.93113 10.87568,-5.77387 14.33034,-10.77903 1.13861,-1.64963 2.11217,-3.44809 2.5532,-5.4034 0.33597,-1.48955 0.34831,-3.08112 -0.1779,-4.51456"
         id="path540"
         style="fill:#020204" />
    </clipPath>
    <clipPath
       clipPathUnits="userSpaceOnUse"
       id="clipPath622">
      <path
         style="fill:url(#radialGradient626)"
         d="m 85.75,122.36218 c -2.78042,1.91023 -5.11057,4.57487 -6.25,7.75 -1.43603,4.00163 -0.88584,8.48071 0.5,12.5 1.41949,4.11688 3.79379,8.04098 7.37932,10.51234 1.79277,1.23567 3.86809,2.08301 6.0304,2.33859 2.16231,0.25558 4.40928,-0.0949 6.34028,-1.10093 2.35312,-1.22596 4.14782,-3.37278 5.26217,-5.78076 1.11436,-2.40798 1.5888,-5.0701 1.73783,-7.71924 0.18989,-3.37546 -0.14047,-6.80646 -1.25,-10 -1.20527,-3.46909 -3.39005,-6.67055 -6.47275,-8.6666 -1.54136,-0.99803 -3.29195,-1.68356 -5.11089,-1.93515 -1.81893,-0.25158 -3.70476,-0.0633 -5.41636,0.60175 -0.97547,0.37901 -1.88744,0.9074 -2.75,1.5"
         id="path624" />
    </clipPath>
    <radialGradient
       xlink:href="#linearGradient28799-3"
       id="radialGradient626"
       gradientUnits="userSpaceOnUse"
       gradientTransform="matrix(1.0857794,-0.03431182,0.03943781,1.2479887,-15.5421,-75.904827)"
       cx="223.19559"
       cy="137.66095"
       fx="223.19559"
       fy="137.66095"
       r="14.572236" />
    <clipPath
       clipPathUnits="userSpaceOnUse"
       id="clipPath631">
      <path
         style="fill:url(#radialGradient635)"
         d="m 54.23244,122.36218 c -1.78096,0.097 -3.48461,0.91899 -4.78785,2.1367 -1.30323,1.21771 -2.22137,2.81176 -2.78618,4.50357 -1.12962,3.38363 -0.87548,7.05177 -0.6187,10.60973 0.23251,3.22162 0.47041,6.50533 1.67679,9.50158 0.60319,1.49813 1.45024,2.91021 2.58034,4.06395 1.13009,1.15374 2.55173,2.04189 4.11829,2.43447 1.46884,0.36809 3.03816,0.29183 4.48279,-0.16209 1.44462,-0.45392 2.76391,-1.27887 3.84623,-2.33791 1.57904,-1.54507 2.64326,-3.5662 3.25345,-5.68947 0.61019,-2.12328 0.78416,-4.35155 0.7524,-6.56053 -0.0397,-2.76435 -0.40091,-5.53851 -1.26575,-8.16439 -0.86485,-2.62588 -2.24575,-5.10327 -4.1728,-7.08561 -0.93331,-0.96009 -1.99776,-1.80513 -3.19858,-2.39747 -1.20082,-0.59233 -2.54344,-0.92535 -3.88043,-0.85253"
         id="path633" />
    </clipPath>
    <radialGradient
       xlink:href="#linearGradient28799-3"
       id="radialGradient635"
       gradientUnits="userSpaceOnUse"
       gradientTransform="matrix(0.81524244,-0.03431182,0.02961133,1.2479887,9.5624,-75.904827)"
       cx="223.19559"
       cy="137.66095"
       fx="223.19559"
       fy="137.66095"
       r="14.572236" />
    <clipPath
       clipPathUnits="userSpaceOnUse"
       id="clipPath697">
      <path
         style="fill:url(#radialGradient701);stroke-width:0.77538"
         d="m 214.63605,148.03815 c -2.51029,-0.0409 -4.99135,0.28921 -7.27146,0.88384 -4.05254,1.05688 -7.57367,2.93934 -10.08468,5.39315 -1.62814,0.85539 -3.05003,1.89919 -4.20722,3.08639 -0.66186,0.67901 -1.24391,1.41694 -1.50131,2.24757 -0.20244,0.65333 -0.19857,1.34469 -0.28524,2.01986 -0.0324,0.25293 -0.0778,0.5073 -0.0362,0.76548 0.0208,0.12909 0.0631,0.25809 0.13756,0.38081 0.0221,0.0364 0.0528,0.0707 0.0806,0.1055 0.0825,0.15031 0.18297,0.29681 0.31473,0.43099 0.28806,0.29334 0.68023,0.53107 1.09417,0.73203 0.41394,0.20097 0.85255,0.36757 1.2815,0.54936 2.28006,0.96628 4.22773,2.32456 5.9925,3.75924 2.3677,1.92485 4.52941,4.06099 7.5099,5.46004 2.10465,0.98794 4.52773,1.552 6.92602,1.72396 2.81637,0.20193 5.58521,-0.12293 8.18167,-0.69344 2.40631,-0.52873 4.69673,-1.27132 6.75202,-2.25401 3.90702,-1.86802 6.98699,-4.60634 11.42445,-5.83442 0.96876,-0.2681 1.99041,-0.45921 2.91317,-0.78993 0.92276,-0.33072 1.76305,-0.8265 2.11948,-1.52711 0.34261,-0.67347 0.2049,-1.45031 0.23569,-2.18968 0.0329,-0.791 0.26357,-1.5559 0.33312,-2.34278 0.0695,-0.78687 -0.0382,-1.6289 -0.62199,-2.35178 -0.12955,-0.16043 -0.28324,-0.31001 -0.45163,-0.45157 -0.0509,-0.29235 -0.22134,-0.58029 -0.46622,-0.83239 -0.50487,-0.51975 -1.29334,-0.87172 -2.09515,-1.11671 -1.09824,-0.33555 -2.25599,-0.50211 -3.39891,-0.69601 -3.51093,-0.59565 -6.96955,-1.47539 -10.29467,-2.60394 -1.65302,-0.56104 -3.27073,-1.18327 -4.90416,-1.77928 -1.67927,-0.61273 -3.38672,-1.20103 -5.16515,-1.57729 -1.49109,-0.31546 -3.00643,-0.47332 -4.51259,-0.49788 z"
         id="path699" />
    </clipPath>
    <radialGradient
       xlink:href="#linearGradient28469-0"
       id="radialGradient701"
       gradientUnits="userSpaceOnUse"
       gradientTransform="matrix(0.81494503,-0.25452614,0.31491054,0.43302392,-75.371375,150.73818)"
       cx="294.48483"
       cy="193.09949"
       fx="294.48483"
       fy="193.09949"
       r="31.111488" />
    <clipPath
       clipPathUnits="userSpaceOnUse"
       id="clipPath816">
      <path
         style="fill:#fdfdfb"
         d="m -26.29567,154.81433 c -1.0464,1.31136 -1.72773,2.88726 -2.13927,4.51369 -0.41153,1.62642 -0.56228,3.30801 -0.62653,4.98446 -0.12849,3.35291 0.0765,6.77015 -0.81096,10.00604 -0.94874,3.4595 -3.07595,6.45649 -5.15761,9.37795 -3.60485,5.05916 -7.248548,10.25011 -9.027058,16.20217 -1.077103,3.60469 -1.435613,7.42255 -1.04841,11.16474 -4.035298,5.9262 -7.528852,12.22112 -10.4229,18.78069 -4.386197,9.94163 -7.396115,20.5265 -8.454552,31.34105 -1.296051,13.24236 0.397579,26.86184 5.627472,39.09655 3.781309,8.84592 9.417708,16.94379 16.68566,23.2466 3.695408,3.20468 7.799668,5.93944 12.189498,8.09709 15.21252,7.47713 34.01348,7.49101 48.97296,-0.48031 7.81838,-4.16611 14.41789,-10.2582 20.78084,-16.42232 3.83183,-3.71209 7.64353,-7.51249 10.56653,-11.97551 5.62746,-8.59236 7.58747,-19.03566 8.80544,-29.23436 2.12971,-17.83321 2.1984,-36.66998 -5.62137,-52.83816 -2.69219,-5.56638 -6.27896,-10.69891 -10.58065,-15.14052 -1.14547,-7.78087 -3.40638,-15.39666 -6.69212,-22.54215 -2.37045,-5.15502 -5.2683,-10.06187 -7.47079,-15.29085 -0.90422,-2.14672 -1.68995,-4.34486 -2.69346,-6.44699 -1.00352,-2.10213 -2.24145,-4.12498 -3.92446,-5.73541 -1.72343,-1.6491 -3.87096,-2.81824 -6.13593,-3.56631 -2.26498,-0.74806 -4.64917,-1.08697 -7.03147,-1.2068 -4.7646,-0.23966 -9.53872,0.38348 -14.30559,0.19423 -3.79476,-0.15066 -7.57776,-0.81566 -11.36892,-0.59186 -1.89557,0.1119 -3.79087,0.45058 -5.55026,1.1649 -1.7594,0.71432 -3.38173,1.81713 -4.56609,3.30139"
         id="path818" />
    </clipPath>
    <clipPath
       clipPathUnits="userSpaceOnUse"
       id="clipPath820">
      <path
         id="path822"
         d="m -47.29567,161.44377 c -1.0464,1.42368 -1.72773,3.13456 -2.13927,4.9003 -0.41153,1.76572 -0.56228,3.59134 -0.62653,5.41138 -0.12849,3.64009 0.0765,7.35002 -0.81096,10.86307 -0.94874,3.75581 -3.07595,7.0095 -5.15761,10.18119 -3.60485,5.49248 -7.248548,11.12804 -9.027058,17.58991 -1.077103,3.91343 -1.435613,8.0583 -1.04841,12.12101 -4.035298,6.43379 -7.528852,13.26788 -10.4229,20.38928 -4.386197,10.79315 -7.396115,22.28463 -8.454552,34.02546 -1.296051,14.37658 0.397579,29.16259 5.627472,42.44522 3.781309,9.60359 9.417708,18.39505 16.68566,25.23771 3.695408,3.47916 7.799668,6.44816 12.189498,8.79061 15.21252,8.11756 34.01348,8.13263 48.97296,-0.52145 7.81838,-4.52294 14.41789,-11.13683 20.78084,-17.82891 3.83183,-4.03004 7.64353,-8.15595 10.56653,-13.00123 5.62746,-9.32831 7.58747,-20.66609 8.80544,-31.73832 2.12971,-19.36065 2.1984,-39.81082 -5.62137,-57.36383 -2.69219,-6.04314 -6.27896,-11.61528 -10.58065,-16.43732 -1.14547,-8.44732 -3.40638,-16.71541 -6.69212,-24.47292 -2.37045,-5.59655 -5.2683,-10.92368 -7.47079,-16.60053 -0.90422,-2.33059 -1.68995,-4.71701 -2.69346,-6.99919 -1.00352,-2.28218 -2.24145,-4.47829 -3.92446,-6.22665 -1.72343,-1.79035 -3.87096,-3.05963 -6.13593,-3.87177 -2.26498,-0.81213 -4.64917,-1.18007 -7.03147,-1.31016 -4.7646,-0.26019 -9.53872,0.41632 -14.30559,0.21086 -3.79476,-0.16356 -7.57776,-0.88552 -11.36892,-0.64255 -1.89557,0.12148 -3.79087,0.48917 -5.55026,1.26467 -1.7594,0.77551 -3.38173,1.97277 -4.56609,3.58416"
         style="fill:#fdfdfb;stroke-width:1.04195" />
    </clipPath>
  </defs>
  <g
     id="g463"
     transform="matrix(0.26930002,0,0,0.26930002,10.425145,4.7281587)">
    <path
       id="path28712-2"
       style="fill:#2a7fff"
       d="M 123.82422,0.00390625 C 116.65627,-0.07404375 109.4002,1.3785519 103.08984,4.7792969 96.383222,8.3936049 90.888956,14.174782 87.503906,21 c -3.38347,6.822028 -4.712923,14.108152 -4.914062,22.132812 -0.382163,15.246841 0.343925,31.238716 1.49414,45.730469 0.3054,4.41258 0.853689,6.994986 0.292969,11.523439 -1.88652,9.62986 -10.313208,16.11178 -14.804687,24.57031 -4.954704,9.33089 -7.043404,19.88101 -10.783204,29.76172 -3.422488,9.04236 -8.227578,17.52067 -11.470703,26.62891 -4.534864,12.73604 -5.890503,26.73088 -2.894531,39.91406 2.283855,10.04965 7.054597,19.47291 13.484375,27.5332 -0.930503,1.67688 -1.832234,3.3716 -2.792969,5.03125 -2.979452,5.14693 -6.619556,10.02667 -8.316406,15.72656 -0.848425,2.84995 -1.182417,5.88981 -0.634766,8.8125 0.547652,2.92268 2.026511,5.71858 4.351563,7.57227 1.522028,1.21346 3.357446,1.99485 5.253906,2.43359 1.896461,0.43879 3.856625,0.54531 5.802735,0.50391 7.394587,-0.15718 14.559024,-2.40522 21.71289,-4.2832 4.23946,-1.11291 8.510365,-2.10104 12.802735,-2.98828 15.240549,-3.12209 32.250309,-1.87592 46.398439,0.17578 4.79197,0.72368 9.5498,1.67102 14.25976,2.8125 7.37714,1.78788 14.72879,4.06701 22.31641,4.2832 1.99729,0.0569 4.0106,-0.0306 5.96094,-0.46484 1.95034,-0.43429 3.8421,-1.22688 5.40429,-2.47266 2.32922,-1.85746 3.80835,-4.65745 4.35547,-7.58594 0.54713,-2.9285 0.20917,-5.97702 -0.64843,-8.83008 -1.71521,-5.70613 -5.38873,-10.5749 -8.43555,-15.69531 -1.20215,-2.0203 -2.32023,-4.0926 -3.51367,-6.11719 9.16873,-10.29563 16.54824,-22.20278 20.8164,-35.28125 4.65874,-14.27524 5.51426,-29.64566 3.55274,-44.5332 -1.96148,-14.88754 -6.68214,-29.32114 -12.89844,-42.99023 -7.79769,-17.13839 -14.35279,-23.331 -19.10352,-38.380862 -5.13471,-16.266273 -0.89479,-35.514209 -4.71093,-50.267579 -1.3618,-5.0173 -3.53278,-9.806811 -6.32618,-14.191406 C 160.24257,16.926979 156.09106,12.322046 151.1582,8.7480469 143.28754,3.0455199 133.54301,0.10959225 123.82422,0.00390625 Z M 135.55469,42.216797 c 0.45933,0.0073 0.91831,0.04257 1.37304,0.105469 1.81894,0.25159 3.56998,0.937517 5.11133,1.935546 3.08271,1.99605 5.26739,5.198879 6.47266,8.667969 1.10953,3.19354 1.43989,6.62454 1.25,10 -0.14903,2.64914 -0.62393,5.31077 -1.73828,7.71875 -1.11436,2.40798 -2.90861,4.55529 -5.26172,5.78125 -1.93101,1.00603 -4.17753,1.35519 -6.33984,1.09961 -2.16232,-0.25558 -4.23849,-1.102221 -6.03126,-2.337891 -3.58553,-2.47136 -5.95941,-6.394839 -7.3789,-10.511719 -1.38584,-4.01929 -1.93603,-8.49837 -0.5,-12.5 1.13943,-3.17513 3.46957,-5.83977 6.25,-7.75 0.86256,-0.5926 1.77453,-1.12099 2.75,-1.5 1.2837,-0.498787 2.66498,-0.730991 4.04297,-0.708984 z m -37.808596,2.199219 c 1.169078,0.02306 2.328186,0.343039 3.378906,0.861328 1.20082,0.59234 2.26591,1.438347 3.19922,2.398437 1.92705,1.98234 3.30703,4.458105 4.17187,7.083985 0.86485,2.62588 1.22589,5.401665 1.26563,8.166015 0.0318,2.20898 -0.14177,4.437267 -0.75195,6.560547 -0.61019,2.12327 -1.67487,4.144383 -3.25391,5.689453 -1.08232,1.05904 -2.40108,1.883971 -3.8457,2.337891 -1.44463,0.45392 -3.013588,0.530199 -4.482426,0.162109 -1.566561,-0.39258 -2.989048,-1.281807 -4.11914,-2.435547 -1.130092,-1.15374 -1.976888,-2.566323 -2.580078,-4.064453 -1.206381,-2.99625 -1.445225,-6.27838 -1.677735,-9.5 -0.256783,-3.55796 -0.510477,-7.227698 0.619141,-10.611328 0.564809,-1.69181 1.483874,-3.284243 2.787109,-4.501953 1.303236,-1.21771 3.006144,-2.039719 4.78711,-2.136719 0.167123,-0.0091 0.334942,-0.01306 0.501953,-0.0098 z m 10.927736,36.970703 c 2.84124,0.09968 5.68127,0.502239 8.52734,0.615234 4.76687,0.18925 9.54204,-0.433019 14.30664,-0.193359 2.3823,0.11983 4.76627,0.458971 7.03125,1.207031 2.26497,0.74807 4.41134,1.917306 6.13477,3.566406 1.68301,1.61043 2.92226,3.632245 3.92578,5.734375 1.00351,2.10213 1.78914,4.300546 2.69336,6.447266 2.20249,5.228978 5.10025,10.135998 7.4707,15.291018 3.28574,7.14549 5.54594,14.7621 6.69141,22.54297 4.30169,4.44161 7.88789,9.57424 10.58008,15.14062 7.81977,16.16818 7.75275,35.00468 5.62304,52.83789 -1.21797,10.1987 -3.17918,20.64202 -8.80664,29.23438 -2.923,4.46302 -6.73457,8.26252 -10.5664,11.97461 -6.36295,6.16412 -12.96287,12.25576 -20.78125,16.42187 -14.95948,7.97132 -33.76014,7.9576 -48.97266,0.48047 -4.38983,-2.15765 -8.494045,-4.89102 -12.189453,-8.0957 -7.267952,-6.30281 -12.904238,-14.40213 -16.685547,-23.24805 -5.229893,-12.23471 -6.923004,-25.85334 -5.626953,-39.0957 1.058437,-10.81455 4.068881,-21.40017 8.455078,-31.3418 2.894048,-6.55957 6.386577,-12.8531 10.421875,-18.7793 -0.387203,-3.74219 -0.02827,-7.56132 1.048828,-11.16601 1.77851,-5.95206 5.422494,-11.14201 9.027344,-16.20117 2.08166,-2.92146 4.20751,-5.91941 5.15625,-9.37891 0.88746,-3.23589 0.68401,-6.65295 0.8125,-10.00586 0.06425,-1.67645 0.21347,-3.357955 0.625,-4.984375 0.41154,-1.62643 1.094225,-3.202312 2.140625,-4.513672 1.18436,-1.48426 2.807006,-2.586461 4.566403,-3.300781 1.75939,-0.71432 3.65326,-1.054116 5.54883,-1.166016 0.94779,-0.05595 1.89472,-0.05666 2.8418,-0.02344 z"
       transform="translate(16.987948,19.575154)" />
  </g>
  <g
     id="g481"
     transform="matrix(0.26930002,0,0,0.26930002,10.425145,4.7281587)"
     style="fill:#2a7fff">
    <path
       transform="translate(160,-57.362183)"
       d="m 45.10134,224.44951 c 6.084796,4.89463 9.945575,12.28597 11.14096,20.00305 0.932288,6.01859 0.326343,12.19496 -1.030694,18.13223 -1.357038,5.93726 -3.452212,11.67615 -5.531716,17.40051 -0.829244,2.2827 -1.662186,4.5871 -1.991686,6.9933 -0.3295,2.40621 -0.120849,4.95426 1.039536,7.08777 1.330223,2.44578 3.812954,4.13021 6.48184,4.92292 2.634941,0.78263 5.481042,0.76618 8.148186,0.10153 2.667145,-0.66466 7.157372,-1.52591 9.328374,-3.21179 5.515551,-4.28306 6.82474,-11.71935 8.13188,-18.24961 1.363195,-6.8103 0.69637,-13.95038 -0.50149,-20.83014 -1.63342,-9.38136 -4.38172,-18.55105 -7.87991,-27.40773 -2.573144,-6.51466 -5.8695,-12.74244 -9.79135,-18.52016 -3.847635,-5.66839 -9.306853,-10.09303 -13.34018,-15.63502 -1.401311,-1.92547 -3.086675,-3.93159 -4.463417,-5.87845 -2.968456,-4.19771 -2.296208,-3.41451 -4.137707,-6.13155 -1.336068,-1.9713 -3.445653,-2.6487 -5.665474,-3.51096 -2.219821,-0.86226 -4.71266,-1.11623 -7.005012,-0.47108 -3.021449,0.85034 -5.489775,3.23113 -6.802912,6.08208 -1.313136,2.85095 -1.54284,6.12313 -1.031948,9.2201 0.659095,3.99536 2.486278,7.70258 4.54639,11.18873 2.326679,3.93724 5.021993,7.72707 8.53596,10.65407 3.667149,3.05459 8.101532,5.06875 11.82037,8.0602"
       id="path29705-5-0"
       style="fill:#2a7fff" />
    <path
       transform="translate(160,-57.362183)"
       style="fill:#2a7fff"
       d="m -69.527091,194.03592 c -7.073089,8.03686 -14.352222,15.81627 -18.345769,24.50506 -1.976249,4.41329 -2.910774,9.20725 -4.26498,13.84932 -1.537901,5.27176 -3.626089,10.3703 -5.97071,15.33612 -2.16496,4.58531 -4.54982,9.06291 -6.93891,13.53553 -1.7382,3.25409 -3.50514,6.58104 -4.10782,10.22071 -0.47628,2.87632 -0.1985,5.84423 0.53375,8.66626 0.73225,2.82202 1.90965,5.5106 3.23776,8.10601 5.667249,11.07504 14.170032,20.62168 24.24176,27.92472 4.570626,3.31418 9.466691,6.18109 14.60245,8.52595 2.782468,1.27041 5.713552,2.40436 8.771859,2.45744 1.529154,0.0265 3.074104,-0.22544 4.47434,-0.84055 1.400236,-0.6151 2.650677,-1.60373 3.482541,-2.88709 1.022778,-1.5779 1.369917,-3.53829 1.164614,-5.40743 -0.205303,-1.86914 -0.934843,-3.65294 -1.913244,-5.25873 -2.389971,-3.92251 -6.165196,-6.76055 -9.79642,-9.57343 -7.840549,-6.07358 -15.424654,-12.48039 -22.68212,-19.23996 -2.049117,-1.90854 -4.098407,-3.87759 -5.53019,-6.28412 -1.394295,-2.34352 -2.147602,-5.01376 -2.65783,-7.69253 -1.399719,-7.34873 -1.040921,-15.08286 1.45958,-22.13343 0.978222,-2.75826 2.271183,-5.39201 3.51815,-8.03965 2.161326,-4.58906 4.207248,-9.26564 7.04933,-13.46723 3.537978,-5.23037 8.267489,-9.66049 11.15147,-15.27803 2.434229,-4.74149 3.419942,-10.07236 4.36185,-15.31831 0.736933,-4.10434 2.150416,-8.12437 2.869234,-12.23193 -1.406111,2.66567 -5.937961,7.04283 -8.710695,10.5253 z"
       id="path14967-1-0" />
  </g>
  <g
     id="g457"
     transform="matrix(0.26930002,0,0,0.26930002,10.425145,4.7281587)"
     style="fill:#2a7fff">
    <g
       id="g444"
       style="fill:#2a7fff">
      <path
         clip-path="none"
         id="path14296-0"
         d="m 263.18967,278.25167 c -2.6238,3.11482 -6.268,5.17039 -9.89648,7.01985 -6.1886,3.15437 -12.60169,5.92177 -18.41964,9.71654 -3.89802,2.54249 -7.4959,5.52671 -10.86016,8.74238 -2.87719,2.75012 -5.60582,5.68745 -8.83247,8.01771 -3.25567,2.35122 -7.01915,4.05426 -10.99061,4.6502 -4.83026,0.72481 -9.82134,-0.21289 -14.29898,-2.16416 -3.13754,-1.36728 -6.15569,-3.3229 -7.96301,-6.22931 -1.81425,-2.91754 -2.22807,-6.48813 -2.23266,-9.92375 -0.008,-6.07666 1.11824,-12.09004 2.17848,-18.07349 0.88097,-4.97177 1.71949,-9.95483 2.26013,-14.97502 0.98337,-9.13118 0.9763,-18.35278 0.3199,-27.51327 -0.10993,-1.53416 -0.23754,-3.0832 -0.008,-4.60412 0.22922,-1.52092 0.85475,-3.0367 2.02069,-4.03986 1.07696,-0.9266 2.52093,-1.33598 3.93947,-1.4145 1.41854,-0.0785 2.83404,0.14655 4.23982,0.35197 3.31254,0.48405 6.65159,0.8649 9.88917,1.71656 2.04284,0.53738 4.03315,1.25925 6.0722,1.81081 3.40258,0.92039 6.96639,1.36144 10.46739,0.95192 3.76917,-0.44089 7.42987,-1.85678 11.22363,-1.76474 1.55658,0.0378 3.1015,0.33171 4.58649,0.79985 1.51539,0.47772 3.00914,1.16182 4.12281,2.29512 0.84639,0.8613 1.43579,1.94539 1.87872,3.06879 0.65982,1.67352 1.01492,3.457 1.16703,5.24945 0.13475,1.58788 0.11343,3.19441 0.41433,4.75933 0.49503,2.57458 1.84746,4.92305 3.52848,6.93494 1.68102,2.01189 3.68982,3.72048 5.69641,5.40783 1.99908,1.68103 4.0106,3.35469 6.16708,4.82839 1.0121,0.69165 2.05642,1.33949 3.01736,2.10062 0.96094,0.76113 1.84466,1.6468 2.44543,2.71535 0.81492,1.44944 1.06377,3.2077 0.53758,4.87655 -0.5262,1.66885 -1.48162,3.27659 -2.67059,4.68806 z"
         style="fill:#2a7fff" />
    </g>
    <g
       id="g411"
       style="fill:#2a7fff">
      <path
         style="fill:#2a7fff"
         d="m 57.57688,222.65692 c 1.59929,-0.66295 3.3982,-0.78361 5.10074,-0.46963 1.70253,0.31398 3.31141,1.04948 4.74342,2.02239 2.86402,1.94583 4.98821,4.77774 7.02263,7.57952 4.67189,6.43406 9.16868,13.00227 13.24488,19.8293 3.30635,5.53766 6.34352,11.25685 10.16415,16.45304 2.49398,3.3919 5.3066,6.53947 7.813,9.92221 2.50639,3.38273 4.72794,7.05586 5.83931,11.11662 1.44411,5.27653 0.88463,11.09291 -1.62666,15.95302 -1.76663,3.41896 -4.47646,6.35228 -7.77242,8.33898 -3.29595,1.9867 -7.17064,3.01444 -11.01635,2.87021 -6.11413,-0.2293 -11.69944,-3.28515 -17.38362,-5.54906 -11.58097,-4.6125 -24.15978,-6.0594 -36.09666,-9.65174 -3.66859,-1.10404 -7.27582,-2.4107 -10.96988,-3.42629 -1.64125,-0.45122 -3.30866,-0.8482 -4.85875,-1.55144 -1.55008,-0.70325 -2.999548,-1.7491 -3.86171,-3.21675 -0.666391,-1.13439 -0.948386,-2.47002 -0.930187,-3.78554 0.0182,-1.31552 0.325889,-2.61453 0.773815,-3.85158 0.895851,-2.47409 2.343262,-4.71374 3.320162,-7.15696 1.59511,-3.98935 1.88169,-8.38839 1.66657,-12.67942 -0.21511,-4.29103 -0.91078,-8.54478 -1.20454,-12.83115 -0.13118,-1.91406 -0.18066,-3.85256 0.18479,-5.73598 0.36545,-1.88343 1.17577,-3.72459 2.55771,-5.05541 1.27406,-1.22693 2.96492,-1.95531 4.69643,-2.31651 1.73151,-0.3612 3.51533,-0.37747 5.28367,-0.33762 1.76833,0.0399 3.54067,0.13425 5.30351,-0.0106 1.76284,-0.14488 3.53347,-0.54055 5.06911,-1.41828 1.45996,-0.83447 2.65433,-2.0745 3.64374,-3.43424 0.9894,-1.35974 1.78909,-2.84573 2.60891,-4.31396 0.81983,-1.46823 1.66834,-2.93151 2.74157,-4.22611 1.07324,-1.2946 2.38923,-2.42304 3.94266,-3.06698"
         id="path4635-1" />
    </g>
  </g>
  <g
     id="g545"
     transform="matrix(0.26930002,0,0,0.26930002,10.425145,4.7281587)"
     style="fill:#2a7fff">
    <path
       d="m 76.1875,285.32775 c -0.405158,-1.10369 -1.118445,-2.08156 -1.990705,-2.86987 -0.872259,-0.78832 -1.900482,-1.39229 -2.982775,-1.85155 -2.164587,-0.91852 -4.520525,-1.26149 -6.83152,-1.69556 -2.179187,-0.40931 -4.34179,-0.90631 -6.52782,-1.27734 -2.27136,-0.38551 -4.617897,-0.63213 -6.8653,-0.1253 -1.965827,0.44333 -3.784499,1.45879 -5.271724,2.81864 -1.487225,1.35984 -2.649109,3.0564 -3.484986,4.89007 -1.472176,3.22952 -1.934512,6.86503 -1.65394,10.40316 0.208815,2.63325 0.875323,5.34594 2.60877,7.33912 1.400654,1.61052 3.387329,2.61526 5.43398,3.22092 3.525017,1.04316 7.366632,0.98822 10.86038,-0.1553 5.766894,-1.93113 10.875681,-5.77387 14.33034,-10.77903 1.138609,-1.64963 2.112174,-3.44809 2.5532,-5.4034 0.335973,-1.48955 0.348308,-3.08112 -0.1779,-4.51456"
       id="path29714-5-4"
       style="fill:#2a7fff"
       transform="translate(159.99984,-58.362183)" />
    <path
       style="fill:#2a7fff;filter:url(#filter14812-5)"
       d="m 362.21875,276.45593 c -0.54933,0.0306 -1.08144,0.0909 -1.625,0.1875 -3.46951,0.61686 -6.64705,2.80857 -8.4375,5.84375 -1.26396,2.14267 -1.83985,4.67634 -1.65625,7.15625 0.0732,-1.74163 0.52946,-3.44685 1.375,-4.96875 1.43442,-2.58185 4.03238,-4.52979 6.9375,-5.0625 1.78976,-0.32819 3.63182,-0.13095 5.4375,0.0937 1.73256,0.2156 3.48115,0.44287 5.1875,0.8125 2.64101,0.57209 5.25428,1.45135 7.46875,3 0.51646,0.36118 0.99955,0.76857 1.40625,1.25 0.40669,0.48143 0.72188,1.03792 0.84375,1.65625 0.17824,0.90428 -0.0794,1.85295 -0.53125,2.65625 -0.45189,0.8033 -1.06491,1.50665 -1.71875,2.15625 -0.52923,0.5258 -1.09482,1.03417 -1.65625,1.53125 2.559,-0.49571 5.15199,-1.19766 7.28125,-2.6875 0.89975,-0.62955 1.71523,-1.38464 2.25,-2.34375 0.53477,-0.95912 0.76245,-2.1212 0.5,-3.1875 -0.17714,-0.71971 -0.57137,-1.3824 -1.0625,-1.9375 -0.49114,-0.55511 -1.0805,-1.01217 -1.6875,-1.4375 -2.67877,-1.87701 -5.81493,-3.07854 -9.0625,-3.46875 -2.08149,-0.38286 -4.18122,-0.70597 -6.28125,-0.96875 -1.64344,-0.20564 -3.32077,-0.37313 -4.96875,-0.28125 z"
       id="path29714-3-9-9"
       clip-path="url(#clipPath533)"
       transform="translate(-150.00016,-58.362183)" />
    <path
       style="fill:#2a7fff;filter:url(#filter14812-0-9)"
       d="m 362.21875,276.45593 c -0.54933,0.0306 -1.08144,0.0909 -1.625,0.1875 -3.46951,0.61686 -6.64705,2.80857 -8.4375,5.84375 -1.26396,2.14267 -1.83985,4.67634 -1.65625,7.15625 0.0732,-1.74163 0.52946,-3.44685 1.375,-4.96875 1.43442,-2.58185 4.03238,-4.52979 6.9375,-5.0625 1.78976,-0.32819 3.63182,-0.13095 5.4375,0.0937 1.73256,0.2156 3.48115,0.44287 5.1875,0.8125 2.64101,0.57209 5.25428,1.45135 7.46875,3 0.51646,0.36118 0.99955,0.76857 1.40625,1.25 0.40669,0.48143 0.72188,1.03792 0.84375,1.65625 0.17824,0.90428 -0.0794,1.85295 -0.53125,2.65625 -0.45189,0.8033 -1.06491,1.50665 -1.71875,2.15625 -0.52923,0.5258 -1.09482,1.03417 -1.65625,1.53125 2.559,-0.49571 5.15199,-1.19766 7.28125,-2.6875 0.89975,-0.62955 1.71523,-1.38464 2.25,-2.34375 0.53477,-0.95912 0.76245,-2.1212 0.5,-3.1875 -0.17714,-0.71971 -0.57137,-1.3824 -1.0625,-1.9375 -0.49114,-0.55511 -1.0805,-1.01217 -1.6875,-1.4375 -2.67877,-1.87701 -5.81493,-3.07854 -9.0625,-3.46875 -2.08149,-0.38286 -4.18122,-0.70597 -6.28125,-0.96875 -1.64344,-0.20564 -3.32077,-0.37313 -4.96875,-0.28125 z"
       id="path29714-3-9-3-8"
       clip-path="url(#clipPath538)"
       transform="translate(-150.00016,-58.36218)" />
  </g>
  <g
     id="g777"
     transform="matrix(0.26930002,0,0,0.26930002,10.425145,4.7281587)">
    <g
       id="g669">
      <g
         id="g643">
        <g
           id="g605">
          <path
             transform="translate(-50.00015,-58.362183)"
             style="fill:#2a7fff"
             id="path29453-9"
             d="m 159.93889,137.11161 c -0.37211,2.24574 -0.38563,4.60199 0.3864,6.74344 0.50979,1.41404 1.35041,2.69692 2.37218,3.79935 0.66903,0.72184 1.42824,1.37779 2.31576,1.80318 0.88752,0.42539 1.91578,0.60638 2.87035,0.36671 0.88113,-0.22123 1.65156,-0.78859 2.22013,-1.49715 0.56856,-0.70857 0.9476,-1.55295 1.2177,-2.42034 0.7974,-2.56075 0.66926,-5.36165 -0.12241,-7.92418 -0.5768,-1.86701 -1.53208,-3.66794 -3.02664,-4.9268 -0.71307,-0.60061 -1.54773,-1.07115 -2.45479,-1.28664 -0.90707,-0.2155 -1.88874,-0.16505 -2.73754,0.22063 -0.9423,0.42817 -1.67159,1.24304 -2.14907,2.16134 -0.47749,0.91829 -0.72288,1.93936 -0.89207,2.96046" />
        </g>
      </g>
      <g
         id="g652">
        <g
           id="g613">
          <path
             transform="translate(-150.00015,-58.362183)"
             style="fill:#2a7fff"
             id="path28879-6"
             d="m 302.16152,130.75695 c -1.04548,0.0749 -2.06437,0.4318 -2.95135,0.99028 -0.88699,0.55848 -1.64327,1.31521 -2.23701,2.17899 -1.18748,1.72757 -1.70894,3.84675 -1.793,5.94139 -0.0631,1.5723 0.11098,3.16512 0.63245,4.64977 0.52147,1.48465 1.40089,2.85877 2.61276,3.86251 1.24011,1.02713 2.81647,1.64364 4.42485,1.72094 1.60838,0.0773 3.23948,-0.38665 4.56105,-1.3066 1.05288,-0.73292 1.9021,-1.74168 2.50666,-2.87315 0.60455,-1.13148 0.96879,-2.38348 1.1353,-3.65549 0.29411,-2.24678 -0.0385,-4.59295 -1.07692,-6.60695 -1.03841,-2.01401 -2.80051,-3.67269 -4.92674,-4.45606 -0.92093,-0.3393 -1.90911,-0.51576 -2.88805,-0.44563" />
        </g>
      </g>
    </g>
    <g
       id="g735"
       style="fill:#2a7fff">
      <path
         transform="translate(138.99984,-49.362181)"
         style="fill:#2a7fff"
         d="m -16.39938,136.86218 c 1.767366,-1.98662 2.976192,-4.41053 4.674142,-6.45679 0.848975,-1.02314 1.8284211,-1.95533 2.9816817,-2.61681 1.1532606,-0.66147 2.4919769,-1.0411 3.8165164,-0.9264 1.4744902,0.12769 2.8545436,0.86228 3.93407466,1.87472 1.07953103,1.01244 1.8797683,2.29027 2.51864534,3.62528 0.6117397,1.27831 1.0977635,2.64027 1.97912,3.75 0.940326,1.18398 2.2595274,1.99218 3.4510909,2.92288 0.5957818,0.46535 1.167477,0.96911 1.6383978,1.5605 0.4709209,0.59139 0.8396117,1.27595 0.9909913,2.01662 0.1537234,0.75214 0.077153,1.54506 -0.1851792,2.26653 -0.2623326,0.72148 -0.7066964,1.37174 -1.2596263,1.90429 -1.1058598,1.0651 -2.6135811,1.63957 -4.1338116,1.85466 -3.04046123,0.43016 -6.1146629,-0.47583 -9.1842429,-0.39142 -3.1068902,0.0854 -6.1415551,1.18366 -9.2475441,1.07007 -1.552994,-0.0568 -3.128063,-0.43624 -4.404252,-1.32301 -0.638094,-0.44339 -1.194008,-1.01055 -1.595831,-1.6756 -0.401824,-0.66505 -0.646688,-1.42894 -0.672863,-2.20552 -0.02497,-0.74092 0.148043,-1.48088 0.444075,-2.16055 0.296033,-0.67967 0.712681,-1.30175 1.182123,-1.87552 0.938883,-1.14753 2.086993,-2.10617 3.072492,-3.21393"
         id="path28849-2" />
      <g
         id="g712"
         style="fill:#2a7fff">
        <path
           d="m 45.751683,165.03156 c 0.06146,0.29539 0.172509,0.58039 0.32709,0.8395 0.265683,0.44533 0.653935,0.80631 1.073256,1.1114 0.419321,0.30509 0.872799,0.55947 1.311827,0.83545 2.333646,1.46695 4.235362,3.52905 5.924734,5.70709 2.266543,2.92217 4.271913,6.16491 7.29931,8.28886 2.137781,1.49982 4.695713,2.35501 7.29406,2.61606 3.051317,0.30656 6.139876,-0.18595 9.08171,-1.05205 2.726384,-0.80267 5.363099,-1.92956 7.78216,-3.4214 4.598507,-2.83591 8.439249,-6.99271 13.51002,-8.85709 1.10702,-0.40702 2.25922,-0.69819 3.3265,-1.20026 1.06727,-0.50207 2.07136,-1.25403 2.5811,-2.31766 0.48998,-1.02241 0.47097,-2.20249 0.63053,-3.32496 0.1707,-1.20084 0.55374,-2.36184 0.76385,-3.55642 0.2101,-1.19458 0.23517,-2.47233 -0.28138,-3.56975 -0.42775,-0.90878 -1.20535,-1.62786 -2.09983,-2.08475 -0.89448,-0.4569 -1.90108,-0.66447 -2.90429,-0.71372 -2.006415,-0.0985 -3.987581,0.41519 -5.98809,0.59785 -2.649534,0.24193 -5.317874,-0.0982 -7.97725,-0.019 -3.308296,0.0986 -6.568402,0.84468 -9.87428,1.00503 -3.771518,0.18294 -7.534685,-0.39851 -11.30754,-0.55139 -1.634066,-0.0662 -3.279962,-0.0512 -4.891819,0.22531 -1.611857,0.27654 -3.195234,0.82363 -4.541001,1.75286 -1.311442,0.90553 -2.355916,2.14022 -3.560189,3.18405 -0.602137,0.52192 -1.249488,0.99929 -1.966273,1.3474 -0.716785,0.34812 -1.50749,0.564 -2.304158,0.54708 -0.409601,-0.009 -0.830861,-0.0769 -1.2213,0.0472 -0.243915,0.0775 -0.460478,0.22705 -0.643532,0.40593 -0.183054,0.17888 -0.334787,0.38705 -0.477798,0.59931 -0.332537,0.49356 -0.623066,1.01541 -0.867417,1.55807"
           id="path28461-2"
           style="fill:#2a7fff"
           transform="translate(59.99984,-58.362183)" />
        <path
           d="m 60.55673,169.09742 c -0.386462,1.59605 -0.151992,3.33408 0.64359,4.77067 0.795582,1.43659 2.144391,2.5575 3.70231,3.07676 1.977755,0.65919 4.206575,0.33635 6.05477,-0.62813 1.071362,-0.55909 2.051171,-1.34588 2.669379,-2.38425 0.309105,-0.51918 0.523981,-1.09707 0.604518,-1.69591 0.08054,-0.59884 0.02471,-1.2185 -0.184887,-1.78522 -0.229715,-0.62112 -0.640261,-1.16849 -1.146053,-1.59596 -0.505791,-0.42748 -1.104668,-0.7378 -1.733436,-0.94568 -1.257537,-0.41575 -2.610936,-0.42405 -3.933891,-0.36051 -2.005209,0.0963 -4.002918,0.34837 -5.9692,0.75318"
           id="path28487-2"
           style="fill:#2a7fff;filter:url(#filter28502-8)"
           transform="translate(59.99984,-58.362183)" />
        <path
           id="path27476-7-8"
           d="m 54.0663,156.67992 c -1.338955,0.79147 -2.628584,1.66369 -3.8975,2.56317 -0.656705,0.46551 -1.334168,0.96895 -1.68056,1.69557 -0.245501,0.51498 -0.301768,1.09903 -0.309586,1.66948 -0.0078,0.57045 0.02884,1.14399 -0.04618,1.70954 -0.05124,0.38625 -0.154326,0.76619 -0.171537,1.15544 -0.0086,0.19463 0.0047,0.39145 0.05602,0.57938 0.05134,0.18793 0.141902,0.36704 0.275482,0.50885 0.172556,0.18318 0.407931,0.29591 0.64865,0.36931 0.240719,0.0734 0.490638,0.1112 0.73562,0.16878 1.174662,0.27611 2.196917,0.99676 3.094125,1.80366 0.897208,0.8069 1.702883,1.71487 2.638865,2.47645 2.537255,2.06449 5.890478,2.91872 9.161088,2.97254 3.27061,0.0538 6.504204,-0.63066 9.695302,-1.34946 2.506322,-0.56456 5.014978,-1.15472 7.42544,-2.04356 3.702752,-1.36537 7.140748,-3.43167 10.11819,-6.02193 1.349968,-1.17442 2.617219,-2.46364 4.13251,-3.41525 1.340926,-0.84211 2.842622,-1.39796 4.206331,-2.20265 0.12193,-0.072 0.24321,-0.14621 0.35213,-0.23665 0.10893,-0.0905 0.20574,-0.1981 0.26892,-0.3248 0.10917,-0.21894 0.10937,-0.48123 0.0389,-0.71552 -0.0704,-0.23429 -0.20633,-0.44389 -0.36,-0.63425 -0.16999,-0.21058 -0.36336,-0.40158 -0.568951,-0.57756 -1.424379,-1.21921 -3.356756,-1.66245 -5.22581,-1.81067 -1.869053,-0.14822 -3.760672,-0.0434 -5.60996,-0.35238 -1.738647,-0.29048 -3.393268,-0.93881 -5.07175,-1.4773 -1.761942,-0.56527 -3.562776,-1.01251 -5.38903,-1.31044 -4.294756,-0.70063 -8.71732,-0.56641 -12.97748,0.32063 -4.057685,0.84488 -7.971287,2.37056 -11.53927,4.47962"
           style="fill:#2a7fff;filter:url(#filter15145-6)"
           transform="translate(59.99984,-58.362183)" />
        <path
           id="path27476-4"
           d="m 53.63941,152.15408 c -1.929391,1.2986 -3.666135,2.88291 -5.13602,4.68523 -0.840698,1.03083 -1.603727,2.15084 -2.02709,3.41185 -0.332996,0.99185 -0.446478,2.04153 -0.65633,3.06652 -0.07861,0.38398 -0.171386,0.76923 -0.169741,1.16118 8.22e-4,0.19597 0.02568,0.39281 0.08646,0.57912 0.06079,0.18631 0.15831,0.36204 0.294069,0.50337 0.224679,0.23391 0.540409,0.36101 0.858102,0.42632 0.317692,0.0653 0.643798,0.0751 0.966058,0.11177 1.454637,0.16535 2.794463,0.87199 4.000333,1.70216 1.205869,0.83017 2.317112,1.79543 3.554437,2.57795 2.733893,1.72899 5.994554,2.49829 9.226902,2.62285 3.232347,0.12456 6.457354,-0.36641 9.629488,-0.99977 2.520903,-0.50334 5.033924,-1.10072 7.42544,-2.04356 3.662411,-1.44389 6.963507,-3.66693 10.11819,-6.02193 1.43301,-1.06976 2.84598,-2.17318 4.13251,-3.41525 0.43668,-0.42159 0.859162,-0.85947 1.327567,-1.24551 0.468404,-0.38603 0.988159,-0.72177 1.565973,-0.90766 0.880766,-0.28336 1.835622,-0.20203 2.748192,-0.0495 0.68732,0.11488 1.376,0.26902 2.07229,0.24128 0.34815,-0.0139 0.69661,-0.0742 1.02006,-0.2037 0.32345,-0.12954 0.62155,-0.33028 0.8433,-0.59903 0.29139,-0.35317 0.43996,-0.81445 0.4416,-1.2723 0.002,-0.45786 -0.1387,-0.91095 -0.37105,-1.30548 -0.4647,-0.78905 -1.26825,-1.32311 -2.10504,-1.69503 -1.14614,-0.50941 -2.3863,-0.76136 -3.605512,-1.05573 -3.745289,-0.90427 -7.384752,-2.24056 -10.83577,-3.95385 -1.715597,-0.85173 -3.383551,-1.79555 -5.07175,-2.70037 -1.735567,-0.93021 -3.504569,-1.82415 -5.38903,-2.39536 -4.21332,-1.27713 -8.818528,-0.85829 -12.97748,0.58609 -4.619909,1.60447 -8.797447,4.46312 -11.96616,8.18832 v 2e-5"
           style="fill:#2a7fff"
           transform="translate(59.99984,-58.362183)" />
        <g
           id="g681"
           style="fill:#2a7fff">
          <path
             style="opacity:0.8;fill:#2a7fff;filter:url(#filter15177-1)"
             d="m 135.25114,88.527667 c 0.23129,0.7424 1.42778,0.61935 2.11906,0.97542 0.60659,0.31244 1.09447,0.99723 1.77651,1.01692 0.65093,0.0188 1.66398,-0.22542 1.74866,-0.87109 0.11187,-0.85303 -1.13379,-1.39511 -1.93536,-1.70762 -1.03148,-0.40216 -2.35301,-0.6062 -3.3206,-0.0682 -0.22173,0.12328 -0.46373,0.41238 -0.38827,0.65458 z"
             id="path28396-7" />
          <path
             style="opacity:0.8;fill:#2a7fff;filter:url(#filter15173-0)"
             d="m 123.82694,88.107827 c -0.88816,-0.28854 -2.35748,1.27746 -1.87806,2.07886 0.13167,0.22009 0.53491,0.49916 0.80641,0.34992 0.40925,-0.22497 0.74404,-1.02958 1.18746,-1.34496 0.29608,-0.21058 0.22974,-0.97156 -0.11581,-1.08382 z"
             id="path28398-7" />
        </g>
        <path
           transform="matrix(1.0956223,0,-0.17017853,1.5181314,-76.24447,-140.47964)"
           style="fill:#2a7fff;filter:url(#filter28584-4)"
           d="m 245.90496,158.28406 a 2.608083,2.328125 0 0 1 -2.60809,2.32812 2.608083,2.328125 0 0 1 -2.60808,-2.32812 2.608083,2.328125 0 0 1 2.60808,-2.32813 2.608083,2.328125 0 0 1 2.60809,2.32813 z"
           id="path28570-8"
           clip-path="url(#clipPath697)" />
      </g>
    </g>
  </g>
  <metadata
     id="metadata18668">
    <rdf:RDF>
      <cc:Work
         rdf:about="">
        <dc:title>Tux</dc:title>
      </cc:Work>
    </rdf:RDF>
  </metadata>
</svg>
