<?xml version="1.0" encoding="UTF-8" standalone="no"?>
<svg
   xmlns:dc="http://purl.org/dc/elements/1.1/"
   xmlns:cc="http://creativecommons.org/ns#"
   xmlns:rdf="http://www.w3.org/1999/02/22-rdf-syntax-ns#"
   xmlns:svg="http://www.w3.org/2000/svg"
   xmlns="http://www.w3.org/2000/svg"
   xmlns:sodipodi="http://sodipodi.sourceforge.net/DTD/sodipodi-0.dtd"
   xmlns:inkscape="http://www.inkscape.org/namespaces/inkscape"
   width="96.859062mm"
   height="100mm"
   viewBox="0 0 96.859062 100"
   version="1.1"
   id="svg8"
   inkscape:version="1.0.2 (e86c870879, 2021-01-15, custom)"
   sodipodi:docname="pgsql.svg">
  <defs
     id="defs2" />
  <sodipodi:namedview
     id="base"
     pagecolor="#ffffff"
     bordercolor="#666666"
     borderopacity="1.0"
     inkscape:pageopacity="0.0"
     inkscape:pageshadow="2"
     inkscape:zoom="1.4"
     inkscape:cx="141.57695"
     inkscape:cy="200.10686"
     inkscape:document-units="mm"
     inkscape:current-layer="g847"
     inkscape:document-rotation="0"
     showgrid="false"
     inkscape:pagecheckerboard="true"
     fit-margin-top="0"
     fit-margin-left="0"
     fit-margin-right="0"
     fit-margin-bottom="0"
     inkscape:window-width="1920"
     inkscape:window-height="991"
     inkscape:window-x="-9"
     inkscape:window-y="-9"
     inkscape:window-maximized="1" />
  <metadata
     id="metadata5">
    <rdf:RDF>
      <cc:Work
         rdf:about="">
        <dc:format>image/svg+xml</dc:format>
        <dc:type
           rdf:resource="http://purl.org/dc/dcmitype/StillImage" />
        <dc:title />
      </cc:Work>
    </rdf:RDF>
  </metadata>
  <g
     inkscape:label="Layer 1"
     inkscape:groupmode="layer"
     id="layer1"
     transform="translate(-128.28378,-59.150751)">
    <g
       id="g847"
       style="fill:#333333;fill-opacity:1"
       transform="matrix(0.30534113,0,0,0.30534113,136.04502,58.829328)">
      <path
         style="fill:#ffffff;fill-rule:evenodd;stroke:none;stroke-width:12.0945;stroke-linecap:round;stroke-linejoin:round"
         d="m 83.335938,270.22852 c 0.138356,0 0.275898,0.0221 0.380859,0.0645 0.209923,0.0847 0.03898,0.1543 -0.380859,0.1543 -0.419844,0 -0.592735,-0.0696 -0.382813,-0.1543 0.104961,-0.0423 0.244455,-0.0645 0.382813,-0.0645 z"
         transform="matrix(0.86651717,0,0,0.86651717,-25.418259,1.0526685)"
         id="path880" />
      <path
         style="fill:#ffffff;fill-rule:evenodd;stroke:none;stroke-width:12.0945;stroke-linecap:round;stroke-linejoin:round"
         d="m 55.703125,268.50977 0.837891,0.74023 c 0.784815,0.69187 0.979706,0.93945 0.740234,0.93945 -0.05469,0 -0.430755,-0.378 -0.837891,-0.83984 z"
         transform="matrix(0.86651717,0,0,0.86651717,-25.418259,1.0526685)"
         id="path878" />
      <path
         style="fill:#ffffff;fill-rule:evenodd;stroke:none;stroke-width:12.0945;stroke-linecap:round;stroke-linejoin:round"
         d="m 168.11719,233.40625 c 1.2723,0.0423 3.69136,0.92919 4.91601,1.86328 2.54785,1.94333 4.58723,6.69125 4.20118,9.78125 -0.16916,1.35386 -0.50814,2.04224 -1.96876,3.99805 -2.02088,2.70603 -5.78486,6.48561 -8.42578,8.46094 -3.69915,2.76685 -9.29899,5.22492 -14.65039,6.43164 -3.06356,0.69082 -12.5667,0.85714 -16.33593,0.28515 -4.3344,-0.65776 -8.71002,-1.83864 -11.20899,-3.02539 -1.22422,-0.58138 -2.22461,-1.12261 -2.22461,-1.20117 0,-0.31158 4.09106,-1.46796 9.28125,-2.62305 9.68626,-2.15568 14.21684,-3.71569 18.2168,-6.27539 2.63614,-1.68696 4.67683,-3.73244 8.52539,-8.54492 5.35042,-6.6905 7.34839,-8.66857 9.20508,-9.11328 0.1281,-0.0307 0.28699,-0.0432 0.46875,-0.0371 z"
         transform="matrix(0.86651717,0,0,0.86651717,-25.418259,1.0526685)"
         id="path876" />
      <path
         style="fill:#ffffff;fill-rule:evenodd;stroke:none;stroke-width:12.0945;stroke-linecap:round;stroke-linejoin:round"
         d="m 294.56445,231.96094 1.63672,1.10351 c 4.87666,3.29162 13.86609,5.05267 23.6211,4.625 6.29287,-0.27589 18.02983,-1.82718 21.37304,-2.82422 0.95328,-0.28429 -2.74054,2.679 -5.95312,4.77539 -6.5965,4.30464 -13.81188,7.14146 -21.79688,8.57032 -7.79182,1.39429 -17.60169,1.88091 -23.38086,1.1582 -1.25204,-0.15658 -3.16744,-0.58557 -4.25781,-0.95312 -2.42565,-0.81766 -2.56962,-1.17798 -2.16602,-5.41407 0.62986,-6.61055 2.39072,-8.65695 9.04883,-10.51757 z"
         transform="matrix(0.86651717,0,0,0.86651717,-25.418259,1.0526685)"
         id="path874" />
      <path
         style="fill:#ffffff;fill-rule:evenodd;stroke:none;stroke-width:12.0945;stroke-linecap:round;stroke-linejoin:round"
         d="m 151.88477,116.17773 c -3.44512,6.2e-4 -5.55905,0.65824 -6.85547,2.13477 -0.55179,0.62846 -0.92951,1.39691 -0.92774,1.88867 0.008,2.24113 2.8769,6.05266 5.61524,7.46094 3.00589,1.54587 4.94363,1.76806 7.77539,0.88672 3.43014,-1.06759 6.45312,-4.04587 6.45312,-6.35547 0,-3.16581 -5.71757,-6.01701 -12.06054,-6.01563 z"
         transform="matrix(0.86651717,0,0,0.86651717,-25.418259,1.0526685)"
         id="path872" />
      <path
         style="fill:#ffffff;fill-rule:evenodd;stroke:none;stroke-width:12.0945;stroke-linecap:round;stroke-linejoin:round"
         d="m 276.00586,113.5957 c -0.56169,-0.0103 -1.15886,9.7e-4 -1.79102,0.0352 -3.44258,0.18618 -6.40957,1.03876 -8.24609,2.36914 -2.37336,1.71925 -2.3742,3.51784 -0.004,5.82617 2.7518,2.68033 6.97533,3.49689 10.23633,1.97852 3.0865,-1.43712 5.91211,-4.74882 5.91211,-6.92969 0,-2.05744 -2.17562,-3.20693 -6.10742,-3.2793 z"
         transform="matrix(0.86651717,0,0,0.86651717,-25.418259,1.0526685)"
         id="path870" />
      <path
         style="fill:#ffffff;fill-rule:evenodd;stroke:none;stroke-width:12.0945;stroke-linecap:round;stroke-linejoin:round"
         d="m 151.12109,110.56055 c 1.82005,0.005 3.44545,0.11951 4.55079,0.35547 5.88341,1.25593 9.68696,4.51418 11.7871,10.09375 1.60436,4.26238 4.10136,19.00824 4.75977,28.11132 0.42292,5.84735 0.19005,16.09229 -0.46875,20.55079 -1.09919,7.43904 -3.13426,14.3404 -6.5,22.04492 -4.85563,11.11504 -7.99537,19.27983 -10.00977,26.03125 l -0.79687,2.67187 -1.73828,-0.0273 c -0.95547,-0.0151 -2.77811,-0.2168 -4.05078,-0.44727 -13.16418,-2.38385 -24.38469,-11.84255 -29.76758,-25.09375 -0.75544,-1.85968 -1.74009,-4.94034 -2.18945,-6.8457 -0.73963,-3.13614 -0.81875,-4.04192 -0.83008,-9.57031 -0.008,-4.01321 0.17117,-7.62558 0.52343,-10.53516 0.84984,-7.01911 1.12522,-10.92745 1.33594,-18.93164 0.17747,-6.74123 -0.23998,-22.47201 -0.67383,-25.36328 -0.15643,-1.04251 -0.0885,-1.14127 1.60938,-2.32617 5.92368,-4.13399 15.67278,-8.27306 23.27148,-9.88282 2.58462,-0.54754 6.15409,-0.84458 9.1875,-0.83593 z"
         transform="matrix(0.86651717,0,0,0.86651717,-25.418259,1.0526685)"
         id="path868" />
      <path
         style="fill:#ffffff;fill-rule:evenodd;stroke:none;stroke-width:12.0945;stroke-linecap:round;stroke-linejoin:round"
         d="m 281.23047,108.66992 c 2.13945,0.006 4.40315,0.11469 6.7832,0.33008 2.04415,0.18499 3.75266,0.36901 3.79492,0.4082 0.23628,0.21917 -0.70827,8.85268 -1.74609,15.97071 -2.21026,15.1593 -2.2477,19.63149 -0.31445,36.41406 1.92681,16.72675 1.85428,24.12303 -0.31446,32.36719 -0.6813,2.58986 -2.4759,7.32812 -2.77539,7.32812 -0.10859,0 -0.92292,-1.61462 -1.80859,-3.58789 -0.88567,-1.97327 -3.79253,-7.55044 -6.46094,-12.39453 -11.94702,-21.68805 -17.85164,-35.29787 -20.51953,-47.29492 -2.52077,-11.33546 -1.40539,-19.19518 3.39648,-23.92578 3.77269,-3.71666 10.69388,-5.64041 19.96485,-5.61524 z"
         transform="matrix(0.86651717,0,0,0.86651717,-25.418259,1.0526685)"
         id="path866" />
      <path
         style="fill:#ffffff;fill-rule:evenodd;stroke:none;stroke-width:12.0945;stroke-linecap:round;stroke-linejoin:round"
         d="m 0.15039062,94.619141 c 0.0147204,0.01783 0.0318948,0.09207 0.0488281,0.228515 0.0677309,0.545798 0.0677309,1.438578 0,1.984375 -0.0677309,0.545798 -0.125,0.09941 -0.125,-0.992187 0,-0.818696 0.03201083,-1.274197 0.07617187,-1.220703 z"
         transform="matrix(0.86651717,0,0,0.86651717,-25.418259,1.0526685)"
         id="path864" />
      <path
         style="fill:#ffffff;fill-rule:evenodd;stroke:none;stroke-width:12.0945;stroke-linecap:round;stroke-linejoin:round"
         d="m 85.988281,25.759766 c 5.169943,0.03392 10.49839,0.230467 13.376953,0.574218 9.412326,1.123998 19.339206,3.078304 28.207036,5.552735 3.26582,0.911274 4.67401,1.331431 8.21875,2.447265 0.2401,0.07558 -0.69604,1.343549 -2.38477,3.226563 -1.52996,1.705978 -3.58298,4.15465 -4.5625,5.441406 -15.35684,20.173575 -24.12317,53.666648 -22.30273,85.216797 0.48658,8.43301 0.49731,23.65098 0.0215,29.60547 -0.1946,2.43509 -0.61821,6.69388 -0.94141,9.46484 -0.88988,7.62957 -1.02969,11.03227 -0.62695,15.26758 0.47386,4.98325 1.33051,9.0776 2.77344,13.25586 2.94737,8.5346 6.59703,14.45845 12.74414,20.6875 l 2.91211,2.94922 -0.88477,1.04883 c -0.4861,0.57678 -2.94463,3.30399 -5.46484,6.05859 -5.81505,6.35588 -11.96022,13.35038 -17.541017,19.96875 -5.328331,6.31896 -7.563138,8.67372 -9.869141,10.39844 -3.046928,2.27889 -6.605402,3.20016 -9.535156,2.46875 C 66.425847,255.97161 50.380596,225.72312 36.615234,177.36523 30.284105,155.1239 24.263417,127.44531 21.771484,109.12305 21.097686,104.16886 20.991394,87.811082 21.599609,82.558594 24.244392,59.718536 31.9058,44.909834 45.902344,35.580078 c 7.222917,-4.814619 15.998884,-7.801307 27.662109,-9.414062 2.242989,-0.310154 7.253885,-0.440165 12.423828,-0.40625 z"
         transform="matrix(0.86651717,0,0,0.86651717,-25.418259,1.0526685)"
         id="path862" />
      <path
         style="fill:#ffffff;fill-rule:evenodd;stroke:none;stroke-width:12.0945;stroke-linecap:round;stroke-linejoin:round"
         d="m 189.90039,24.880859 c 14.37554,-0.02569 26.07029,2.1443 38.74219,7.185547 23.47313,9.338284 44.08946,29.11014 56.78711,54.460938 1.85387,3.701256 4.92755,10.813535 4.92773,11.404297 2e-5,0.109415 -3.88268,0.199218 -8.62695,0.199218 -7.83686,0 -8.92392,0.06377 -11.89063,0.699219 -5.2892,1.132904 -9.41463,2.726002 -12.45898,4.810542 -14.8481,10.16695 -15.426,29.9598 -1.77539,60.8711 2.62472,5.94361 8.13557,16.74698 13.09961,25.67969 2.3798,4.2824 4.97428,9.22972 5.76562,10.99414 2.70095,6.02227 5.21293,10.04748 10.53516,16.88476 1.8048,2.31858 3.23242,4.26119 3.17187,4.31641 -0.0606,0.0552 -1.20923,0.53494 -2.55273,1.0664 -4.2083,1.66474 -7.3588,4.21265 -9.45898,7.65235 -2.36666,3.87613 -3.15115,7.33662 -3.52735,15.57226 -0.28931,6.33387 -1.41978,16.87351 -4.14258,38.62696 -3.0023,23.98656 -4.94377,36.91268 -6.41406,42.71289 -3.95917,15.61883 -11.95903,22.94995 -29.84375,27.34961 -6.78288,1.6686 -13.15267,2.2187 -17.81445,1.53711 -3.51151,-0.51343 -7.57174,-2.08251 -10.39453,-4.01758 -1.97411,-1.35327 -4.96191,-4.48125 -6.5625,-6.8711 -1.74042,-2.59863 -4.14567,-7.38523 -5.23242,-10.41015 -1.36102,-3.78828 -2.5304,-11.96029 -3.24219,-22.66797 -0.89281,-13.43039 -1.02956,-19.15764 -1.07617,-45.18945 l -0.0488,-27.63477 -0.83594,-2.4414 c -2.35546,-6.88311 -6.73773,-11.59753 -12.94727,-13.92774 -2.34527,-0.8801 -3.02535,-0.99901 -5.7871,-1.01562 -1.72136,-0.0104 -3.13086,-0.14119 -3.13086,-0.29102 0,-1.50144 5.08844,-15.29959 8.41992,-22.83203 7.51126,-16.98294 9.5957,-26.21965 9.5957,-42.52735 0,-14.78358 -3.13382,-34.87408 -6.57422,-42.14648 -2.69586,-5.69856 -6.98155,-10.002 -12.49804,-12.55078 -10.60696,-4.90072 -26.75594,-2.955636 -43.29297,5.21289 l -3.28321,1.62109 v -0.875 c 0,-0.48078 0.26969,-2.97354 0.59961,-5.54101 3.71919,-28.943077 13.80106,-50.831725 29.47657,-63.998049 8.40388,-7.058672 18.32128,-11.361048 30.53515,-13.246093 3.48273,-0.537512 5.66108,-0.662933 11.75586,-0.673829 z"
         transform="matrix(0.86651717,0,0,0.86651717,-25.418259,1.0526685)"
         id="path860" />
      <path
         style="fill:#ffffff;fill-rule:evenodd;stroke:none;stroke-width:12.0945;stroke-linecap:round;stroke-linejoin:round"
         d="m 264.37109,20.873047 c 5.19126,0.03334 10.34305,0.230102 13.00977,0.574219 14.94382,1.928369 26.31895,5.664564 37.43164,12.294922 8.46497,5.050594 16.44858,12.01612 22.6875,19.791015 3.95047,4.923085 5.4545,11.155453 5.45312,22.613281 0,7.093994 -0.34184,11.477606 -1.49023,19.234375 -5.11776,34.567751 -20.95019,76.476101 -42.33008,112.042971 -1.91209,3.1809 -3.62431,5.83245 -3.80469,5.89258 -0.18037,0.0601 -0.61517,-0.29214 -0.96484,-0.78321 l -0.63476,-0.89258 1.94921,-3.85937 c 4.61408,-9.13632 6.58204,-18.96881 6.17969,-30.87305 -0.11056,-3.26994 -0.64596,-9.32936 -1.32226,-14.96093 -1.05919,-8.81976 -1.13774,-10.04939 -1.13868,-18.01563 v -8.55078 l 1.45508,-9.76953 c 1.6647,-11.1811 2.24633,-20.39137 1.54492,-24.42774 -1.09934,-6.326368 -5.99476,-17.866795 -11.60742,-27.363278 -5.89582,-9.975591 -11.75044,-17.62547 -19.75976,-25.818359 -9.04177,-9.248981 -18.58973,-16.304348 -29.73828,-21.976562 l -4.94336,-2.515625 1.58593,-0.324219 c 2.42634,-0.495455 9.10487,-1.460336 13.1875,-1.90625 2.82759,-0.308834 8.05874,-0.439586 13.25,-0.40625 z"
         transform="matrix(0.86651717,0,0,0.86651717,-25.418259,1.0526685)"
         id="path858" />
      <path
         style="fill:#ffffff;fill-rule:evenodd;stroke:none;stroke-width:12.0945;stroke-linecap:round;stroke-linejoin:round"
         d="m 261.8457,10.099609 c -10.09551,0.0083 -17.01523,0.78838 -27.97656,2.996094 -5.58057,1.12398 -13.67653,3.277478 -15.01562,3.994141 -0.44002,0.235493 -1.28921,0.158748 -3.24805,-0.296875 -3.38476,-0.787293 -9.0412,-1.732323 -13.33985,-2.228516 -3.10799,-0.358757 -11.02357,-0.467756 -17.0371,-0.339844 -0.0559,0.04493 -0.19086,0.07276 -0.39258,0.06445 -0.14275,-0.0059 -0.2047,-0.02664 -0.25391,-0.04883 -2.61533,0.06493 -4.84601,0.171028 -5.98047,0.332032 -11.8103,1.676281 -22.08118,5.228086 -30.23828,10.455078 L 146.06445,26.5 142.10352,25.117188 c -11.96934,-4.182463 -27.66085,-7.791775 -41.0586,-9.44336 -6.278368,-0.773957 -21.150178,-0.944895 -27.175779,-0.3125 -17.262861,1.811758 -31.182462,7.652396 -41.542969,17.298828 0.0014,0.02807 -0.07077,0.129426 -0.248047,0.355469 -0.34285,0.437169 -0.566029,0.599617 -0.625,0.482422 -0.266982,0.259269 -0.538738,0.512818 -0.800781,0.777344 0.04752,-0.03271 0.157274,-0.122024 0.164062,-0.115235 0.01576,0.01576 -0.07572,0.140666 -0.265625,0.382813 -0.334114,0.426027 -0.554976,0.590078 -0.621093,0.490234 -8.802924,9.214517 -14.720175,21.487704 -17.566407,36.685547 -1.314289,7.017826 -1.750538,11.866058 -1.919922,21.298828 -0.173229,9.646882 0.03868,13.176802 1.320313,21.906252 3.314852,22.578 10.631569,53.63004 18.597656,78.93164 8.473769,26.91409 17.716229,47.51751 27.019531,60.22851 2.913315,3.98044 8.926548,10.04077 11.939453,12.03321 4.061258,2.6857 9.139653,4.3789 13.138672,4.3789 2.176096,0 5.891076,-0.83007 8.304688,-1.85547 4.930822,-2.09477 8.565894,-5.25692 15.597658,-13.5625 7.08283,-8.3659 13.14568,-15.25692 20.06445,-22.80859 l 6.06641,-6.62109 2.67383,1.23437 c 5.1087,2.36147 12.42248,4.22266 16.5957,4.22266 0.99627,0 1.49561,0.12869 1.49219,0.38281 -0.005,0.35984 -2.94661,4.16526 -6.05469,7.83399 -2.94088,3.47135 -6.3758,4.90703 -18.36719,7.66992 -9.44338,2.17581 -12.30781,3.30611 -15.30664,6.04687 -2.27058,2.07518 -3.13453,3.89136 -3.15234,6.61719 -0.011,1.67277 0.14845,2.46923 0.73633,3.66406 2.53671,5.15577 9.56297,9.02196 20.01171,11.01172 5.23231,0.99638 14.47858,1.35612 19.30469,0.75195 8.74736,-1.09505 16.5229,-4.26512 23.62891,-9.63281 l 2.93359,-2.21484 0.18164,17.44531 c 0.0251,2.38901 0.0578,4.63087 0.0937,6.81641 0.005,0.009 0.009,0.008 0.0137,0.0195 0.0847,0.20992 0.0847,0.55375 0,0.76367 -8.5e-4,0.002 -0.001,0.002 -0.002,0.004 0.29849,17.31331 0.96443,28.50756 2.25781,38.63672 1.11608,8.74059 1.93991,11.64893 5.16602,18.22851 2.87056,5.85443 4.76785,8.60583 8.54297,12.39063 5.65857,5.67311 10.89587,8.39109 19.09961,9.9082 3.0037,0.55548 10.56153,0.54496 14.46484,-0.0195 11.59931,-1.67761 22.99767,-5.9398 30.01953,-11.22461 9.15675,-6.89158 14.66879,-17.50158 17.32227,-33.34375 1.66279,-9.92749 4.71886,-32.80305 7.07617,-52.97656 0.69664,-5.96179 1.30237,-10.88032 1.3457,-10.92969 0.0434,-0.0494 1.50412,0.22387 3.2461,0.60742 2.89799,0.63807 3.90664,0.69718 11.86914,0.68555 9.3649,-0.0137 13.06323,-0.39329 21.06836,-2.15625 11.7447,-2.58654 23.79721,-8.97451 31.39257,-16.64063 3.69177,-3.72617 5.15199,-6.35153 5.3125,-9.54687 -0.0314,-0.071 -0.0479,-0.19761 -0.041,-0.36524 0.007,-0.17785 0.0304,-0.2843 0.0625,-0.3164 -0.0629,-4.51984 -3.66141,-7.48235 -9.07031,-7.67578 0.0656,0.007 0.15671,0.005 0.21093,0.0156 0.37556,0.0725 -0.006,0.1312 -0.8457,0.12891 -0.83969,-0.002 -1.14576,-0.0627 -0.68164,-0.13282 0.0705,-0.0107 0.1632,-0.008 0.24219,-0.0156 -0.3079,0.009 -0.61587,0.0203 -0.9336,0.0469 -1.25952,0.10548 -4.42411,0.5938 -7.0332,1.08594 -15.87263,2.99399 -27.44576,3.03421 -33.94141,0.11914 -0.97535,-0.4377 -1.77343,-0.85191 -1.77343,-0.92187 0,-0.0699 1.59575,-2.67783 3.54687,-5.79493 11.94233,-19.07906 23.09448,-41.60847 31.11133,-62.8496 15.40546,-40.81761 21.21926,-78.749253 15.04492,-98.16602 -1.74441,-5.485717 -3.55401,-8.33015 -9.48047,-14.886719 -10.7688,-11.91378 -24.43047,-20.864312 -39.98242,-26.195312 -11.49446,-3.940146 -21.52554,-5.588471 -35.50781,-5.837891 -1.59288,-0.02841 -3.0988,-0.04415 -4.54102,-0.04297 z"
         transform="matrix(0.86651717,0,0,0.86651717,-25.418259,1.0526685)"
         id="path856" />
      <path
         style="fill:#ffffff;fill-rule:evenodd;stroke:none;stroke-width:12.0945;stroke-linecap:round;stroke-linejoin:round"
         d="m 194.14844,3.9707031 c 0.10607,0.00437 0.19731,0.031299 0.24804,0.082031 0.10144,0.1014625 -0.0786,0.1734145 -0.40039,0.1601562 -0.3557,-0.014651 -0.42717,-0.08612 -0.18359,-0.1835937 0.11021,-0.044102 0.22986,-0.062963 0.33594,-0.058594 z"
         transform="matrix(0.86651717,0,0,0.86651717,-25.418259,1.0526685)"
         id="path854" />
      <path
         style="fill:#ffffff;fill-rule:evenodd;stroke:none;stroke-width:12.0945;stroke-linecap:round;stroke-linejoin:round"
         d="m 264.76367,0.1875 c 4.84553,0.0282171 9.65203,0.19731531 12.64453,0.49609375 25.11011,2.50705255 46.08852,11.20363425 63.69336,26.40234425 5.53868,4.781682 12.8922,12.826249 15.95703,17.457031 11.33992,17.134049 9.60349,52.802722 -4.76367,97.861331 -5.66608,17.77009 -12.80713,35.11876 -21.80859,52.97656 -3.69799,7.33632 -7.7063,14.73169 -10.4043,19.19726 -0.7475,1.23721 -1.27913,2.32828 -1.18164,2.42579 0.0975,0.0975 2.03729,0.01 4.31055,-0.19532 3.79453,-0.34272 5.8248,-0.64958 16.41211,-2.48047 10.61854,-1.83629 18.58334,0.64481 23.31836,7.26368 2.25702,3.15496 3.14062,6.05664 3.14062,10.32617 0,6.40472 -2.05182,10.90348 -7.62305,16.7168 -4.85315,5.06403 -11.89318,10.09271 -19.44531,13.88867 -6.52129,3.2778 -12.02504,5.11736 -20.10742,6.7207 -7.92875,1.57286 -11.54864,1.93377 -20.45703,2.03906 l -8.24414,0.0977 L 290,272.54102 c -0.11194,0.63831 -0.35634,4.11394 -0.54297,7.7246 -0.92223,17.84167 -2.02717,28.11279 -4.17578,38.7793 -5.45912,27.1011 -16.81922,43.38727 -36.00391,51.61914 -5.65445,2.42624 -13.86993,4.73727 -21.76172,6.1211 -3.3887,0.59419 -12.78134,1.04827 -14.71484,0.71093 -0.41985,-0.0733 -1.79515,-0.28499 -3.05469,-0.4707 -9.95419,-1.46777 -18.73573,-6.78957 -24.99804,-15.14648 -3.44108,-4.59203 -6.1017,-10.34742 -9.30469,-20.13672 -3.97293,-12.1424 -5.37629,-23.61438 -6.30859,-51.51758 -0.15648,-4.68322 -0.34048,-8.57093 -0.40821,-8.63867 -0.0677,-0.0677 -1.13618,0.2768 -2.375,0.76562 -3.23212,1.27536 -7.20264,2.37624 -11.41406,3.16406 -3.13739,0.58689 -4.71739,0.68689 -10.99219,0.69532 -7.65954,0.0104 -9.86842,-0.19998 -16.43164,-1.5625 -8.80745,-1.82841 -15.72556,-5.10815 -20.7207,-9.82032 l -2.06445,-1.94531 -2.375,1.73633 c -9.809078,7.17539 -21.754543,8.64097 -32.500004,3.98438 C 51.184282,270.5131 35.106499,243.65081 20.132812,195.5332 11.938536,169.20109 4.2702824,135.78878 1.1777344,112.93945 -0.05516906,103.83013 0.03620599,87.216799 1.375,76.908203 8.1420476,24.802535 45.494668,-0.83371858 104.09961,6.4042969 c 11.66167,1.440277 27.64685,5.0673611 38.0918,8.6425781 l 2.21484,0.757813 3.73828,-1.945313 c 7.15976,-3.727033 14.03711,-6.1443969 22.19531,-7.8007812 7.74646,-1.5727857 12.32164,-1.9082439 23.37696,-1.7128907 9.44095,0.1668268 12.83841,0.4197268 21.43945,1.59375 l 4.0332,0.5507813 5.73633,-1.4257813 C 234.38157,2.7144418 242.88049,1.286949 251.88477,0.53515625 255.03484,0.27214802 259.91814,0.1592829 264.76367,0.1875 Z"
         transform="matrix(0.86651717,0,0,0.86651717,-25.418259,1.0526685)"
         id="path852" />
      <path
         style="fill:#333333;fill-opacity:1;stroke-width:0.264583"
         d="m 163.42509,328.39397 c 0.191,-0.0764 0.4192,-0.0671 0.50712,0.0209 0.0879,0.0879 -0.0684,0.15047 -0.34726,0.13899 -0.30823,-0.0127 -0.37092,-0.0754 -0.15986,-0.15987 z m 0.64996,-17.7297 c 0.25743,-0.0671 0.61462,-0.0627 0.79375,0.01 0.17913,0.0725 -0.0315,0.12735 -0.46806,0.12198 -0.43656,-0.005 -0.58312,-0.0647 -0.32569,-0.13179 z m -26.24404,-43.36265 c 0.0127,-0.30824 0.0754,-0.37092 0.15985,-0.15986 0.0764,0.191 0.067,0.41921 -0.0209,0.50713 -0.0879,0.0879 -0.15045,-0.0684 -0.13896,-0.34727 z m -0.2437,-5.6665 c 0,-0.3638 0.0601,-0.51263 0.13345,-0.33073 0.0734,0.1819 0.0734,0.47956 0,0.66146 -0.0734,0.1819 -0.13345,0.0331 -0.13345,-0.33073 z m -9.2813,-3.85851 c 0.0127,-0.30822 0.0754,-0.37091 0.15985,-0.15985 0.0764,0.191 0.067,0.4192 -0.0209,0.50712 -0.0879,0.0879 -0.15045,-0.0684 -0.13896,-0.34727 z m 9.02652,-4.21128 c 0.005,-0.43656 0.0647,-0.58313 0.13178,-0.3257 0.0671,0.25744 0.0627,0.61462 -0.01,0.79375 -0.0725,0.17914 -0.12736,-0.0315 -0.12197,-0.46805 z m -16.43486,-1.34497 c 0.0127,-0.30822 0.0754,-0.37091 0.15986,-0.15985 0.0764,0.191 0.067,0.4192 -0.0209,0.50712 -0.0879,0.0879 -0.15045,-0.0684 -0.13896,-0.34727 z m 7.18425,-5.93107 c 0,-0.50933 0.0545,-0.71769 0.121,-0.46302 0.0666,0.25466 0.0666,0.67138 0,0.92604 -0.0666,0.25466 -0.121,0.0463 -0.121,-0.46302 z m 97.32617,-3.32934 c 0.0127,-0.30823 0.0754,-0.37092 0.15985,-0.15986 0.0764,0.191 0.067,0.41921 -0.0209,0.50712 -0.0879,0.0879 -0.15046,-0.0684 -0.13897,-0.34726 z m 4.42742,-6.64099 c 0.19099,-0.0764 0.4192,-0.067 0.50712,0.0209 0.0879,0.0879 -0.0684,0.15045 -0.34727,0.13896 -0.30822,-0.0127 -0.37092,-0.0754 -0.15985,-0.15985 z m 4.49792,0 c 0.19099,-0.0764 0.4192,-0.067 0.50712,0.0209 0.0879,0.0879 -0.0684,0.15045 -0.34727,0.13896 -0.30823,-0.0127 -0.37092,-0.0754 -0.15985,-0.15985 z M 72.953452,232.06793 c -0.329107,-0.41964 -0.319749,-0.429 0.0999,-0.0999 0.254662,0.19972 0.463021,0.40808 0.463021,0.46302 0,0.21776 -0.217273,0.0776 -0.562917,-0.36313 z m 27.236228,-1.5698 c 0.19099,-0.0764 0.4192,-0.067 0.50712,0.0209 0.0879,0.0879 -0.0684,0.15045 -0.34727,0.13896 -0.30823,-0.0127 -0.37092,-0.0754 -0.15985,-0.15985 z m -38.844144,-2.59738 c 0.493654,-0.50933 0.957085,-0.92605 1.029845,-0.92605 0.07276,0 -0.271608,0.41672 -0.765262,0.92605 -0.493654,0.50932 -0.957085,0.92604 -1.029846,0.92604 -0.07276,0 0.271608,-0.41672 0.765263,-0.92604 z M 231.13599,217.52333 c 0.4697,-0.0584 1.30313,-0.0594 1.85208,-0.002 0.54895,0.0573 0.16465,0.1051 -0.85399,0.10628 -1.01865,0.001 -1.46779,-0.0457 -0.99809,-0.10414 z m -93.80346,-0.99967 c 0.005,-0.43656 0.0647,-0.58312 0.13178,-0.32569 0.0671,0.25743 0.0627,0.61462 -0.01,0.79375 -0.0725,0.17913 -0.12736,-0.0315 -0.12197,-0.46806 z m 73.58941,-2.38125 c 0.001,-1.01864 0.049,-1.40294 0.10627,-0.85399 0.0573,0.54895 0.0563,1.38238 -0.002,1.85208 -0.0585,0.4697 -0.10532,0.0206 -0.10414,-0.99809 z m -91.16963,-20.16276 c 0.32742,-0.0631 0.8632,-0.0631 1.19062,0 0.32742,0.0631 0.0595,0.11466 -0.59531,0.11466 -0.65484,0 -0.92274,-0.0516 -0.59531,-0.11466 z m -12.36927,-1.76681 c 0,-0.0558 0.29405,-0.15766 0.65345,-0.22636 0.35939,-0.0687 0.59049,-0.0231 0.51355,0.10145 -0.13549,0.21922 -1.167,0.32963 -1.167,0.12491 z m 128.62927,-32.97147 c 0,-0.3638 0.0601,-0.51263 0.13345,-0.33073 0.0734,0.1819 0.0734,0.47956 0,0.66146 -0.0734,0.1819 -0.13345,0.0331 -0.13345,-0.33073 z M 74.595591,157.76411 c 0.0127,-0.30822 0.07539,-0.37092 0.159851,-0.15985 0.07643,0.191 0.06703,0.4192 -0.02088,0.50712 -0.08792,0.0879 -0.150452,-0.0684 -0.138964,-0.34727 z m 161.395829,-3.43958 c 0.0127,-0.30823 0.0754,-0.37092 0.15986,-0.15985 0.0764,0.19099 0.067,0.4192 -0.0209,0.50712 -0.0879,0.0879 -0.15045,-0.0684 -0.13896,-0.34727 z M 124.13377,137.41324 c 0.002,-0.87312 0.0509,-1.19841 0.10977,-0.72286 0.0589,0.47555 0.0577,1.18992 -0.003,1.5875 -0.0604,0.39758 -0.10855,0.008 -0.10707,-0.86464 z m -47.950679,-1.34496 c 0.0127,-0.30823 0.07539,-0.37092 0.159851,-0.15985 0.07643,0.19099 0.06703,0.4192 -0.02088,0.50712 -0.08792,0.0879 -0.150452,-0.0684 -0.138964,-0.34727 z m -8.974947,-3.81441 c 0,-0.3638 0.06005,-0.51263 0.133453,-0.33073 0.0734,0.1819 0.0734,0.47956 0,0.66146 -0.0734,0.1819 -0.133453,0.0331 -0.133453,-0.33073 z m 56.599946,-2.00642 c 0.0127,-0.30823 0.0754,-0.37092 0.15985,-0.15986 0.0764,0.191 0.067,0.4192 -0.0209,0.50712 -0.0879,0.0879 -0.15046,-0.0683 -0.13897,-0.34726 z m -47.276162,-4.60816 c 0,-2.11006 0.04109,-2.97326 0.09131,-1.91823 0.05022,1.05502 0.05022,2.78143 0,3.83646 -0.05022,1.05502 -0.09131,0.19182 -0.09131,-1.91823 z m 157.078242,3.02066 c 0.0127,-0.30823 0.0754,-0.37092 0.15986,-0.15986 0.0764,0.191 0.067,0.4192 -0.0209,0.50712 -0.0879,0.0879 -0.15045,-0.0683 -0.13896,-0.34726 z m 0,-5.55625 c 0.0127,-0.30823 0.0754,-0.37092 0.15986,-0.15986 0.0764,0.191 0.067,0.4192 -0.0209,0.50712 -0.0879,0.0879 -0.15045,-0.0683 -0.13896,-0.34726 z M 67.208144,119.28929 c 0,-0.36381 0.06005,-0.51263 0.133453,-0.33073 0.0734,0.1819 0.0734,0.47955 0,0.66146 -0.0734,0.1819 -0.133453,0.0331 -0.133453,-0.33073 z m 8.974947,-4.38768 c 0.0127,-0.30822 0.07539,-0.37092 0.159851,-0.15985 0.07643,0.19099 0.06703,0.4192 -0.02088,0.50712 -0.08792,0.0879 -0.150452,-0.0683 -0.138964,-0.34727 z m 111.389579,-1.05833 c 0.0127,-0.30823 0.0754,-0.37092 0.15986,-0.15985 0.0764,0.19099 0.067,0.4192 -0.0209,0.50712 -0.0879,0.0879 -0.15045,-0.0684 -0.13896,-0.34727 z M 66.922675,113.04953 c 0.0127,-0.30823 0.07539,-0.37092 0.15985,-0.15985 0.07643,0.19099 0.06703,0.4192 -0.02088,0.50712 -0.08792,0.0879 -0.150453,-0.0684 -0.138965,-0.34727 z m 8.995833,-3.175 c 0.0127,-0.30823 0.07539,-0.37092 0.159851,-0.15985 0.07643,0.19099 0.06703,0.4192 -0.02088,0.50712 -0.08792,0.0879 -0.150453,-0.0684 -0.138965,-0.34727 z m 111.654162,-0.26458 c 0.0127,-0.30823 0.0754,-0.37092 0.15986,-0.15986 0.0764,0.191 0.067,0.4192 -0.0209,0.50712 -0.0879,0.0879 -0.15045,-0.0684 -0.13896,-0.34726 z M 66.658091,108.28703 c 0.0127,-0.30823 0.07539,-0.37092 0.159851,-0.15985 0.07643,0.19099 0.06703,0.4192 -0.02088,0.50712 -0.08792,0.0879 -0.150452,-0.0684 -0.138964,-0.34727 z m 0,-7.67292 c 0.0127,-0.30822 0.07539,-0.37092 0.159851,-0.15985 0.07643,0.19099 0.06703,0.4192 -0.02088,0.50712 -0.08792,0.0879 -0.150452,-0.0684 -0.138964,-0.34727 z M 236.52059,97.439113 c 0.0127,-0.308226 0.0754,-0.370919 0.15985,-0.159853 0.0764,0.190995 0.067,0.4192 -0.0209,0.507119 -0.0879,0.08792 -0.15046,-0.06835 -0.13897,-0.347266 z m -132.89133,-0.82015 c 0.19099,-0.07643 0.4192,-0.06703 0.50712,0.02088 0.0879,0.08792 -0.0684,0.150452 -0.34727,0.138964 -0.30822,-0.0127 -0.37092,-0.07539 -0.15985,-0.159851 z m 2.38125,0 c 0.19099,-0.07643 0.4192,-0.06703 0.50712,0.02088 0.0879,0.08792 -0.0683,0.150452 -0.34727,0.138964 -0.30822,-0.0127 -0.37092,-0.07539 -0.15985,-0.159851 z m 111.37305,-1.593485 c 0.32742,-0.06307 0.8632,-0.06307 1.19062,0 0.32742,0.06306 0.0595,0.114663 -0.59531,0.114663 -0.65484,0 -0.92274,-0.0516 -0.59531,-0.114663 z M -25.386217,88.729911 c 0.0054,-0.436563 0.06469,-0.583126 0.131773,-0.325694 0.06708,0.257431 0.06267,0.614619 -0.0098,0.79375 -0.07248,0.17913 -0.127362,-0.03149 -0.121969,-0.468056 z m 8.986029,-0.396875 c 0,-0.363802 0.06005,-0.512631 0.133452,-0.330729 0.0734,0.181901 0.0734,0.479557 0,0.661458 -0.0734,0.181901 -0.133452,0.03307 -0.133452,-0.330729 z M 213.69593,86.035629 c 0.19099,-0.07643 0.4192,-0.06703 0.50712,0.02088 0.0879,0.08792 -0.0684,0.150453 -0.34727,0.138965 -0.30823,-0.0127 -0.37092,-0.07539 -0.15985,-0.159851 z m 8.73125,0 c 0.19099,-0.07643 0.4192,-0.06703 0.50712,0.02088 0.0879,0.08792 -0.0684,0.150453 -0.34727,0.138965 -0.30823,-0.0127 -0.37092,-0.07539 -0.15985,-0.159851 z M -25.41691,79.71203 c 0.0127,-0.308227 0.07539,-0.37092 0.159853,-0.159854 0.07643,0.190995 0.06703,0.419201 -0.02089,0.507119 -0.08792,0.08792 -0.150453,-0.06835 -0.138965,-0.347265 z m 8.995834,-0.529167 c 0.01269,-0.308226 0.07539,-0.37092 0.159852,-0.159853 0.07643,0.190994 0.06703,0.4192 -0.02089,0.507118 -0.08792,0.08792 -0.150453,-0.06835 -0.138964,-0.347265 z M 271.71016,71.509946 c 0.0127,-0.308226 0.0754,-0.370919 0.15986,-0.159853 0.0764,0.190995 0.067,0.4192 -0.0209,0.507119 -0.0879,0.08792 -0.15047,-0.06835 -0.13899,-0.347266 z M 204.71595,51.092931 c -0.32911,-0.419645 -0.31975,-0.429003 0.0999,-0.0999 0.44073,0.345644 0.58089,0.562917 0.36312,0.562917 -0.0549,0 -0.2633,-0.208359 -0.46302,-0.463021 z m 5.82084,-7.14375 c -0.32911,-0.419645 -0.31975,-0.429003 0.0999,-0.0999 0.44073,0.345644 0.58089,0.562917 0.36313,0.562917 -0.0549,0 -0.2633,-0.208359 -0.46302,-0.463021 z m -4.23334,-4.233333 c -0.32911,-0.419645 -0.31975,-0.429004 0.0999,-0.0999 0.44073,0.345643 0.58089,0.562917 0.36312,0.562917 -0.0549,0 -0.2633,-0.20836 -0.46302,-0.463021 z M 97.725744,38.855952 c 0.26339,-0.291042 0.538422,-0.529167 0.611182,-0.529167 0.07276,0 -0.08321,0.238125 -0.346599,0.529167 -0.26339,0.291042 -0.538421,0.529167 -0.611182,0.529167 -0.07276,0 0.08321,-0.238125 0.346599,-0.529167 z m -90.2229167,-1.5875 c 0.5683885,-0.582084 1.0929673,-1.058334 1.1657277,-1.058334 0.072761,0 -0.3327558,0.47625 -0.9011443,1.058334 -0.5683885,0.582083 -1.0929673,1.058333 -1.1657277,1.058333 -0.072761,0 0.3327558,-0.47625 0.9011443,-1.058333 z m 91.6781247,0.164687 c 0,-0.05494 0.20836,-0.2633 0.463021,-0.463021 0.419647,-0.329107 0.429007,-0.319749 0.0999,0.0999 -0.345643,0.44073 -0.562917,0.580888 -0.562917,0.363125 z m -7.321838,-5.673135 c 0.393065,-0.410273 0.6237,-0.846079 0.512522,-0.968462 -0.111178,-0.122381 -0.04355,-0.130831 0.150283,-0.01879 0.269695,0.155911 0.180441,0.383244 -0.38023,0.96846 -0.40296,0.4206 -0.792186,0.764728 -0.864947,0.764728 -0.07276,0 0.189307,-0.335677 0.582372,-0.745948 z m 182.865786,-3.024365 -1.84499,-1.918229 1.91823,1.844987 c 1.78165,1.713625 2.03906,1.991471 1.84499,1.991471 -0.0403,0 -0.9035,-0.863203 -1.91823,-1.918229 z M 46.070883,23.062181 c 0.257432,-0.06708 0.614619,-0.06267 0.79375,0.0098 0.179131,0.07248 -0.03149,0.127362 -0.468056,0.12197 -0.436562,-0.0054 -0.583125,-0.06469 -0.325694,-0.131774 z m 4.233334,0 c 0.257431,-0.06708 0.614619,-0.06267 0.79375,0.0098 0.17913,0.07248 -0.03149,0.127362 -0.468056,0.12197 -0.436563,-0.0054 -0.583126,-0.06469 -0.325694,-0.131774 z m 94.600043,-0.526553 c 0.19099,-0.07643 0.4192,-0.06703 0.50712,0.02089 0.0879,0.08792 -0.0684,0.150453 -0.34727,0.138964 -0.30822,-0.0127 -0.37092,-0.07539 -0.15985,-0.159852 z m 57.39215,-3.714385 c 0.46969,-0.05845 1.30313,-0.05941 1.85208,-0.0021 0.54895,0.05728 0.16465,0.105098 -0.854,0.106272 -1.01864,0.0012 -1.46778,-0.04569 -0.99808,-0.104138 z m -60.30257,-5.546032 c 0.191,-0.07643 0.4192,-0.06703 0.50712,0.02089 0.0879,0.08792 -0.0683,0.150453 -0.34726,0.138964 -0.30823,-0.01269 -0.37092,-0.07539 -0.15986,-0.159852 z m 56.35625,-3.4395834 c 0.191,-0.07643 0.4192,-0.067031 0.50712,0.020889 0.0879,0.087919 -0.0684,0.1504524 -0.34726,0.1389645 -0.30823,-0.012695 -0.37092,-0.075391 -0.15986,-0.1598535 z M 47.92157,5.3285915 c 0.402182,-0.060816 0.997495,-0.05919 1.322916,0.00361 0.325422,0.062802 -0.0037,0.1125601 -0.731242,0.1105739 -0.727604,-0.00198 -0.993857,-0.05337 -0.591674,-0.1141855 z"
         id="path861" />
      <path
         style="fill:#333333;fill-opacity:1;stroke-width:0.264583"
         d="m 137.83101,266.50787 c 0.0127,-0.30824 0.0754,-0.37092 0.15985,-0.15986 0.0764,0.191 0.067,0.41921 -0.0209,0.50713 -0.0879,0.0879 -0.15045,-0.0684 -0.13896,-0.34727 z m -0.2437,-5.93108 c 0,-0.3638 0.0601,-0.51263 0.13345,-0.33073 0.0734,0.1819 0.0734,0.47956 0,0.66146 -0.0734,0.1819 -0.13345,0.0331 -0.13345,-0.33073 z m -0.24497,-8.46667 c 0,-0.50932 0.0545,-0.71768 0.121,-0.46302 0.0666,0.25466 0.0666,0.67138 0,0.92604 -0.0665,0.25466 -0.121,0.0463 -0.121,-0.46302 z m -16.44467,-0.68351 c 0.0127,-0.30822 0.0754,-0.37091 0.15986,-0.15985 0.0764,0.191 0.067,0.4192 -0.0209,0.50712 -0.0879,0.0879 -0.15045,-0.0683 -0.13896,-0.34727 z m 7.16464,-3.81441 c 0,-0.3638 0.0601,-0.51263 0.13345,-0.33073 0.0734,0.18191 0.0734,0.47956 0,0.66146 -0.0734,0.1819 -0.13345,0.0331 -0.13345,-0.33073 z m 97.34578,-5.446 c 0.0127,-0.30823 0.0754,-0.37092 0.15985,-0.15986 0.0764,0.191 0.067,0.41921 -0.0209,0.50712 -0.0879,0.0879 -0.15046,-0.0684 -0.13897,-0.34726 z m -158.790914,-3.2191 -0.641432,-0.7276 0.727604,0.64143 c 0.680056,0.59951 0.84894,0.81377 0.641432,0.81377 -0.04739,0 -0.374814,-0.32742 -0.727604,-0.7276 z m -44.728307,-6.08542 c -0.329108,-0.41964 -0.319749,-0.429 0.0999,-0.0999 0.254661,0.19972 0.463021,0.40808 0.463021,0.46302 0,0.21776 -0.217274,0.0776 -0.562917,-0.36313 z m 76.303534,-2.37267 c 0.402182,-0.0608 0.997495,-0.0592 1.322917,0.004 0.325421,0.0628 -0.0037,0.11256 -0.731243,0.11057 -0.727604,-0.002 -0.993857,-0.0534 -0.591674,-0.11418 z m 39.160607,-12.24556 c 0,-0.65484 0.0516,-0.92273 0.11467,-0.59531 0.0631,0.32742 0.0631,0.8632 0,1.19063 -0.0631,0.32742 -0.11467,0.0595 -0.11467,-0.59532 z M 248.06932,206.94 c 0.46969,-0.0584 1.30313,-0.0594 1.85209,-0.002 0.54895,0.0573 0.16465,0.1051 -0.854,0.10627 -1.01865,10e-4 -1.46778,-0.0457 -0.99809,-0.10414 z m -116.64295,-8.20957 c -0.32911,-0.41964 -0.31975,-0.429 0.0999,-0.0999 0.25467,0.19972 0.46303,0.40808 0.46303,0.46302 0,0.21776 -0.21728,0.0776 -0.56292,-0.36313 z m -53.412084,-3.60562 c 0,-0.0549 0.208359,-0.2633 0.46302,-0.46302 0.419646,-0.32911 0.429004,-0.31975 0.0999,0.0999 -0.345644,0.44073 -0.562917,0.58089 -0.562917,0.36313 z m 3.324301,-3.68183 c 0.09936,-0.26094 0.247304,-0.40778 0.328766,-0.32632 0.08146,0.0815 1.7e-4,0.29496 -0.180652,0.47443 -0.261308,0.25936 -0.291698,0.22897 -0.148114,-0.14811 z m 192.682343,-5.39485 c 0.191,-0.0764 0.4192,-0.067 0.50712,0.0209 0.0879,0.0879 -0.0684,0.15045 -0.34726,0.13896 -0.30824,-0.0127 -0.37092,-0.0754 -0.15986,-0.15985 z m -38.02951,-25.90277 c 0.0127,-0.30822 0.0754,-0.37092 0.15986,-0.15985 0.0764,0.191 0.067,0.4192 -0.0209,0.50712 -0.0879,0.0879 -0.15045,-0.0683 -0.13896,-0.34727 z M 65.404987,155.14033 c 0.0011,-1.16417 0.04748,-1.60751 0.103371,-0.9852 0.05589,0.62231 0.0551,1.57481 -0.0019,2.11667 -0.05685,0.54186 -0.102581,0.0327 -0.101621,-1.13147 z m 170.607323,-1.71979 c 0,-0.36381 0.0601,-0.51263 0.13345,-0.33073 0.0734,0.1819 0.0734,0.47955 0,0.66146 -0.0734,0.1819 -0.13345,0.0331 -0.13345,-0.33073 z M 74.595591,153.2662 c 0.0127,-0.30823 0.07539,-0.37092 0.159851,-0.15986 0.07643,0.191 0.06703,0.4192 -0.02088,0.50712 -0.08792,0.0879 -0.150452,-0.0684 -0.138964,-0.34726 z m 152.135419,-0.26459 c 0.0127,-0.30822 0.0754,-0.37092 0.15985,-0.15985 0.0764,0.191 0.067,0.4192 -0.0209,0.50712 -0.0879,0.0879 -0.15045,-0.0684 -0.13896,-0.34727 z m -93.6625,-9.525 c 0.0127,-0.30822 0.0754,-0.37092 0.15985,-0.15985 0.0764,0.19099 0.067,0.4192 -0.0209,0.50712 -0.0879,0.0879 -0.15045,-0.0684 -0.13896,-0.34727 z m -66.145835,-6.61458 c 0.0127,-0.30823 0.07539,-0.37092 0.15985,-0.15985 0.07643,0.19099 0.06703,0.4192 -0.02088,0.50712 -0.08792,0.0879 -0.150453,-0.0684 -0.138965,-0.34727 z m 0.295275,-5.79879 c 0.0054,-0.43656 0.06469,-0.58312 0.131773,-0.32569 0.06708,0.25743 0.06267,0.61462 -0.0098,0.79375 -0.07248,0.17913 -0.127363,-0.0315 -0.121971,-0.46806 z m 9.275558,-0.79375 c 0.0029,-0.58208 0.05712,-0.78905 0.120407,-0.45993 0.06329,0.32912 0.06088,0.80537 -0.0053,1.05833 -0.06622,0.25297 -0.118004,-0.0163 -0.115067,-0.5984 z m 157.162502,-2.91041 c 0.003,-0.58209 0.0571,-0.78906 0.1204,-0.45994 0.0633,0.32912 0.0609,0.80537 -0.005,1.05834 -0.0662,0.25296 -0.118,-0.0163 -0.11507,-0.5984 z m -9.23644,-1.5875 c 0.001,-1.16417 0.0475,-1.60751 0.10337,-0.9852 0.0559,0.62231 0.0551,1.57481 -0.002,2.11667 -0.0568,0.54186 -0.10258,0.0327 -0.10162,-1.13147 z m 9.2311,-1.45521 c 0,-0.50932 0.0545,-0.71768 0.121,-0.46302 0.0666,0.25466 0.0666,0.67138 0,0.92604 -0.0666,0.25466 -0.121,0.0463 -0.121,-0.46302 z m -157.162501,-3.175 c 0,-0.50932 0.05445,-0.71768 0.121002,-0.46302 0.06655,0.25466 0.06655,0.67138 0,0.92604 -0.06655,0.25466 -0.121002,0.0463 -0.121002,-0.46302 z m -9.280025,-0.79375 c 0,-0.3638 0.06005,-0.51263 0.133453,-0.33073 0.0734,0.1819 0.0734,0.47956 0,0.66146 -0.0734,0.1819 -0.133453,0.0331 -0.133453,-0.33073 z m 8.974947,-6.23976 c 0.0127,-0.30822 0.07539,-0.37092 0.159851,-0.15985 0.07643,0.19099 0.06703,0.4192 -0.02088,0.50712 -0.08792,0.0879 -0.150452,-0.0683 -0.138964,-0.34727 z m -9.260416,-0.26458 c 0.0127,-0.30823 0.07539,-0.37092 0.15985,-0.15985 0.07643,0.19099 0.06703,0.4192 -0.02088,0.50712 -0.08792,0.0879 -0.150453,-0.0684 -0.138965,-0.34727 z m 41.191045,-1.09112 c 0.32912,-0.0633 0.80537,-0.0609 1.05834,0.005 0.25296,0.0662 -0.0163,0.11801 -0.5984,0.11507 -0.58208,-0.003 -0.78905,-0.0571 -0.45994,-0.12041 z m 8.3723,-12.04985 -0.50403,-0.59532 0.59532,0.50403 c 0.32742,0.27722 0.59531,0.54511 0.59531,0.59532 0,0.21173 -0.21294,0.0554 -0.6866,-0.50403 z M 66.658091,99.820363 c 0.0127,-0.308226 0.07539,-0.370919 0.159851,-0.159853 0.07643,0.190995 0.06703,0.4192 -0.02088,0.50712 -0.08792,0.0879 -0.150452,-0.0684 -0.138964,-0.347267 z m 169.862499,-1.5875 c 0.0127,-0.308226 0.0754,-0.370919 0.15985,-0.159853 0.0764,0.190995 0.067,0.4192 -0.0209,0.507119 -0.0879,0.08792 -0.15046,-0.06835 -0.13897,-0.347266 z M 104.53876,96.617317 c 0.25467,-0.06655 0.67139,-0.06655 0.92605,0 0.25466,0.06655 0.0463,0.121002 -0.46302,0.121002 -0.50933,0 -0.71769,-0.05445 -0.46303,-0.121002 z M -25.41691,87.64953 c 0.0127,-0.308227 0.07539,-0.37092 0.159853,-0.159854 0.07643,0.190995 0.06703,0.419201 -0.02089,0.507119 -0.08792,0.08792 -0.150453,-0.06835 -0.138965,-0.347265 z m 0,-7.14375 c 0.0127,-0.308227 0.07539,-0.37092 0.159853,-0.159854 0.07643,0.190995 0.06703,0.419201 -0.02089,0.507119 -0.08792,0.08792 -0.150453,-0.06835 -0.138965,-0.347265 z m 18.2562504,-3.704167 c 0.012695,-0.308227 0.075391,-0.37092 0.1598525,-0.159853 0.07643,0.190994 0.067031,0.4192 -0.020889,0.507118 -0.087919,0.08792 -0.150453,-0.06835 -0.1389645,-0.347265 z M 271.74085,70.473661 c 0.005,-0.436563 0.0647,-0.583126 0.13179,-0.325695 0.0671,0.257432 0.0627,0.61462 -0.01,0.79375 -0.0725,0.179131 -0.12734,-0.03149 -0.12197,-0.468055 z m 9.28815,-3.307292 c 0,-0.800365 0.0496,-1.127787 0.11022,-0.727604 0.0606,0.400182 0.0606,1.055026 0,1.455208 -0.0606,0.400182 -0.11022,0.07276 -0.11022,-0.727604 z m -9.29794,-3.704167 c 0,-0.363802 0.0601,-0.51263 0.13346,-0.330729 0.0734,0.181901 0.0734,0.479557 0,0.661458 -0.0734,0.181901 -0.13346,0.03307 -0.13346,-0.330729 z m -67.93254,-13.295313 -0.50403,-0.595312 0.59532,0.504029 c 0.32742,0.277214 0.59531,0.545105 0.59531,0.595312 0,0.211733 -0.21294,0.05542 -0.6866,-0.504029 z m -3.03759,-3.042708 -0.64144,-0.727604 0.72761,0.641432 c 0.40018,0.35279 0.7276,0.680212 0.7276,0.727604 0,0.207508 -0.21426,0.03862 -0.81377,-0.641432 z M 98.387202,38.226889 c 0,-0.05494 0.20836,-0.2633 0.463021,-0.463021 0.419645,-0.329107 0.429004,-0.319749 0.0999,0.0999 -0.345643,0.44073 -0.562917,0.580888 -0.562917,0.363125 z M -5.9909227,25.626785 c 0.263389,-0.291042 0.5384205,-0.529167 0.6111809,-0.529167 0.07276,0 -0.083209,0.238125 -0.3465975,0.529167 -0.263389,0.291042 -0.5384205,0.529167 -0.6111809,0.529167 -0.07276,0 0.083209,-0.238125 0.3465975,-0.529167 z M -4.271131,23.93939 c 0,-0.05494 0.2083594,-0.263301 0.4630208,-0.463021 0.419644,-0.329107 0.4290023,-0.319749 0.099895,0.0999 -0.3456435,0.440729 -0.5629156,0.580887 -0.5629156,0.363126 z m 52.06151,-0.885607 c 0.475548,-0.05889 1.189923,-0.05767 1.5875,0.0027 0.397576,0.06037 0.0085,0.108551 -0.864635,0.107066 -0.873125,-0.0015 -1.198414,-0.05088 -0.722865,-0.109766 z M 196.23343,19.096044 c 0.19099,-0.07643 0.4192,-0.06703 0.50712,0.02089 0.0879,0.08792 -0.0684,0.150453 -0.34727,0.138965 -0.30823,-0.01269 -0.37092,-0.07539 -0.15985,-0.159853 z m 1.32291,-9.2604164 c 0.191,-0.07643 0.4192,-0.067031 0.50712,0.020889 0.0879,0.087919 -0.0683,0.1504524 -0.34726,0.1389645 -0.30823,-0.012695 -0.37092,-0.075391 -0.15986,-0.1598535 z"
         id="path859" />
      <path
         style="fill:#333333;fill-opacity:1;stroke-width:0.264583"
         d="m 193.10804,300.95813 c 0,-0.0549 0.20836,-0.26329 0.46302,-0.46302 0.41964,-0.32909 0.429,-0.31975 0.0999,0.0999 -0.34564,0.44071 -0.56291,0.58089 -0.56291,0.36311 z m -55.01245,-30.48151 c 0.0127,-0.30824 0.0754,-0.37092 0.15985,-0.15986 0.0764,0.191 0.067,0.41921 -0.0209,0.50713 -0.0879,0.0879 -0.15046,-0.0684 -0.13897,-0.34727 z m -0.26458,-4.7625 c 0.0127,-0.30823 0.0754,-0.37092 0.15985,-0.15986 0.0764,0.191 0.067,0.41921 -0.0209,0.50713 -0.0879,0.0879 -0.15045,-0.0684 -0.13896,-0.34727 z m -0.26459,-6.08542 c 0.0127,-0.30823 0.0754,-0.37092 0.15986,-0.15986 0.0764,0.191 0.067,0.41921 -0.0209,0.50712 -0.0879,0.0879 -0.15045,-0.0684 -0.13896,-0.34726 z m -9.26041,-0.52917 c 0.0127,-0.30822 0.0754,-0.37092 0.15985,-0.15985 0.0764,0.19099 0.067,0.4192 -0.0209,0.50712 -0.0879,0.0879 -0.15045,-0.0684 -0.13896,-0.34727 z m 9.047,-8.84149 c 0,-0.65485 0.0516,-0.92274 0.11467,-0.59532 0.0631,0.32743 0.0631,0.86321 0,1.19063 -0.0631,0.32742 -0.11467,0.0595 -0.11467,-0.59531 z m -16.43445,0.26458 c 0,-0.3638 0.0601,-0.51263 0.13345,-0.33073 0.0734,0.1819 0.0734,0.47956 0,0.66146 -0.0734,0.1819 -0.13345,0.0331 -0.13345,-0.33073 z m 7.1687,-1.45521 c 0.003,-0.58208 0.0571,-0.78905 0.1204,-0.45993 0.0633,0.32911 0.0609,0.80536 -0.005,1.05833 -0.0662,0.25297 -0.118,-0.0163 -0.11507,-0.5984 z m -30.422627,0.21352 c 0.257432,-0.0671 0.614619,-0.0627 0.79375,0.01 0.179131,0.0725 -0.03149,0.12736 -0.468056,0.12197 -0.436562,-0.005 -0.583125,-0.0647 -0.325694,-0.13177 z m 1.847049,10e-4 c 0.254661,-0.0666 0.671378,-0.0666 0.926038,0 0.25466,0.0666 0.0463,0.121 -0.463018,0.121 -0.509323,0 -0.717682,-0.0544 -0.46302,-0.121 z m 132.027078,-12.9717 c 0.40019,-0.0606 1.05503,-0.0606 1.45521,0 0.40019,0.0606 0.0728,0.11022 -0.7276,0.11022 -0.80037,0 -1.12779,-0.0496 -0.72761,-0.11022 z M 45.277133,235.25811 c 0.257432,-0.0671 0.614619,-0.0627 0.79375,0.01 0.179131,0.0725 -0.03149,0.12737 -0.468056,0.12197 -0.436562,-0.005 -0.583125,-0.0647 -0.325694,-0.13177 z M 36.705535,221.4846 c -0.329107,-0.41965 -0.319749,-0.429 0.0999,-0.0999 0.254662,0.19972 0.463021,0.40808 0.463021,0.46302 0,0.21777 -0.217273,0.0776 -0.562917,-0.36312 z m 18.290001,-0.19844 c 0.341775,-0.3638 0.680939,-0.66146 0.7537,-0.66146 0.07276,0 -0.147341,0.29766 -0.489117,0.66146 -0.341776,0.3638 -0.68094,0.66146 -0.7537,0.66146 -0.07276,0 0.147341,-0.29766 0.489117,-0.66146 z m 66.939584,0.57867 c 0,-0.0455 0.38695,-0.43249 0.85989,-0.8599 l 0.8599,-0.7771 -0.7771,0.85989 c -0.72438,0.80155 -0.94269,0.98152 -0.94269,0.77711 z m 15.41255,-1.637 c 0.003,-0.58208 0.0571,-0.78905 0.12041,-0.45994 0.0633,0.32912 0.0609,0.80537 -0.005,1.05834 -0.0662,0.25296 -0.11801,-0.0163 -0.11507,-0.5984 z m -102.215911,-0.33073 -0.641432,-0.7276 0.727605,0.64143 c 0.680055,0.59951 0.848939,0.81377 0.641432,0.81377 -0.04739,0 -0.374815,-0.32742 -0.727605,-0.7276 z m 88.655441,0.0985 c 0,-0.0549 0.20836,-0.2633 0.46302,-0.46302 0.41965,-0.32911 0.42901,-0.31975 0.0999,0.0999 -0.34564,0.44073 -0.56292,0.58088 -0.56292,0.36312 z m -16.66875,-3.42248 c 0,-0.0455 0.38696,-0.43249 0.8599,-0.85989 l 0.85989,-0.77711 -0.7771,0.8599 c -0.72437,0.80154 -0.94269,0.98151 -0.94269,0.7771 z m 112.99797,-1.65905 c 0.0127,-0.30822 0.0754,-0.37092 0.15986,-0.15985 0.0764,0.191 0.067,0.4192 -0.0209,0.50712 -0.0879,0.0879 -0.15045,-0.0684 -0.13896,-0.34727 z m 0.0209,-2.22691 c 0,-0.3638 0.0601,-0.51263 0.13345,-0.33073 0.0734,0.18191 0.0734,0.47956 0,0.66146 -0.0734,0.1819 -0.13345,0.0331 -0.13345,-0.33073 z m 26.22315,-5.7396 c 0.25744,-0.0671 0.61463,-0.0627 0.79375,0.01 0.17915,0.0725 -0.0315,0.12736 -0.46805,0.12197 -0.43656,-0.005 -0.58311,-0.0647 -0.3257,-0.13178 z m 4.75747,10e-4 c 0.25466,-0.0665 0.67138,-0.0665 0.92604,0 0.25466,0.0666 0.0463,0.121 -0.46302,0.121 -0.50932,0 -0.71768,-0.0545 -0.46302,-0.121 z M 115.8497,206.23731 c 0,-0.0549 0.20836,-0.2633 0.46302,-0.46302 0.41965,-0.32911 0.42901,-0.31975 0.0999,0.0999 -0.34564,0.44073 -0.56292,0.58089 -0.56292,0.36313 z m -43.656248,-4.7625 c 0,-0.0549 0.20836,-0.2633 0.463021,-0.46302 0.419645,-0.32911 0.429004,-0.31975 0.0999,0.0999 -0.345643,0.44073 -0.562917,0.58089 -0.562917,0.36313 z m 60.026668,-1.95063 c -0.32911,-0.41964 -0.31975,-0.429 0.0999,-0.0999 0.25467,0.19972 0.46303,0.40808 0.46303,0.46302 0,0.21776 -0.21728,0.0776 -0.56292,-0.36313 z m -57.645418,-0.69521 c 0,-0.0549 0.20836,-0.2633 0.463021,-0.46302 0.419645,-0.3291 0.429004,-0.31975 0.0999,0.0999 -0.345643,0.44073 -0.562917,0.58089 -0.562917,0.36312 z m 2.645834,-2.91041 c 0,-0.0549 0.208359,-0.2633 0.46302,-0.46302 0.419646,-0.32911 0.429004,-0.31975 0.0999,0.0999 -0.345644,0.44073 -0.562917,0.58089 -0.562917,0.36313 z m 3.175,-3.43959 c 0,-0.0549 0.208359,-0.2633 0.463021,-0.46302 0.419645,-0.3291 0.429003,-0.31975 0.0999,0.0999 -0.345644,0.44073 -0.562917,0.58089 -0.562917,0.36312 z m 5.800807,-9.62354 -0.641432,-0.7276 0.727604,0.64143 c 0.680056,0.59952 0.848939,0.81378 0.641432,0.81378 -0.04739,0 -0.374814,-0.32743 -0.727604,-0.72761 z m -1.601224,-1.5875 c -0.329108,-0.41964 -0.319749,-0.429 0.0999,-0.0999 0.44073,0.34564 0.580887,0.56291 0.363125,0.56291 -0.05494,0 -0.263301,-0.20836 -0.463021,-0.46302 z M 226.75189,159.50595 c 0,-0.3638 0.0601,-0.51263 0.13346,-0.33073 0.0734,0.1819 0.0734,0.47956 0,0.66146 -0.0734,0.1819 -0.13346,0.0331 -0.13346,-0.33073 z M 65.335175,157.49953 c 0.0127,-0.30823 0.07539,-0.37092 0.15985,-0.15985 0.07643,0.19099 0.06703,0.4192 -0.02088,0.50712 -0.08792,0.0879 -0.150453,-0.0684 -0.138965,-0.34727 z m 9.324213,-2.22691 c 0,-0.94589 0.04802,-1.33284 0.106714,-0.8599 0.05869,0.47295 0.05869,1.24685 0,1.7198 -0.05869,0.47294 -0.106714,0.086 -0.106714,-0.8599 z M 226.75189,153.9497 c 0,-0.3638 0.0601,-0.51263 0.13346,-0.33073 0.0734,0.1819 0.0734,0.47956 0,0.66146 -0.0734,0.1819 -0.13346,0.0331 -0.13346,-0.33073 z m -102.9438,-10.73767 c 0.0127,-0.30823 0.0754,-0.37092 0.15985,-0.15985 0.0764,0.19099 0.067,0.4192 -0.0209,0.50712 -0.0879,0.0879 -0.15046,-0.0684 -0.13897,-0.34727 z M 76.183091,137.3912 c 0.0127,-0.30823 0.07539,-0.37092 0.159851,-0.15986 0.07643,0.191 0.06703,0.4192 -0.02088,0.50712 -0.08792,0.0879 -0.150452,-0.0684 -0.138964,-0.34726 z m 0.28547,-5.6665 c 0,-0.3638 0.06006,-0.51263 0.133453,-0.33073 0.0734,0.1819 0.0734,0.47956 0,0.66146 -0.0734,0.1819 -0.133453,0.0331 -0.133453,-0.33073 z m 47.339529,-0.15434 c 0.0127,-0.30822 0.0754,-0.37092 0.15985,-0.15985 0.0764,0.19099 0.067,0.4192 -0.0209,0.50712 -0.0879,0.0879 -0.15046,-0.0684 -0.13897,-0.34727 z m 9.26042,-1.05833 c 0.0127,-0.30823 0.0754,-0.37092 0.15985,-0.15985 0.0764,0.19099 0.067,0.4192 -0.0209,0.50712 -0.0879,0.0879 -0.15045,-0.0684 -0.13896,-0.34727 z m -65.835418,-1.03629 c 0.0029,-0.58208 0.05712,-0.78905 0.120406,-0.45993 0.06329,0.32912 0.06088,0.80537 -0.0053,1.05833 -0.06622,0.25297 -0.118005,-0.0163 -0.115068,-0.5984 z m 157.116668,-1.34496 c 0.0127,-0.30823 0.0754,-0.37092 0.15985,-0.15985 0.0764,0.19099 0.067,0.4192 -0.0209,0.50712 -0.0879,0.0879 -0.15045,-0.0684 -0.13896,-0.34727 z m 9.29111,-2.3592 c 0.005,-0.43656 0.0647,-0.58313 0.13177,-0.3257 0.0671,0.25744 0.0627,0.61462 -0.01,0.79375 -0.0725,0.17913 -0.12736,-0.0315 -0.12197,-0.46805 z m -9.29111,-2.4033 c 0.0127,-0.30823 0.0754,-0.37092 0.15985,-0.15985 0.0764,0.19099 0.067,0.4192 -0.0209,0.50712 -0.0879,0.0879 -0.15045,-0.0684 -0.13896,-0.34727 z M 67.238431,121.93512 c 0,-0.65484 0.0516,-0.92274 0.114662,-0.59531 0.06307,0.32742 0.06307,0.8632 0,1.19062 -0.06306,0.32742 -0.114662,0.0595 -0.114662,-0.59531 z m 9.23013,-2.11667 c 0,-0.3638 0.06006,-0.51263 0.133453,-0.33073 0.0734,0.1819 0.0734,0.47956 0,0.66146 -0.0734,0.1819 -0.133453,0.0331 -0.133453,-0.33073 z m 120.364529,-5.71059 c 0.0127,-0.30822 0.0754,-0.37092 0.15985,-0.15985 0.0764,0.19099 0.067,0.4192 -0.0209,0.50712 -0.0879,0.0879 -0.15046,-0.0683 -0.13897,-0.34727 z M 76.183091,113.31411 c 0.0127,-0.30822 0.07539,-0.37092 0.159851,-0.15985 0.07643,0.19099 0.06703,0.4192 -0.02088,0.50712 -0.08792,0.0879 -0.150452,-0.0683 -0.138964,-0.34727 z m 38.740569,-3.28524 c 0.26339,-0.29104 0.53842,-0.52917 0.61118,-0.52917 0.0728,0 -0.0832,0.23813 -0.3466,0.52917 -0.26339,0.29104 -0.53842,0.52917 -0.61118,0.52917 -0.0728,0 0.0832,-0.23813 0.3466,-0.52917 z m -13.2543,-0.33073 -0.50403,-0.59531 0.59531,0.50403 c 0.32742,0.27721 0.59531,0.5451 0.59531,0.59531 0,0.21173 -0.21293,0.0554 -0.68659,-0.50403 z m -35.011269,-0.0882 c 0.0127,-0.30823 0.07539,-0.37092 0.159851,-0.15986 0.07643,0.191 0.06703,0.4192 -0.02088,0.50712 -0.08792,0.0879 -0.150452,-0.0684 -0.138964,-0.34726 z m 130.174999,-0.26459 c 0.0127,-0.30822 0.0754,-0.37092 0.15985,-0.15985 0.0764,0.19099 0.067,0.4192 -0.0209,0.50712 -0.0879,0.0879 -0.15046,-0.0683 -0.13897,-0.34727 z M 75.918508,108.55161 c 0.0127,-0.30822 0.07539,-0.37092 0.159851,-0.15985 0.07643,0.19099 0.06703,0.4192 -0.02088,0.50712 -0.08792,0.0879 -0.150453,-0.0684 -0.138965,-0.34727 z m 128.811172,-2.16076 -0.64144,-0.72761 0.72761,0.64144 c 0.40018,0.35279 0.7276,0.68021 0.7276,0.7276 0,0.20751 -0.21426,0.0386 -0.81377,-0.64143 z m -99.12894,-4.75392 c 0.40218,-0.0608 0.99749,-0.0592 1.32291,0.004 0.32542,0.0628 -0.004,0.11256 -0.73124,0.11058 -0.7276,-0.002 -0.99386,-0.0534 -0.59167,-0.11419 z M 66.658091,99.026613 c 0.0127,-0.308226 0.07539,-0.370919 0.159851,-0.159853 0.07643,0.190995 0.06703,0.4192 -0.02088,0.507119 -0.08792,0.08792 -0.150452,-0.06835 -0.138964,-0.347266 z M 227.26017,97.703696 c 0.0127,-0.308226 0.0754,-0.370919 0.15986,-0.159853 0.0764,0.190995 0.067,0.419201 -0.0209,0.507119 -0.0879,0.08792 -0.15045,-0.06835 -0.13896,-0.347266 z m 9.54589,-6.724827 c 0,-0.363802 0.0601,-0.51263 0.13345,-0.330729 0.0734,0.181901 0.0734,0.479557 0,0.661458 -0.0734,0.181901 -0.13345,0.03307 -0.13345,-0.330729 z M -7.1397713,89.920536 c 0,-0.363802 0.060053,-0.512631 0.1334521,-0.330729 0.073399,0.181901 0.073399,0.479557 0,0.661458 -0.073399,0.181901 -0.1334521,0.03307 -0.1334521,-0.330729 z M 104.53876,87.3569 c 0.25467,-0.06655 0.67139,-0.06655 0.92605,0 0.25466,0.06655 0.0463,0.121002 -0.46302,0.121002 -0.50933,0 -0.71769,-0.05445 -0.46303,-0.121002 z M -25.376414,86.480952 c 0,-0.509323 0.05445,-0.717682 0.121,-0.463021 0.06655,0.254662 0.06655,0.671381 0,0.926042 -0.06655,0.254662 -0.121,0.0463 -0.121,-0.463021 z m 0,-4.7625 c 0,-0.509323 0.05445,-0.717682 0.121,-0.463021 0.06655,0.254662 0.06655,0.671381 0,0.926042 -0.06655,0.254662 -0.121,0.0463 -0.121,-0.463021 z m 18.2157544,-4.123089 c 0.012695,-0.308227 0.075391,-0.37092 0.1598525,-0.159853 0.07643,0.190994 0.067031,0.4192 -0.020889,0.507118 -0.087919,0.08792 -0.150453,-0.06835 -0.1389645,-0.347265 z M 271.71016,69.393279 c 0.0127,-0.308226 0.0754,-0.370919 0.15986,-0.159853 0.0764,0.190995 0.067,0.419201 -0.0209,0.507119 -0.0879,0.08792 -0.15047,-0.06835 -0.13899,-0.347266 z m 9.26042,-0.529166 c 0.0127,-0.308227 0.0754,-0.37092 0.15986,-0.159854 0.0764,0.190995 0.067,0.419201 -0.0209,0.507119 -0.0879,0.08792 -0.15047,-0.06835 -0.13899,-0.347265 z m 0.0307,-3.682119 c 0.005,-0.436563 0.0647,-0.583126 0.13179,-0.325694 0.0671,0.257431 0.0627,0.614619 -0.01,0.79375 -0.0725,0.179131 -0.12734,-0.03149 -0.12197,-0.468056 z m -9.29111,-0.815798 c 0.0127,-0.308226 0.0754,-0.370919 0.15986,-0.159853 0.0764,0.190995 0.067,0.419198 -0.0209,0.507119 -0.0879,0.08792 -0.15047,-0.06835 -0.13899,-0.347266 z m -69.35595,-15.654515 -0.9118,-0.992187 0.99219,0.911799 c 0.92351,0.84868 1.11384,1.072576 0.9118,1.072576 -0.0442,0 -0.4907,-0.446485 -0.99219,-0.992188 z m 9.50549,-3.439583 c -0.32911,-0.419645 -0.31975,-0.429004 0.0999,-0.0999 0.44073,0.345643 0.58089,0.562917 0.36312,0.562917 -0.0549,0 -0.2633,-0.20836 -0.46302,-0.463021 z m 52.12291,-1.322917 c -0.32909,-0.419645 -0.31975,-0.429003 0.0999,-0.0999 0.25467,0.199721 0.46303,0.40808 0.46303,0.463021 0,0.217762 -0.21728,0.0776 -0.56293,-0.363125 z m -5.02709,-5.027083 c -0.32908,-0.419645 -0.31974,-0.429004 0.0999,-0.0999 0.44072,0.345643 0.58089,0.562917 0.36312,0.562917 -0.0549,0 -0.26329,-0.20836 -0.46303,-0.463021 z m -53.97498,-0.529167 c -0.32911,-0.419645 -0.31975,-0.429003 0.0999,-0.0999 0.44073,0.345644 0.58089,0.562917 0.36313,0.562917 -0.0549,0 -0.2633,-0.20836 -0.46302,-0.463021 z M -4.9325893,24.568452 c 0.263389,-0.291042 0.5384204,-0.529167 0.6111809,-0.529167 0.07276,0 -0.083209,0.238125 -0.3465976,0.529167 -0.263389,0.291041 -0.5384205,0.529166 -0.6111809,0.529166 -0.07276,0 0.083209,-0.238125 0.3465976,-0.529166 z M 54.681343,23.329378 c 0.190995,-0.07643 0.4192,-0.06703 0.507119,0.02089 0.08792,0.08792 -0.06835,0.150453 -0.347266,0.138964 -0.308226,-0.0127 -0.370919,-0.07539 -0.159853,-0.159852 z m 79.904167,-0.79375 c 0.19099,-0.07643 0.4192,-0.06703 0.50712,0.02089 0.0879,0.08792 -0.0684,0.150453 -0.34727,0.138964 -0.30822,-0.0127 -0.37092,-0.07539 -0.15985,-0.159852 z m 8.99583,0 c 0.191,-0.07643 0.4192,-0.06703 0.50712,0.02089 0.0879,0.08792 -0.0684,0.150453 -0.34726,0.138964 -0.30823,-0.0127 -0.37092,-0.07539 -0.15986,-0.159852 z m 65.61667,-3.439584 c 0.19099,-0.07643 0.4192,-0.06703 0.50712,0.02089 0.0879,0.08792 -0.0684,0.150453 -0.34727,0.138965 -0.30822,-0.01269 -0.37092,-0.07539 -0.15985,-0.159853 z m -65.88125,-5.820833 c 0.19099,-0.07643 0.4192,-0.06703 0.50712,0.02089 0.0879,0.08792 -0.0684,0.150453 -0.34727,0.138964 -0.30822,-0.01269 -0.37092,-0.07539 -0.15985,-0.159852 z m -0.0165,-8.725738 c 0.1819,-0.073399 0.47956,-0.073399 0.66146,0 0.1819,0.073399 0.0331,0.1334521 -0.33073,0.1334521 -0.3638,0 -0.51263,-0.060053 -0.33073,-0.1334521 z m 54.52071,-3.4450955 c 0.19099,-0.07643 0.4192,-0.067031 0.50712,0.020888 0.0879,0.087919 -0.0684,0.1504528 -0.34727,0.1389643 -0.30823,-0.012696 -0.37092,-0.07539 -0.15985,-0.1598523 z m 10.84791,0 c 0.191,-0.07643 0.4192,-0.067031 0.50712,0.020888 0.0879,0.087919 -0.0684,0.1504528 -0.34726,0.1389643 -0.30823,-0.012696 -0.37092,-0.07539 -0.15986,-0.1598523 z"
         id="path857" />
      <path
         style="fill:#2c5aa0;fill-opacity:1;stroke-width:0.264583"
         d="m 160.38304,310.31644 c -3.04278,-0.44489 -6.56065,-1.80472 -9.00665,-3.48149 -1.7106,-1.17263 -4.29939,-3.88342 -5.68633,-5.95426 -1.5081,-2.25177 -3.59293,-6.39871 -4.53463,-9.01986 -1.17934,-3.28261 -2.19193,-10.36399 -2.80871,-19.64238 -0.77363,-11.63766 -0.89179,-16.60132 -0.93218,-39.15833 l -0.0429,-23.94479 -0.72435,-2.11667 c -2.04105,-5.96433 -5.8379,-10.04856 -11.21857,-12.06773 -2.03222,-0.76262 -2.62187,-0.86615 -5.01499,-0.88055 -1.49158,-0.009 -2.71197,-0.12253 -2.71197,-0.25236 0,-1.30102 4.40909,-13.25706 7.29587,-19.78405 6.50864,-14.71601 8.31454,-22.71995 8.31454,-36.85085 0,-12.81024 -2.71531,-30.21784 -5.69647,-36.5195 -2.33601,-4.937901 -6.04959,-8.667304 -10.82974,-10.875868 -9.19111,-4.246557 -23.185314,-2.561823 -37.514934,4.516345 l -2.84427,1.40494 v -0.757465 c 0,-0.416605 0.233902,-2.577722 0.519784,-4.802478 3.222744,-25.07967 11.958574,-44.046734 25.54167,-55.45558 7.28212,-6.116461 15.87481,-9.843862 26.45834,-11.477287 3.01784,-0.465763 4.90523,-0.573835 10.18646,-0.583276 12.45665,-0.02226 22.59159,1.85711 33.57201,6.225437 20.33987,8.091783 38.20451,25.224621 49.20724,47.191523 1.60641,3.207202 4.26856,9.369885 4.26872,9.88179 2e-5,0.09481 -3.36349,0.172376 -7.47448,0.172376 -6.79077,0 -7.73338,0.05544 -10.30408,0.606068 -4.58319,0.981681 -8.15852,2.362063 -10.7965,4.168368 -12.86613,8.809836 -13.36612,25.961137 -1.53763,52.746307 2.27437,5.15024 7.04942,14.51079 11.35084,22.25113 2.06214,3.71078 4.31038,7.9978 4.99609,9.5267 2.34042,5.2184 4.51685,8.70677 9.12865,14.63139 1.56389,2.00909 2.80052,3.69202 2.74806,3.73987 -0.0525,0.0478 -1.04788,0.46377 -2.21205,0.9243 -3.64656,1.44252 -6.37643,3.65135 -8.19628,6.63191 -2.05075,3.35873 -2.72983,6.35742 -3.05581,13.49375 -0.25069,5.4884 -1.22998,14.62005 -3.58933,33.46979 -2.60155,20.78477 -4.28338,31.98561 -5.55741,37.01159 -3.43069,13.53399 -10.36355,19.88751 -25.86097,23.69989 -5.87748,1.44587 -11.39756,1.92191 -15.43707,1.3313 z m -32.32073,-59.79382 c 0,-0.3638 0.0601,-0.51263 0.13345,-0.33073 0.0734,0.1819 0.0734,0.47956 0,0.66146 -0.0734,0.1819 -0.13345,0.0331 -0.13345,-0.33073 z M 46.462723,235.26614 c 0.181901,-0.0734 0.479557,-0.0734 0.661458,0 0.181902,0.0734 0.03307,0.13346 -0.330729,0.13346 -0.363802,0 -0.51263,-0.0601 -0.330729,-0.13346 z m -22.97263,-0.81696 -0.641432,-0.7276 0.727604,0.64143 c 0.680056,0.59952 0.848939,0.81378 0.641432,0.81378 -0.04739,0 -0.374814,-0.32742 -0.727604,-0.72761 z m 68.811693,-4.43981 c -3.755827,-0.56996 -7.547523,-1.59345 -9.712921,-2.62179 -1.060809,-0.50378 -1.928746,-0.97165 -1.928746,-1.03972 0,-0.26999 3.545747,-1.27196 8.04314,-2.27286 8.393311,-1.86794 12.318211,-3.2202 15.784241,-5.43822 2.28426,-1.46178 4.05316,-3.23468 7.388,-7.40478 4.63623,-5.79743 6.36783,-7.51175 7.97668,-7.8971 0.888,-0.21269 3.45321,0.65714 4.66599,1.58218 2.20775,1.68393 3.97505,5.79879 3.64052,8.47633 -0.14658,1.17314 -0.44028,1.76957 -1.70593,3.46431 -1.75114,2.34482 -5.01317,5.62054 -7.30157,7.33219 -3.20538,2.39753 -8.05712,4.52765 -12.6942,5.57329 -2.65463,0.59861 -10.8891,0.74181 -14.155204,0.24617 z M 44.015327,225.82123 C 32.141391,222.8569 18.236849,196.64639 6.3089268,154.74345 0.82289456,135.47095 -4.3941959,111.48563 -6.553498,95.609077 -7.1373556,91.316189 -7.2284324,77.141698 -6.701403,72.590327 -4.4096536,52.799025 2.2280623,39.967472 14.356308,31.883078 c 6.258782,-4.17195 13.864093,-6.760206 23.970478,-8.157686 3.887176,-0.537507 17.368641,-0.449068 22.357291,0.146665 8.155938,0.973963 16.75742,2.667156 24.441542,4.811293 2.829891,0.789635 4.050435,1.152922 7.122009,2.119812 0.208055,0.06549 -0.604396,1.163958 -2.067713,2.795622 -1.325735,1.478259 -3.10488,3.600011 -3.953653,4.715007 C 72.9193,55.79454 65.323858,84.817374 66.901301,112.15612 c 0.421635,7.30735 0.431475,20.49433 0.01916,25.654 -0.168624,2.11005 -0.535723,5.80099 -0.815776,8.20208 -0.771102,6.61115 -0.892141,9.5592 -0.543158,13.22917 0.410609,4.31807 1.152676,7.86484 2.403001,11.48537 2.553946,7.39538 5.716231,12.52892 11.042809,17.9265 l 2.523032,2.55666 -0.765847,0.90871 c -0.421216,0.49979 -2.552597,2.86164 -4.736401,5.24855 -5.038839,5.50748 -10.363367,11.56949 -15.19922,17.30442 -4.61709,5.47549 -6.553814,7.51607 -8.552005,9.01057 -2.640217,1.9747 -5.722872,2.77286 -8.261554,2.13908 z m 181.912823,-8.68649 c -1.08492,-0.13568 -2.74563,-0.50727 -3.69045,-0.82576 -2.10187,-0.70851 -2.22635,-1.01964 -1.87661,-4.69028 0.54578,-5.72816 2.07183,-7.50196 7.8412,-9.11423 l 1.62447,-0.45396 1.41824,0.95728 c 4.22571,2.85224 12.01536,4.37696 20.46824,4.00638 5.45288,-0.23907 15.62389,-1.58266 18.52084,-2.44661 0.82603,-0.24635 -2.37562,2.32158 -5.15938,4.13815 -5.71598,3.73004 -11.96795,6.18833 -18.88709,7.42646 -6.75175,1.20818 -15.25171,1.62881 -20.25946,1.00257 z m 56.62993,-15.44979 c 0.0127,-0.30823 0.0754,-0.37092 0.15986,-0.15986 0.0764,0.191 0.067,0.4192 -0.0209,0.50712 -0.0879,0.0879 -0.15047,-0.0683 -0.13899,-0.34726 z m -8.94694,-6.91469 c 0.40219,-0.0608 0.99751,-0.0592 1.32292,0.004 0.32543,0.0628 -0.004,0.11256 -0.73123,0.11057 -0.72761,-0.002 -0.99386,-0.0534 -0.59169,-0.11418 z m -170.21756,-3.13113 c -11.406987,-2.06565 -21.12984,-10.26195 -25.794209,-21.74434 -0.6546,-1.61145 -1.508762,-4.28074 -1.898142,-5.93177 -0.640902,-2.71752 -0.708988,-3.50308 -0.718806,-8.29353 -0.0071,-3.47751 0.148399,-6.60692 0.453652,-9.12812 0.736393,-6.08218 0.975442,-9.4684 1.158036,-16.40417 0.153781,-5.84139 -0.20901,-19.47236 -0.584946,-21.9777 -0.135549,-0.90335 -0.07644,-0.98877 1.394806,-2.01551 5.13297,-3.58217 13.580412,-7.17028 20.164822,-8.565158 3.583387,-0.759124 9.351917,-0.960163 11.906027,-0.414936 5.09809,1.088292 8.394,3.910234 10.21381,8.745024 1.3902,3.69343 3.5537,16.47259 4.12422,24.36057 0.36647,5.06683 0.1633,13.94404 -0.40756,17.8074 -0.95247,6.44607 -2.71556,12.42588 -5.63203,19.10198 -4.20749,9.63138 -6.92765,16.70551 -8.67316,22.55573 l -0.69075,2.3151 -1.50535,-0.0237 c -0.82793,-0.0131 -2.40763,-0.18713 -3.51042,-0.38683 z m 7.65773,-79.19743 c 2.97228,-0.92508 5.59214,-3.50449 5.59214,-5.5058 0,-2.74323 -4.95474,-5.21509 -10.45104,-5.21389 -2.98525,5.3e-4 -4.81742,0.5715 -5.94079,1.85094 -0.478133,0.54457 -0.805034,1.21036 -0.803499,1.63648 0.007,1.94198 2.492709,5.24499 4.865529,6.46529 2.60466,1.33952 4.28389,1.53068 6.73766,0.76698 z m 118.60199,72.77485 -0.5509,-0.77367 1.68849,-3.34335 c 3.99818,-7.91678 5.70384,-16.43772 5.3552,-26.75295 -0.0958,-2.83346 -0.55994,-8.08473 -1.14597,-12.96459 -0.9178,-7.64247 -0.98506,-8.70753 -0.98587,-15.61041 l -8e-4,-7.40834 1.26057,-8.46666 c 1.44249,-9.68861 1.94767,-17.669087 1.33989,-21.166669 -0.9526,-5.481913 -5.19427,-15.481242 -10.05773,-23.710107 -5.10883,-8.644022 -10.1827,-15.273544 -17.12292,-22.372823 -7.83485,-8.014401 -16.10761,-14.1282 -25.76802,-19.043271 l -4.28349,-2.179378 1.37308,-0.280381 c 2.10246,-0.42932 7.88957,-1.266287 11.42724,-1.652679 4.90031,-0.53522 18.13266,-0.450247 22.75417,0.146119 12.94908,1.670965 22.80596,4.908629 32.4353,10.653948 7.33504,4.376428 14.25437,10.411825 19.6605,17.148905 3.42315,4.265938 4.72487,9.665428 4.72368,19.593833 0,6.147067 -0.29474,9.946381 -1.28984,16.667755 -4.43463,29.953548 -18.1547,66.268158 -36.68074,97.087458 -1.65686,2.75631 -3.14037,5.0541 -3.29667,5.1062 -0.15631,0.0521 -0.5321,-0.25342 -0.83509,-0.67894 z m -8.24365,-12.67987 c -0.76745,-1.70987 -3.28717,-6.54316 -5.59939,-10.74065 -10.3523,-18.79307 -15.46856,-30.58524 -17.78033,-40.98089 -2.18429,-9.82237 -1.21733,-16.6327 2.94359,-20.73185 4.0235,-3.963752 12.1783,-5.575054 23.17753,-4.579631 1.77129,0.160301 3.25048,0.319241 3.2871,0.353203 0.20474,0.18991 -0.61256,7.671448 -1.51185,13.839338 -1.91523,13.1358 -1.94884,17.01112 -0.27365,31.5535 1.66962,14.49402 1.60754,20.90214 -0.27171,28.04584 -0.59036,2.24416 -2.14525,6.35 -2.40476,6.35 -0.0941,0 -0.79908,-1.39899 -1.56653,-3.10886 z m -7.4949,-64.20448 c 2.6745,-1.24529 5.12245,-4.11477 5.12245,-6.00453 0,-2.03749 -2.46202,-3.049049 -6.84421,-2.812049 -2.98306,0.16133 -5.55361,0.899779 -7.14499,2.052579 -2.05656,1.48976 -2.0579,3.04947 -0.004,5.04968 2.38448,2.32255 6.0454,3.03002 8.87111,1.71432 z M -25.353111,84.099702 c 0,-0.945885 0.04802,-1.332838 0.106712,-0.859896 0.05869,0.472943 0.05869,1.246849 0,1.719792 -0.05869,0.472943 -0.106712,0.08599 -0.106712,-0.859896 z m 25.84448,-52.75198 c 0,-0.05494 0.20835937,-0.2633 0.46302083,-0.46302 0.41964507,-0.329108 0.42900337,-0.319749 0.0998961,0.0999 -0.34564462,0.440729 -0.56291675,0.580887 -0.56291675,0.363124 z m 1.3229167,-1.322916 c 0,-0.05494 0.2083593,-0.2633 0.4630208,-0.463021 0.419645,-0.329107 0.4290034,-0.319749 0.099896,0.0999 -0.3456437,0.44073 -0.5629169,0.580887 -0.5629169,0.363125 z M 134.58551,13.275211 c 0.19099,-0.07643 0.4192,-0.06703 0.50712,0.02089 0.0879,0.08792 -0.0684,0.150453 -0.34727,0.138964 -0.30822,-0.01269 -0.37092,-0.07539 -0.15985,-0.159852 z m 7.9375,-8.7312501 c 0.19099,-0.07643 0.4192,-0.067031 0.50712,0.020889 0.0879,0.087919 -0.0684,0.1504529 -0.34727,0.1389644 -0.30822,-0.012695 -0.37092,-0.075391 -0.15985,-0.1598534 z"
         id="path855" />
      <path
         style="fill:#333333;fill-opacity:1;stroke-width:0.264583"
         d="m 121.16226,257.51203 c 0.0127,-0.30823 0.0754,-0.37092 0.15985,-0.15985 0.0764,0.19099 0.067,0.4192 -0.0209,0.50712 -0.0879,0.0879 -0.15045,-0.0684 -0.13896,-0.34727 z m 6.90005,-5.93108 c 0,-0.3638 0.0601,-0.51263 0.13345,-0.33073 0.0734,0.18191 0.0734,0.47956 0,0.66146 -0.0734,0.1819 -0.13345,0.0331 -0.13345,-0.33073 z m -7.14375,-2.64583 c 0,-0.3638 0.0601,-0.51263 0.13345,-0.33073 0.0734,0.1819 0.0734,0.47956 0,0.66146 -0.0734,0.1819 -0.13345,0.0331 -0.13345,-0.33073 z m 164.26448,-32.37906 c 0,-0.0549 0.20836,-0.2633 0.46302,-0.46302 0.41965,-0.32911 0.42899,-0.31975 0.0999,0.0999 -0.34565,0.44073 -0.56292,0.58089 -0.56292,0.36313 z M 280.97058,70.187029 c 0.0127,-0.308226 0.0754,-0.370919 0.15986,-0.159853 0.0764,0.190995 0.067,0.419201 -0.0209,0.507119 -0.0879,0.08792 -0.15047,-0.06835 -0.13899,-0.347266 z M 141.72926,4.5439609 c 0.19099,-0.07643 0.4192,-0.067031 0.50712,0.020889 0.0879,0.087919 -0.0684,0.1504529 -0.34727,0.1389644 -0.30822,-0.012695 -0.37092,-0.075391 -0.15985,-0.1598534 z m 65.61667,-3.4395834 c 0.19099,-0.07643 0.4192,-0.067031 0.50712,0.020888 0.0879,0.087919 -0.0684,0.1504528 -0.34727,0.1389643 -0.30823,-0.012696 -0.37092,-0.07539 -0.15985,-0.1598523 z"
         id="path853" />
      <path
         style="fill:#333333;fill-opacity:1;stroke-width:0.264583"
         d="m 121.16226,256.71828 c 0.0127,-0.30823 0.0754,-0.37092 0.15985,-0.15985 0.0764,0.19099 0.067,0.4192 -0.0209,0.50712 -0.0879,0.0879 -0.15045,-0.0684 -0.13896,-0.34727 z m 6.87916,-4.23333 c 0.0127,-0.30823 0.0754,-0.37092 0.15986,-0.15986 0.0764,0.191 0.067,0.41921 -0.0209,0.50712 -0.0879,0.0879 -0.15045,-0.0684 -0.13896,-0.34726 z m 156.34787,-35.16754 c 0.34176,-0.3638 0.68093,-0.66146 0.75369,-0.66146 0.0728,0 -0.14735,0.29766 -0.48911,0.66146 -0.34176,0.3638 -0.68093,0.66146 -0.75369,0.66146 -0.0728,0 0.14734,-0.29766 0.48911,-0.66146 z M 250.47301,197.6898 c 0.191,-0.0764 0.41921,-0.067 0.50713,0.0209 0.0879,0.0879 -0.0684,0.15046 -0.34727,0.13897 -0.30824,-0.0127 -0.37092,-0.0754 -0.15986,-0.15985 z m 17.36987,-163.133327 -1.31297,-1.389063 1.38906,1.312971 c 0.76399,0.722133 1.38907,1.347211 1.38907,1.389063 0,0.197429 -0.24511,-0.02222 -1.46516,-1.312971 z M 138.27314,4.5309723 c 0.61846,-0.055704 1.63049,-0.055704 2.24896,0 0.61846,0.055704 0.11245,0.1012801 -1.12448,0.1012801 -1.23693,0 -1.74294,-0.045576 -1.12448,-0.1012801 z"
         id="path851" />
      <path
         style="fill:#333333;fill-opacity:1;stroke-width:0.264583"
         d="m 158.97679,328.15928 c -0.36381,-0.0635 -1.55443,-0.24709 -2.64584,-0.40801 -8.62548,-1.27185 -16.23549,-5.88232 -21.66189,-13.12373 -2.98175,-3.97907 -5.28635,-8.96747 -8.0618,-17.45007 -3.44261,-10.5216 -4.66021,-20.46189 -5.46807,-44.64049 -0.13559,-4.05809 -0.29455,-7.42636 -0.35324,-7.48506 -0.0587,-0.0587 -0.985,0.23986 -2.05846,0.66343 -2.80069,1.10512 -6.23998,2.05841 -9.88925,2.74107 -2.7186,0.50855 -4.08778,0.59516 -9.524996,0.60246 -6.637123,0.009 -8.551463,-0.17309 -14.238608,-1.35374 -7.631808,-1.58435 -13.626922,-4.42523 -17.955294,-8.5084 l -1.78848,-1.68716 -2.058808,1.50603 c -8.499731,6.2176 -18.850361,7.48598 -28.161488,3.45096 C 18.933354,235.45609 5.0021391,212.18089 -7.9728177,170.48616 -15.073299,147.66893 -21.717877,118.7157 -24.397623,98.916369 -25.465955,91.022986 -25.387456,76.62811 -24.227368,67.695535 -18.363605,22.545079 14.002931,0.330513 64.785119,6.6023777 74.890157,7.8504025 88.742251,10.993131 97.792977,14.091118 l 1.919317,0.656966 3.240056,-1.686624 c 6.20405,-3.2295384 12.16195,-5.3234096 19.23117,-6.7586951 6.71244,-1.3628458 10.67719,-1.6533061 20.25681,-1.4840292 8.18075,0.1445583 11.12441,0.3633264 18.57736,1.3806377 l 3.49612,0.477212 4.97055,-1.2353118 c 8.1936,-2.0363252 15.55673,-3.2735351 23.35909,-3.9249764 5.45918,-0.4558023 16.93148,-0.3889954 22.11759,0.1287979 21.75834,2.1724041 39.93617,9.7072959 55.19107,22.8772389 4.79936,4.14341 11.1715,11.114716 13.82723,15.127368 9.82623,14.846948 8.32178,45.754902 -4.12761,84.798958 -4.90976,15.39809 -11.09868,30.43112 -18.8986,45.90521 -3.20437,6.35705 -6.67663,12.76409 -9.01449,16.63359 -0.64772,1.07206 -1.10852,2.01834 -1.02404,2.10283 0.0845,0.0845 1.7653,0.008 3.73512,-0.16986 3.28803,-0.29698 5.04751,-0.5629 14.22159,-2.14939 9.20115,-1.59118 16.10318,0.55877 20.20615,6.29413 1.95575,2.73383 2.72016,5.2484 2.72016,8.94802 0,5.5498 -1.77766,9.44833 -6.60522,14.48567 -4.20534,4.38807 -10.30626,8.74542 -16.85031,12.03468 -5.65081,2.84027 -10.41908,4.43402 -17.4226,5.82334 -6.8704,1.36291 -10.00781,1.67562 -17.72708,1.76686 l -7.14375,0.0845 -0.17628,1.00565 c -0.097,0.55311 -0.3086,3.5655 -0.47032,6.6942 -0.79913,15.46011 -1.75774,24.35936 -3.61955,33.60208 -4.73042,23.48357 -14.57408,37.5969 -31.19794,44.72996 -4.89968,2.10238 -12.01875,4.10472 -18.85712,5.30383 -2.93637,0.51488 -11.07525,0.90768 -12.75066,0.61537 z m 12.13687,-8.72254 c 10.051,-1.45368 19.92823,-5.14676 26.01279,-9.72614 7.93448,-5.97167 12.71079,-15.16568 15.01007,-28.89319 1.44084,-8.60234 4.08817,-28.42451 6.13082,-45.90521 0.60365,-5.16599 1.12827,-9.4277 1.16582,-9.47048 0.0376,-0.0428 1.30327,0.19415 2.81272,0.5265 2.51116,0.5529 3.38543,0.60333 10.28507,0.59325 8.11485,-0.0119 11.31967,-0.33964 18.25625,-1.86728 10.17699,-2.24128 20.62038,-7.77759 27.20189,-14.42041 3.36405,-3.3954 4.60635,-5.72901 4.63093,-8.69908 0.0371,-4.48314 -3.89414,-7.25651 -9.60782,-6.77798 -1.0914,0.0914 -3.83415,0.51511 -6.09497,0.94156 -13.75391,2.59434 -23.78146,2.62972 -29.41005,0.10376 -0.84516,-0.37928 -1.53664,-0.7392 -1.53664,-0.79982 0,-0.0606 1.38327,-2.32015 3.07395,-5.02117 10.34823,-16.53234 20.01184,-36.05408 26.95858,-54.45989 13.3491,-35.36916 18.38643,-68.238579 13.03626,-85.063541 -1.51156,-4.753468 -3.08067,-7.216794 -8.21605,-12.898173 C 261.49193,27.275951 249.65375,19.519857 236.17772,14.900454 226.21757,11.48625 217.52704,10.057119 205.41116,9.8409926 194.36912,9.6440209 188.0881,10.214649 177.23304,12.40096 c -4.83566,0.973948 -11.85015,2.839811 -13.0105,3.460812 -0.38128,0.204059 -1.11753,0.136497 -2.8149,-0.258308 -2.93295,-0.682203 -7.83413,-1.500927 -11.55898,-1.930887 -3.99273,-0.460882 -17.23849,-0.455818 -20.50521,0.0078 -10.23383,1.452527 -19.13391,4.529527 -26.20218,9.058805 l -1.9928,1.27697 -3.431156,-1.198967 C 87.345682,19.193009 73.748668,16.065875 62.139286,14.634748 56.698971,13.964101 43.812656,13.81584 38.591369,14.363821 8.9983979,17.469639 -9.2771249,34.214941 -14.704962,63.197619 c -1.138854,6.081067 -1.517847,10.283253 -1.664621,18.45691 -0.150106,8.35919 0.03436,11.417414 1.144919,18.981631 2.872376,19.56423 9.2117788,46.47052 16.1145299,68.39479 7.3426664,23.32152 15.3525321,41.17551 23.4140031,52.18981 2.524437,3.44912 7.735099,8.7008 10.345833,10.42728 3.519149,2.32721 7.919212,3.79333 11.384431,3.79333 1.885624,0 5.104381,-0.7191 7.195817,-1.60762 4.272642,-1.81516 7.42288,-4.554 13.516023,-11.75092 6.137399,-7.2492 11.38991,-13.22045 17.385141,-19.7641 l 5.25735,-5.73826 2.316557,1.07081 c 4.426783,2.04625 10.765219,3.65884 14.381389,3.65884 0.86329,0 1.29513,0.11053 1.29216,0.33073 -0.004,0.31181 -2.55299,3.61028 -5.2462,6.78929 -2.54832,3.00799 -5.525253,4.25086 -15.916001,6.64495 -8.182853,1.88538 -10.664124,2.86585 -13.26266,5.24077 -1.967495,1.79818 -2.717091,3.37082 -2.732527,5.7328 -0.0095,1.44948 0.129387,2.13966 0.638791,3.175 2.198106,4.46756 8.286756,7.81796 17.340771,9.54212 4.533879,0.86338 12.545526,1.17578 16.727436,0.65226 7.57974,-0.94888 14.31706,-3.6954 20.47454,-8.34659 l 2.54156,-1.91983 0.15889,15.11727 c 0.1984,18.87668 0.7701,30.06668 2.04705,40.06711 0.9671,7.57388 1.68157,10.09468 4.47705,15.796 2.48739,5.07296 4.13109,7.45709 7.40229,10.73668 4.90325,4.91585 9.44167,7.26991 16.55035,8.58451 2.60276,0.48133 9.15146,0.47274 12.53375,-0.0164 z"
         id="path849" />
    </g>
  </g>
</svg>
