<?xml version="1.0" encoding="UTF-8" standalone="no"?>
<svg
   height="100"
   preserveAspectRatio="xMidYMid"
   width="100"
   viewBox="0 0 10.24 10.212766"
   version="1.1"
   id="svg9"
   sodipodi:docname="tailwindcss.svg"
   inkscape:version="1.1.1 (3bf5ae0d25, 2021-09-20)"
   xmlns:inkscape="http://www.inkscape.org/namespaces/inkscape"
   xmlns:sodipodi="http://sodipodi.sourceforge.net/DTD/sodipodi-0.dtd"
   xmlns="http://www.w3.org/2000/svg"
   xmlns:svg="http://www.w3.org/2000/svg"
   xmlns:rdf="http://www.w3.org/1999/02/22-rdf-syntax-ns#"
   xmlns:cc="http://creativecommons.org/ns#"
   xmlns:dc="http://purl.org/dc/elements/1.1/">
  <metadata
     id="metadata15">
    <rdf:RDF>
      <cc:Work
         rdf:about="">
        <dc:format>image/svg+xml</dc:format>
        <dc:type
           rdf:resource="http://purl.org/dc/dcmitype/StillImage" />
      </cc:Work>
    </rdf:RDF>
  </metadata>
  <defs
     id="defs13" />
  <sodipodi:namedview
     pagecolor="#ffffff"
     bordercolor="#666666"
     borderopacity="1"
     objecttolerance="10"
     gridtolerance="10"
     guidetolerance="10"
     inkscape:pageopacity="0"
     inkscape:pageshadow="2"
     inkscape:window-width="1920"
     inkscape:window-height="1011"
     id="namedview11"
     showgrid="false"
     inkscape:pagecheckerboard="true"
     fit-margin-top="0"
     fit-margin-left="0"
     fit-margin-right="0"
     fit-margin-bottom="0"
     inkscape:zoom="3.9095745"
     inkscape:cx="110.11428"
     inkscape:cy="78.013605"
     inkscape:window-x="0"
     inkscape:window-y="32"
     inkscape:window-maximized="1"
     inkscape:current-layer="svg9"
     inkscape:document-rotation="0" />
  <linearGradient
     id="a"
     x1="-0.027780002"
     y1="0.31999999"
     y2="0.67556">
    <stop
       offset="0"
       stop-color="#2298bd"
       id="stop2" />
    <stop
       offset="1"
       stop-color="#0ed7b5"
       id="stop4" />
  </linearGradient>
  <path
     d="m 5.12,2.5313302 c -1.092256,0 -1.774944,0.546144 -2.048,1.6384 0.4096,-0.546144 0.887456,-0.750944 1.4336,-0.6144 0.311584,0.077888 0.534304,0.303968 0.780832,0.554176 0.4016,0.407648 0.866368,0.879424 1.881568,0.879424 1.092256,0 1.774944,-0.546144 2.048,-1.6384 -0.4096,0.546144 -0.887456,0.750944 -1.4336,0.6144 C 7.470816,3.8870422 7.248096,3.6609622 7.001568,3.4107542 6.599968,3.0031062 6.1352,2.5313302 5.12,2.5313302 Z m -2.048,2.4576 c -1.092256,0 -1.774944,0.546144 -2.048,1.6384 0.4096,-0.546144 0.887456,-0.750944 1.4336,-0.6144 0.311584,0.077888 0.534304,0.303968 0.780832,0.554176 0.4016,0.407648 0.866368,0.879424 1.881568,0.879424 1.092256,0 1.774944,-0.546144 2.048,-1.6384 -0.4096,0.546144 -0.887456,0.750944 -1.4336,0.6144 C 5.422816,6.3446422 5.200096,6.1185622 4.953568,5.8683542 4.551968,5.4607062 4.0872,4.9889302 3.072,4.9889302 Z"
     fill="url(#a)"
     id="path7"
     style="fill:#2a7fff;fill-opacity:1;stroke-width:0.032" />
</svg>
