<?xml version="1.0" encoding="UTF-8" standalone="no"?>
<svg
   width="100mm"
   height="100mm"
   viewBox="0 0 100 100"
   version="1.1"
   id="svg8"
   inkscape:version="1.1.1 (3bf5ae0d25, 2021-09-20)"
   sodipodi:docname="vue.svg"
   xmlns:inkscape="http://www.inkscape.org/namespaces/inkscape"
   xmlns:sodipodi="http://sodipodi.sourceforge.net/DTD/sodipodi-0.dtd"
   xmlns="http://www.w3.org/2000/svg"
   xmlns:svg="http://www.w3.org/2000/svg"
   xmlns:rdf="http://www.w3.org/1999/02/22-rdf-syntax-ns#"
   xmlns:cc="http://creativecommons.org/ns#"
   xmlns:dc="http://purl.org/dc/elements/1.1/">
  <defs
     id="defs2" />
  <sodipodi:namedview
     id="base"
     pagecolor="#ffffff"
     bordercolor="#666666"
     borderopacity="1.0"
     inkscape:pageopacity="0.0"
     inkscape:pageshadow="2"
     inkscape:zoom="1.4"
     inkscape:cx="253.92858"
     inkscape:cy="250"
     inkscape:document-units="mm"
     inkscape:current-layer="g875"
     inkscape:document-rotation="0"
     showgrid="false"
     inkscape:pagecheckerboard="true"
     inkscape:window-width="1920"
     inkscape:window-height="1011"
     inkscape:window-x="0"
     inkscape:window-y="32"
     inkscape:window-maximized="1"
     fit-margin-top="0"
     fit-margin-left="0"
     fit-margin-right="0"
     fit-margin-bottom="0" />
  <metadata
     id="metadata5">
    <rdf:RDF>
      <cc:Work
         rdf:about="">
        <dc:format>image/svg+xml</dc:format>
        <dc:type
           rdf:resource="http://purl.org/dc/dcmitype/StillImage" />
      </cc:Work>
    </rdf:RDF>
  </metadata>
  <g
     inkscape:label="Layer 1"
     inkscape:groupmode="layer"
     id="layer1"
     transform="translate(56.199553,-14.931728)">
    <g
       id="g875"
       transform="translate(-19.927199,-2.0100328)">
      <path
         style="fill:#2a7fff;fill-opacity:1;stroke-width:0.0667823"
         d="m -6.296395,66.385633 -19.975959,-34.609969 7.925486,-0.01719 c 4.359019,-0.0095 7.95554,-0.0056 7.992269,0.0086 0.03673,0.01416 5.461129,9.374965 12.0542198,20.801765 6.5930917,11.4268 12.0024642,20.776057 12.0208302,20.776125 0.01838,6.8e-5 0.563551,-0.923386 1.211525,-2.052123 0.647971,-1.128734 3.078036,-5.342947 5.400142,-9.364915 4.209893,-7.29168 7.530064,-13.043772 13.992752,-24.242005 l 3.410899,-5.91024 7.995943,-0.01696 7.995934,-0.01696 -0.08575,0.156615 c -0.525824,0.960326 -39.893701,69.097234 -39.922743,69.097234 -0.02178,0 -9.0287728,-15.574485 -20.015548,-34.609967 z"
         id="path883" />
      <path
         style="fill:#2a7fff;fill-opacity:1;stroke-width:0.05583"
         d="M 4.390587,50.243752 C -0.752757,41.332585 -5.255028,33.53166 -5.61446,32.908364 l -0.653512,-1.133266 6.152212,0.0142 6.1522134,0.01419 3.8528335,6.683713 c 2.1190591,3.676041 3.8653961,6.683449 3.8807491,6.68313 0.01537,-4.22e-4 1.76144,-3.013242 3.880188,-6.695394 l 3.852274,-6.694821 6.151323,-0.0022 6.151323,-0.0022 -0.540401,0.936757 C 21.085491,53.824382 13.791994,66.444788 13.770036,66.445261 13.754675,66.445684 9.5339313,59.154905 4.390587,50.243735 Z"
         id="path877" />
    </g>
  </g>
</svg>
