<?xml version="1.0" encoding="UTF-8" standalone="no"?>
<svg
   xmlns:dc="http://purl.org/dc/elements/1.1/"
   xmlns:cc="http://creativecommons.org/ns#"
   xmlns:rdf="http://www.w3.org/1999/02/22-rdf-syntax-ns#"
   xmlns:svg="http://www.w3.org/2000/svg"
   xmlns="http://www.w3.org/2000/svg"
   xmlns:sodipodi="http://sodipodi.sourceforge.net/DTD/sodipodi-0.dtd"
   xmlns:inkscape="http://www.inkscape.org/namespaces/inkscape"
   width="100mm"
   height="86.567329mm"
   viewBox="0 0 100 86.567329"
   version="1.1"
   id="svg8"
   inkscape:version="1.0.2 (e86c870879, 2021-01-15, custom)"
   sodipodi:docname="vue.svg">
  <defs
     id="defs2" />
  <sodipodi:namedview
     id="base"
     pagecolor="#ffffff"
     bordercolor="#666666"
     borderopacity="1.0"
     inkscape:pageopacity="0.0"
     inkscape:pageshadow="2"
     inkscape:zoom="0.98994948"
     inkscape:cx="55.201197"
     inkscape:cy="67.564436"
     inkscape:document-units="mm"
     inkscape:current-layer="g875"
     inkscape:document-rotation="0"
     showgrid="false"
     inkscape:pagecheckerboard="true"
     inkscape:window-width="1920"
     inkscape:window-height="991"
     inkscape:window-x="-9"
     inkscape:window-y="-9"
     inkscape:window-maximized="1"
     fit-margin-top="0"
     fit-margin-left="0"
     fit-margin-right="0"
     fit-margin-bottom="0" />
  <metadata
     id="metadata5">
    <rdf:RDF>
      <cc:Work
         rdf:about="">
        <dc:format>image/svg+xml</dc:format>
        <dc:type
           rdf:resource="http://purl.org/dc/dcmitype/StillImage" />
        <dc:title />
      </cc:Work>
    </rdf:RDF>
  </metadata>
  <g
     inkscape:label="Layer 1"
     inkscape:groupmode="layer"
     id="layer1"
     transform="translate(56.199553,-14.931728)">
    <g
       id="g875"
       transform="translate(-19.927199,-2.0100328)">
      <path
         style="fill:#41b883;fill-opacity:1;stroke-width:0.0834779"
         d="m -11.302405,60.246623 -24.969949,-43.262461 9.906857,-0.02149 c 5.448774,-0.01183 9.944425,-0.007 9.990337,0.01073 0.04591,0.0177 6.8264111,11.718706 15.0677745,26.002207 8.2413646,14.2835 15.0030805,25.970071 15.0260375,25.970156 0.02297,8.5e-5 0.704439,-1.154233 1.514406,-2.565154 0.809964,-1.410917 3.847546,-6.678684 6.750178,-11.706144 5.262366,-9.1146 9.41258,-16.304715 17.49094,-30.302506 l 4.263624,-7.3878 9.994928,-0.0212 9.994918,-0.0212 -0.107187,0.195769 c -0.657281,1.20043 -49.867127,86.37156 -49.903429,86.37156 -0.02723,0 -11.2859662,-19.468101 -25.019435,-43.262454 z"
         id="path883" />
      <path
         style="fill:#34495e;fill-opacity:1;stroke-width:0.0836934"
         d="M -0.37936902,44.669361 C -8.0896296,31.31085 -14.838874,19.616673 -15.377689,18.682306 l -0.979665,-1.698851 9.2226302,0.02129 9.2226328,0.02127 5.7756885,10.01939 c 3.1766305,5.510663 5.7945205,10.018995 5.8175355,10.018516 0.02304,-6.32e-4 2.640531,-4.517077 5.816696,-10.0369 l 5.774849,-10.036043 9.221298,-0.0033 9.221299,-0.0033 -0.810103,1.404269 C 24.647553,50.036997 13.71405,68.955939 13.681133,68.956647 13.658103,68.957281 7.3308926,58.027854 -0.37936902,44.669336 Z"
         id="path877" />
    </g>
  </g>
</svg>
